<svg xmlns="http://www.w3.org/2000/svg" width="71" height="74"><path d="M53.2 17.8l7-6.9v-.1C66.8 17.4 71 26.6 71 36.7 71 56.8 54.8 73 34.9 73h-.6l.5-.2-.2-10.1c14.4-.2 26-12 26-26.6 0-7-2.8-13.5-7.4-18.3z" fill="#e0e4eb"/><path d="M34.5 69C17.1 69 3 54.9 3 37.5c0-3.5.6-6.9 1.7-10.2.2-.5.7-.8 1.3-.6.5.2.8.7.6 1.3C5.5 31 5 34.2 5 37.5 5 53.8 18.2 67 34.5 67S64 53.8 64 37.5 50.8 8 34.5 8c-6.7 0-13.1 2.2-18.3 6.4-.4.3-1.1.3-1.4-.2-.3-.4-.3-1.1.2-1.4C20.6 8.4 27.3 6 34.5 6 51.9 6 66 20.1 66 37.5S51.9 69 34.5 69z" fill="#6f86a2"/><g fill="#e30000"><path d="M47.7 24.3c-.4-.4-1-.4-1.4 0l-7.5 7.5h-1.4v-7.6h-2l-5.1 8 .1 1.2h5.1v1.8L20.3 50.3c-.4.4-.4 1 0 1.4.2.2.5.3.7.3s.5-.1.7-.3l26-26c.4-.4.4-1 0-1.4zm-15.4 7.5l3-4.7.1-.3v4.9h-3.1z"/><path d="M23.5 26.2c.4-.4.8-.6 1.5-.6.5 0 1 .2 1.3.5.3.3.5.8.5 1.4 0 .4-.1.9-.4 1.3s-.6 1-1.2 1.6l-3.9 4.3V36h8v-1.6h-5.5l2.9-3.1c.8-.8 1.3-1.6 1.6-2.2.3-.6.5-1.3.5-1.9 0-1-.3-1.8-1-2.4-.7-.5-1.6-.8-2.8-.8-.8 0-1.5.2-2.1.5s-1.1.8-1.4 1.3c-.3.6-.5 1.2-.5 1.9h2c0-.6.2-1.1.5-1.5zM43.2 43.1c-.7 0-1.3.2-1.9.5l.3-2.8h4.7V39H40l-.6 6 1.6.4c.3-.3.6-.5.8-.6.2-.1.6-.1.9-.1.7 0 1.2.2 1.5.6.4.4.6 1 .6 1.7s-.2 1.3-.5 1.8-.8.7-1.4.7c-.5 0-1-.2-1.3-.5-.3-.3-.5-.7-.6-1.3h-2c.1 1 .4 1.8 1.2 2.4.7.6 1.6.9 2.7.9 1.2 0 2.2-.4 2.9-1.1.7-.7 1-1.7 1-2.9s-.3-2.2-.9-2.9c-.7-.7-1.6-1-2.7-1z"/></g><path d="M11.9 9.2c-.1 0-.3-.1-.4-.2-.2-.2-.1-.5.1-.7 6.5-5.2 14.4-8 22.8-8 .3 0 .5.2.5.5s-.2.5-.5.5C26.2 1.3 18.6 4 12.2 9c-.1.1-.2.2-.3.2z" fill="#6f86a2"/><path fill="none" stroke="#6f86a2" stroke-width="2" stroke-linecap="round" stroke-linejoin="round" d="M1.1 29.6l4.5-2.4 2.5 4.9"/></svg>