<svg xmlns="http://www.w3.org/2000/svg" xmlns:xlink="http://www.w3.org/1999/xlink" width="71" height="74"><defs><path id="a" d="M0 0h84v84H0z"/></defs><g fill="none" fill-rule="evenodd" transform="translate(-6 -5)"><mask id="b" fill="#fff"><use xlink:href="#a"/></mask><g mask="url(#b)"><path fill="#E0E4EB" d="M59.218 22.8232l6.9769-6.9282-.023-.0573c6.6568 6.5909 10.784 15.757 10.784 25.8924 0 20.069-16.1816 36.3382-36.1425 36.3382-.1916 0-.383-.0015-.5739-.0045l.5391-.1781-.1682-10.115c14.3831-.2382 25.9698-12.0351 25.9698-26.5529 0-7.1401-2.8026-13.6221-7.3622-18.3946z"/><path stroke="#6F86A2" stroke-linecap="round" stroke-width="2" d="M11.6336 32.6263C10.5746 35.7231 10 39.0444 10 42.5 10 59.3447 23.6553 73 40.5 73S71 59.3447 71 42.5 57.3447 12 40.5 12c-7.158 0-13.74 2.4657-18.943 6.5942"/><path stroke="#E30000" stroke-linecap="round" stroke-width="2" d="M53 30L27 56"/><path fill="#E30000" d="M35.187 41h-7.9594v-1.3577l3.9431-4.3008c.5691-.6342.9743-1.164 1.2155-1.5895.2412-.4254.3618-.8523.3618-1.2805 0-.5636-.1586-1.019-.4756-1.3658-.3171-.3469-.744-.5203-1.2805-.5203-.6396 0-1.1355.195-1.4878.5853-.3523.3903-.5285.9241-.5285 1.6017H27c0-.721.164-1.37.4919-1.9472.3279-.5772.7967-1.0257 1.4065-1.3455.6097-.3198 1.313-.4797 2.1097-.4797 1.149 0 2.0556.2886 2.7195.8659.664.5772.996 1.3753.996 2.3943 0 .5908-.1667 1.21-.5 1.8577-.3334.6477-.8794 1.3835-1.6382 2.2073l-2.8943 3.0976h5.4959V41zm8.187-4.2195h1.4715v1.5854H43.374V41h-1.9756v-2.6341h-5.1138l-.057-1.2033 5.1057-8h2.0407v7.6179zm-5.0732 0h3.0976v-4.9431l-.1464.2602-2.9512 4.6829zM45.3659 49.9675L46.008 44h6.3578v1.7073h-4.7155l-.3252 2.8293c.5474-.3144 1.1653-.4716 1.8537-.4716 1.1273 0 2.004.3605 2.63 1.0813.626.721.939 1.691.939 2.9106 0 1.2033-.3468 2.1613-1.0406 2.874-.6938.7127-1.645 1.0691-2.8536 1.0691-1.084 0-1.9824-.3076-2.6952-.9228-.7127-.6151-1.0989-1.4268-1.1585-2.435h1.9106c.0759.5746.2818 1.015.6179 1.3212.336.3062.775.4594 1.317.4594.607 0 1.08-.2168 1.4187-.6504.3388-.4336.5082-1.0244.5082-1.7724 0-.7209-.187-1.2913-.561-1.7114-.374-.42-.8889-.63-1.5447-.63-.3578 0-.6613.0474-.9106.1422-.2493.0949-.5203.2805-.813.557l-1.5772-.3903z"/><path stroke="#6F86A2" stroke-linecap="round" d="M40.3596 5.8348c-8.4855 0-16.2882 2.923-22.4562 7.8171"/><path stroke="#6F86A2" stroke-linecap="round" stroke-linejoin="round" stroke-width="2" d="M7.0783 34.6212l4.5403-2.4354 2.4453 4.8751"/></g></g></svg>