<svg xmlns="http://www.w3.org/2000/svg" xmlns:xlink="http://www.w3.org/1999/xlink" width="59px" height="66px" viewBox="0 0 59 66">
    <g fill="none">
        <path stroke="#FFFFFF" stroke-linecap="round" stroke-width="2" d="M4.44616383,29.2593874 C3.5087162,32.0007847 3,34.9409838 3,38 C3,52.9116882 15.0883118,65 30,65 C44.9116882,65 57,52.9116882 57,38 C57,23.0883118 44.9116882,11 30,11 C23.6634918,11 17.8368016,13.1827903 13.230835,16.8374654"/>
        <path stroke="#E30000" stroke-linecap="round" stroke-width="2" d="M42,25 L16,51"/>
        <path id="24" fill="#E30000" d="M24.1869919,36 L16.2276423,36 L16.2276423,34.6422764 L20.1707317,30.3414634 C20.7398402,29.7073139 21.1449852,29.1775089 21.3861789,28.7520325 C21.6273725,28.3265561 21.7479675,27.8997311 21.7479675,27.4715447 C21.7479675,26.9078563 21.5894325,26.4525763 21.2723577,26.1056911 C20.955283,25.7588059 20.528458,25.5853659 19.9918699,25.5853659 C19.3523003,25.5853659 18.8563703,25.7804859 18.504065,26.1707317 C18.1517598,26.5609776 17.9756098,27.0948476 17.9756098,27.7723577 L16,27.7723577 C16,27.0514869 16.163955,26.4024419 16.4918699,25.8252033 C16.8197848,25.2479646 17.2886148,24.7994596 17.898374,24.4796748 C18.5081331,24.15989 19.2113781,24 20.0081301,24 C21.1571873,24 22.0636823,24.288615 22.7276423,24.8658537 C23.3916022,25.4430923 23.7235772,26.2411873 23.7235772,27.2601626 C23.7235772,27.8509515 23.5569122,28.4701865 23.2235772,29.1178862 C22.8902422,29.7655859 22.3441772,30.5013509 21.5853659,31.3252033 L18.6910569,34.4227642 L24.1869919,34.4227642 L24.1869919,36 Z M32.3739837,31.7804878 L33.8455285,31.7804878 L33.8455285,33.3658537 L32.3739837,33.3658537 L32.3739837,36 L30.398374,36 L30.398374,33.3658537 L25.2845528,33.3658537 L25.2276423,32.1626016 L30.3333333,24.1626016 L32.3739837,24.1626016 L32.3739837,31.7804878 Z M27.300813,31.7804878 L30.398374,31.7804878 L30.398374,26.8373984 L30.2520325,27.097561 L27.300813,31.7804878 Z"/>
        <polygon fill="#E30000" points="42.3159341 40.1126374 37.5192308 51 35.4175824 51 40.206044 40.6071429 34 40.6071429 34 39 42.3159341 39"/>
        <path stroke="#FFFFFF" stroke-linecap="round" d="M29.3595591,0.834760185 C20.8741309,0.834760185 13.0714169,3.75780711 6.90341429,8.65190367"/>
        <polyline stroke="#FFFFFF" stroke-linecap="round" stroke-linejoin="round" stroke-width="2" points="0.5 30.4354224 5.04317954 28 7.48999977 32.8750988"/>
    </g>
</svg>
