<svg xmlns="http://www.w3.org/2000/svg" xmlns:xlink="http://www.w3.org/1999/xlink" viewBox="0 0 841.89 595.28"><defs><style>.element-404-1,.element-404-17,.element-404-2,.element-404-9{fill:none;}.element-404-16,.element-404-2,.element-404-5{stroke:#6d849f;}.element-404-15,.element-404-16,.element-404-2,.element-404-5,.element-404-9{stroke-miterlimit:10;}.element-404-3{fill:#eceef2;}.element-404-4{opacity:0.15;}.element-404-5{fill:url(#New_Pattern_2);}.element-404-6{fill:#5d7287;}.element-404-7{fill:#4f6272;}.element-404-16,.element-404-8{fill:#6d849f;}.element-404-17,.element-404-9{stroke:#f2001c;}.element-404-9{stroke-width:3px;}.element-404-10{fill:#dfe3ea;}.element-404-11{fill:#f2001c;}.element-404-12{fill:#ce0220;}.element-404-13{clip-path:url(#clip-path);}.element-404-14,.element-404-15{fill:#ccd8e2;}.element-404-15{stroke:#ccd8e2;}.element-404-17{stroke-linejoin:round;stroke-width:2px;}.element-404-18{isolation:isolate;}.element-404-19{clip-path:url(#clip-path-2);}.element-404-20{fill:#fff;}</style><pattern id="New_Pattern_2" data-name="New Pattern 2" width="9.92" height="14.17" patternTransform="translate(-14.54 25.22) scale(0.77)" patternUnits="userSpaceOnUse" viewBox="0 0 9.92 14.17"><rect class="element-404-1" width="9.92" height="14.17"/><line class="element-404-2" x1="4.96" y1="28.34" x2="24.81" y2="14.17"/><line class="element-404-2" x1="-4.96" y1="28.34" x2="14.88" y2="14.17"/><line class="element-404-2" x1="-14.88" y1="28.34" x2="4.96" y2="14.17"/><line class="element-404-2" x1="4.96" y1="14.17" x2="24.81"/><line class="element-404-2" x1="-4.96" y1="14.17" x2="14.88"/><line class="element-404-2" x1="-14.88" y1="14.17" x2="4.96"/><line class="element-404-2" x1="4.96" x2="24.81" y2="-14.17"/><line class="element-404-2" x1="-4.96" x2="14.88" y2="-14.17"/><line class="element-404-2" x1="-14.88" x2="4.96" y2="-14.17"/></pattern><clipPath id="clip-path"><path class="element-404-1" d="M711.13,300.3l-.51-.35a2.35,2.35,0,0,1-1.06-1.92l-.1-5.38a1.87,1.87,0,0,1,1-1.71L714,289a3.41,3.41,0,0,0,1.77-3.59l-.58-3.49,8-1.38s0,2.92.16,4.59a44.23,44.23,0,0,0,1.07,5.91c.5,1.79-.43,3.73-4.24,4.27l.47,2.26s.61,0,1.13,0c.15.9-1.53,2.08-2.49,1.48l-.26.19a2.2,2.2,0,0,1-1.19.42l-.93,0-.46.29a2.23,2.23,0,0,1-1.47.3l-1.24-.18-.34.2A2.18,2.18,0,0,1,711.13,300.3Z"/></clipPath><clipPath id="clip-path-2"><polygon class="element-404-1" points="744.33 212.91 726.28 196.44 739.04 188 757.09 204.48 744.33 212.91"/></clipPath></defs><path class="element-404-3" d="M322.87,442.54h15.5v27.24h-15.5v32.37H287.56V469.78h-59l-2.1-21.58,61.07-98.27v-.31h35.31Zm-62.75,0h27.44V395.61l-2.2,3.56Z"/><path class="element-404-3" d="M459.79,439.82q0,30.9-13.88,47.66t-39.13,16.76q-25.45,0-39.39-16.86t-13.93-47.56V412q0-30.9,13.88-47.66t39.23-16.77q25.35,0,39.29,16.87t13.93,47.67Zm-35.31-32.37q0-16.45-4.29-24.57t-13.62-8.12q-9.1,0-13.25,7.54t-4.45,22.84v39q0,17.08,4.29,25T406.78,477q9,0,13.3-7.7t4.4-24.15Z"/><path class="element-404-3" d="M571.36,442.54h15.5v27.24h-15.5v32.37H536.05V469.78h-59L475,448.2l61.07-98.27v-.31h35.31Zm-62.75,0h27.44V395.61l-2.2,3.56Z"/><g class="element-404-4"><path class="element-404-5" d="M317.79,436.15H333.3v27.23H317.79v32.37h-35.3V463.38h-59l-2.09-21.58,61.07-98.26v-.31h35.3Zm-62.75,0h27.45V389.21l-2.2,3.57Z"/><path class="element-404-5" d="M454.71,433.42q0,30.91-13.88,47.67t-39.12,16.76q-25.45,0-39.39-16.87t-13.94-47.56V405.56q0-30.9,13.88-47.67t39.24-16.76q25.35,0,39.28,16.87t13.93,47.66Zm-35.3-32.37q0-16.44-4.29-24.56t-13.62-8.12q-9.12,0-13.25,7.54t-4.46,22.84v39q0,17.07,4.3,25t13.62,7.91q9,0,13.3-7.7t4.4-24.14Z"/><path class="element-404-5" d="M566.28,436.15h15.51v27.23H566.28v32.37H531V463.38H472l-2.1-21.58L531,343.54v-.31h35.3Zm-62.75,0H531V389.21l-2.2,3.57Z"/></g><path class="element-404-3" d="M662,143.45l.6-.14a2.39,2.39,0,0,1,2.13.53l4,3.58a1.89,1.89,0,0,1,.57,1.91l-1,3.91a3.43,3.43,0,0,0,1.43,3.74l3,2-4.44,6.81s-2.11-2-3.47-3a44.35,44.35,0,0,0-5.06-3.23c-1.66-.86-2.45-2.85-.25-6l-.75,1.24a18.1,18.1,0,0,1-2-1.6c-.76-.5-.48-2.54.61-2.83l0-.31a2.17,2.17,0,0,1,.5-1.16l.61-.71.1-.54a2.19,2.19,0,0,1,.77-1.28l1-.78.08-.39A2.18,2.18,0,0,1,662,143.45Z"/><path class="element-404-6" d="M786.78,368.91l-1.12-1a5,5,0,0,1-1.25-5.92h0c1.59-3.42,2.68-6.89,1.9-14.42l-1.44-4.77-3.46-3.29,3.81-6.34c6,2.34,8,1.79,13.6,4.17L797,346.59l-2-.28-.21,3.69a22.9,22.9,0,0,1-3.28,11Z"/><path class="element-404-7" d="M788.9,334.45l-.8,2.74,3.42,1.91s1.08,4,0,12.83c-.79,6.4-4.73,12.17-6.83,14.85a5.07,5.07,0,0,0,1,1.16l1.12,1,4.77-7.93a22.9,22.9,0,0,0,3.28-11l.21-3.69,2,.28,1.81-9.22C794.51,335.55,792.35,335.44,788.9,334.45Z"/><path class="element-404-8" d="M781.25,252.25l-1.14,7.05c-7.69,30.41-11.49,56.84,10,75.48l-5.91,9.54C760,330.77,751.26,295.71,755,267.4l13.13-20.6Z"/><path class="element-404-6" d="M780.11,259.3l1.14-7.05L775.92,250a64.08,64.08,0,0,0-4.49,9.64c-12.71,33.41.84,64.8,16.83,78.09l1.85-3C768.62,316.14,772.42,289.71,780.11,259.3Z"/><line class="element-404-9" x1="719.29" y1="503.53" x2="719.29" y2="291.31"/><line class="element-404-9" x1="773.99" y1="503.53" x2="773.99" y2="291.31"/><line class="element-404-9" x1="719.29" y1="373.14" x2="773.99" y2="373.14"/><line class="element-404-9" x1="719.29" y1="411.57" x2="773.99" y2="411.57"/><line class="element-404-9" x1="719.29" y1="449.99" x2="773.99" y2="449.99"/><line class="element-404-9" x1="719.29" y1="488.42" x2="773.99" y2="488.42"/><line class="element-404-9" x1="719.29" y1="296.29" x2="773.99" y2="296.29"/><line class="element-404-9" x1="719.29" y1="334.72" x2="773.99" y2="334.72"/><polygon class="element-404-10" points="666.6 166.74 673.63 159.41 671.01 156.4 663.98 163.74 666.6 166.74"/><path class="element-404-11" d="M674.26,158.63c17.06,18,36.07,25.56,63.8,24,1.65,1.25,5.7,14.72-9.28,14.2-23.59-.59-47.19-10.91-62.79-29.85Z"/><path class="element-404-3" d="M714.63,194.08l-5-10.76h0a13.76,13.76,0,0,1-10.7.46l-3.18-1.18,3.39-9.09-2.11-1.61,11.38-10.57s6.59-.16,11.27,3.8,2.82,15,2.82,15l7.33,5.9Z"/><path class="element-404-11" d="M712.77,192.68l.42,6.46,17.56-13.66-3.84-2.5A42.89,42.89,0,0,0,712.77,192.68Z"/><path class="element-404-8" d="M705.26,152.4a10.77,10.77,0,0,0,9.34,4.65c16.15-.37,17.21,18.6,9.67,24.45l-4.44-3.3a1.48,1.48,0,0,1-.43-1.88c1.62-3-1-5.72-3.29-4.74a.41.41,0,0,1-.57-.47c.47-2.09.83-6.68-4.35-8.23C704.38,160.84,703.76,158.05,705.26,152.4Z"/><path class="element-404-3" d="M711.13,300.3l-.51-.35a2.35,2.35,0,0,1-1.06-1.92l-.1-5.38a1.87,1.87,0,0,1,1-1.71L714,289a3.41,3.41,0,0,0,1.77-3.59l-.58-3.49,8-1.38s0,2.92.16,4.59a44.23,44.23,0,0,0,1.07,5.91c.5,1.79-.43,3.73-4.24,4.27l.47,2.26s.61,0,1.13,0c.15.9-1.53,2.08-2.49,1.48l-.26.19a2.2,2.2,0,0,1-1.19.42l-.93,0-.46.29a2.23,2.23,0,0,1-1.47.3l-1.24-.18-.34.2A2.18,2.18,0,0,1,711.13,300.3Z"/><path class="element-404-6" d="M721,371.79l.26-1.46a5,5,0,0,1,4.42-4.13h0c3.75-.4,7.29-1.25,13.33-5.81l3.35-3.69,1-4.66h7.4c1.09,6.34,2.57,7.73,3.44,13.8L745.4,369l-.78-1.83-3.26,1.72a22.94,22.94,0,0,1-11.1,2.86Z"/><path class="element-404-6" d="M776.18,260.34l2-2.95-7.92-.48-15,26.63C760.91,275.32,768.51,266.32,776.18,260.34Z"/><path class="element-404-8" d="M736.4,258.88l2-4,6.52-1.42,33.33-1.21-3.12,6.57h0c-27.64,29.69-33.75,43.27-24,94.88l-10,2.13C727.85,319.08,726.76,295.56,736.4,258.88Z"/><path class="element-404-12" d="M713.19,199.14s6.84-9.53,17.71-13.65l1,.5s-8.19,12.51-8.49,12.55S713.19,199.14,713.19,199.14Z"/><path class="element-404-7" d="M750.89,352.56l-4.09,1.23,2,6.48s-1.79,2.21-9.71,7.07c-6.7,4.11-15.46,3.88-18,3.72l-.13.73h9.26a22.94,22.94,0,0,0,11.1-2.86l3.26-1.72.78,1.83,8.83-3.2C753.39,359.94,752,358.45,750.89,352.56Z"/><path class="element-404-6" d="M750.56,253.26c-.94,1.31,14.67,2,13,3.05-28.53,27.79-27.18,60.43-17.1,98.38l4.63-1c-9.77-51.61-3.66-65.19,24-94.88h0l2.7-5.69.17-.87Z"/><path class="element-404-6" d="M736.4,258.88s15.61,4.48,28.32,3.73c11.21-.66,15.39-3.31,15.39-3.31l.38-2.63H737Z"/><path class="element-404-11" d="M703.27,211c10.52-14.49,21.74-24.47,34.79-28.4h0c24.14,10,44.11,47.24,48,73.66-16.19,5.19-33.2,5.34-50.71,2.42l5.05-14.35L723,224.21c4,14.75,4.61,38.58,1.69,55.92H713.58C717,255.47,711.56,230.87,703.27,211Z"/><polygon class="element-404-10" points="724.34 280.13 714.18 280.13 713.83 284.1 723.99 284.1 724.34 280.13"/><path class="element-404-12" d="M723,224.21a27.56,27.56,0,0,0-9.17-8.66c4.55,5.51,8.64,21.22,8.69,35a262.46,262.46,0,0,1-2,29.57h4.15C727.61,262.79,727,239,723,224.21Z"/><path class="element-404-12" d="M759.31,260.62a87.08,87.08,0,0,0,26.79-4.32c-3.93-26.42-23.9-63.65-48-73.66h0C769.76,206.14,773,240,759.31,260.62Z"/><g class="element-404-13"><path class="element-404-10" d="M717.49,296.54c.26,2.13,1.28,3.37,3.14,3.64,0,0,1-1.12.77-.86C720.56,300.38,718.17,298.65,717.49,296.54Z"/><path class="element-404-10" d="M714.85,297c.27,2.13,1.29,3.38,3.15,3.64,0,0,1-1.11.77-.86C717.92,300.87,715.53,299.13,714.85,297Z"/><path class="element-404-10" d="M711.86,297.39c.26,2.13,1.29,3.38,3.15,3.64,0,0,1-1.11.76-.86C714.93,301.24,712.54,299.5,711.86,297.39Z"/></g><rect class="element-404-14" x="80.11" y="338.27" width="15.06" height="1.8"/><path class="element-404-14" d="M94.67,338.77v.8H80.61v-.8H94.67m1-1H79.61v2.8H95.67v-2.8Z"/><line class="element-404-15" x1="86.62" y1="314.47" x2="86.62" y2="366.68"/><rect class="element-404-14" x="110.32" y="327.22" width="15.06" height="3.68"/><path class="element-404-14" d="M124.88,327.72v2.68H110.82v-2.68h14.06m1-1H109.82v4.68h16.06v-4.68Z"/><line class="element-404-15" x1="118.31" y1="314.47" x2="118.31" y2="352.1"/><rect class="element-404-14" x="140.53" y="331.9" width="15.06" height="57.5"/><path class="element-404-14" d="M155.1,332.4v56.5H141V332.4H155.1m1-1H140v58.5H156.1V331.4Z"/><line class="element-404-15" x1="148.97" y1="328.62" x2="148.97" y2="400.77"/><rect class="element-404-14" x="170.75" y="390.4" width="15.06" height="15.23"/><path class="element-404-14" d="M185.31,390.9v14.22H171.25V390.9h14.06m1-1H170.25v16.22h16.06V389.9Z"/><line class="element-404-15" x1="178.28" y1="366.68" x2="178.28" y2="427.53"/><rect class="element-404-14" x="261.39" y="270.26" width="15.06" height="19.15"/><path class="element-404-14" d="M276,270.76v18.15H261.89V270.76H276m1-1H260.89v20.15H277V269.76Z"/><line class="element-404-15" x1="268.92" y1="264.41" x2="268.92" y2="301.17"/><rect class="element-404-14" x="321.81" y="262.75" width="15.06" height="4.78"/><path class="element-404-14" d="M336.38,263.25V267H322.31v-3.78h14.07m1-1H321.31V268h16.07v-5.78Z"/><line class="element-404-15" x1="329.34" y1="225.22" x2="329.34" y2="291.34"/><rect class="element-404-14" x="382.24" y="232.02" width="15.06" height="1.98"/><path class="element-404-14" d="M396.8,232.52v1H382.74v-1H396.8m1-1H381.74v3H397.8v-3Z"/><line class="element-404-15" x1="389.77" y1="243.69" x2="389.77" y2="203.47"/><rect class="element-404-14" x="412.45" y="230.64" width="15.06" height="14.54"/><path class="element-404-14" d="M427,231.14v13.54H413V231.14H427m1-1H412v15.54H428V230.14Z"/><line class="element-404-15" x1="419.98" y1="223.58" x2="419.98" y2="269.93"/><rect class="element-404-14" x="442.67" y="246.09" width="15.06" height="23.34"/><path class="element-404-14" d="M457.23,246.59v22.34H443.17V246.59h14.06m1-1H442.17v24.34h16.06V245.59Z"/><line class="element-404-15" x1="450.2" y1="231.52" x2="450.2" y2="287.71"/><rect class="element-404-14" x="472.88" y="271.12" width="15.06" height="16.09"/><path class="element-404-14" d="M487.44,271.62v15.09H473.38V271.62h14.06m1-1H472.38v17.09h16.06V270.62Z"/><line class="element-404-15" x1="480.41" y1="267.26" x2="480.41" y2="302.9"/><rect class="element-404-14" x="533.31" y="273.9" width="15.06" height="22.64"/><path class="element-404-14" d="M547.87,274.4V296H533.81V274.4h14.06m1-1H532.81V297h16.06V273.4Z"/><line class="element-404-15" x1="540.84" y1="321.99" x2="540.84" y2="269.93"/><rect class="element-404-8" x="49.89" y="339.48" width="15.06" height="18.94"/><path class="element-404-8" d="M64.46,340v17.93H50.39V340H64.46m1-1H49.39v19.93H65.46V339Z"/><line class="element-404-16" x1="57.43" y1="328.4" x2="57.43" y2="380.62"/><rect class="element-404-8" x="200.96" y="338.27" width="15.06" height="67.36"/><path class="element-404-8" d="M215.52,338.77v66.35H201.46V338.77h14.06m1-1H200.46v68.35h16.06V337.77Z"/><line class="element-404-16" x1="208.49" y1="329.66" x2="208.49" y2="421.31"/><rect class="element-404-8" x="231.17" y="274.23" width="15.06" height="64.25"/><path class="element-404-8" d="M245.74,274.73V338H231.67V274.73h14.07m1-1H230.67V339h16.07V273.73Z"/><line class="element-404-16" x1="238.71" y1="256.29" x2="238.71" y2="344.16"/><rect class="element-404-8" x="291.6" y="261.54" width="15.06" height="27.22"/><path class="element-404-8" d="M306.16,262v26.22H292.1V262h14.06m1-1H291.1v28.22h16.06V261Z"/><line class="element-404-16" x1="299.13" y1="250.6" x2="299.13" y2="294.61"/><rect class="element-404-8" x="352.03" y="233.58" width="15.06" height="34.73"/><path class="element-404-8" d="M366.59,234.08v33.73H352.53V234.08h14.06m1-1H351.53v35.73h16.06V233.08Z"/><line class="element-404-16" x1="359.56" y1="225.22" x2="359.56" y2="281.5"/><rect class="element-404-8" x="503.09" y="274.75" width="15.06" height="11.23"/><path class="element-404-8" d="M517.66,275.25v10.23H503.59V275.25h14.07m1-1H502.59v12.23h16.07V274.25Z"/><line class="element-404-16" x1="510.79" y1="249.43" x2="510.79" y2="309.46"/><rect class="element-404-8" x="563.52" y="259.3" width="15.06" height="38.44"/><path class="element-404-8" d="M578.08,259.8v37.44H564V259.8h14.06m1-1H563v39.44h16.06V258.8Z"/><line class="element-404-16" x1="571.05" y1="250.6" x2="571.05" y2="308.42"/><rect class="element-404-8" x="593.73" y="200.96" width="15.06" height="57.34"/><path class="element-404-8" d="M608.3,201.46V257.8H594.23V201.46H608.3m1-1H593.23V258.8H609.3V200.46Z"/><line class="element-404-16" x1="601.26" y1="189.84" x2="601.26" y2="263.63"/><rect class="element-404-8" x="623.95" y="186.41" width="15.06" height="13.55"/><path class="element-404-8" d="M638.51,186.91v12.55H624.45V186.91h14.06m1-1H623.45v14.55h16.06V185.91Z"/><line class="element-404-16" x1="631.48" y1="176.19" x2="631.48" y2="234.06"/><rect class="element-404-14" x="342.52" y="450.44" width="12.77" height="64.85" transform="translate(-150.68 807.37) rotate(-87.16)"/><path class="element-404-14" d="M317.31,475.4l63.77,3.17-.58,11.76-63.77-3.17.58-11.76m-.95-1-.68,13.75,65.77,3.27.68-13.75-65.77-3.27Z"/><line class="element-404-15" x1="312.93" y1="480.3" x2="394.05" y2="484.33"/><rect class="element-404-14" x="229.66" y="475.79" width="17.27" height="12.77" transform="matrix(0.96, -0.26, 0.26, 0.96, -119.06, 80.21)"/><path class="element-404-14" d="M244.58,474.35l3.11,11.35L232,490l-3.11-11.35,15.69-4.31m.7-1.23L227.66,478l3.64,13.28,17.62-4.84-3.64-13.28Z"/><line class="element-404-15" x1="204.28" y1="491.51" x2="270.34" y2="473.39"/><rect class="element-404-14" x="446.84" y="463.42" width="26.4" height="12.77" transform="translate(-196.89 441.49) rotate(-43.13)"/><path class="element-404-14" d="M465.29,456.83l8,8.59L454.8,482.78l-8.05-8.59,18.54-17.36m0-1.42-20,18.74,9.41,10.05,20-18.74-9.42-10Z"/><line class="element-404-15" x1="481.6" y1="449.61" x2="435.44" y2="492.85"/><rect class="element-404-8" x="284.39" y="460.45" width="21.44" height="12.77" transform="translate(-242.77 341.5) rotate(-44.58)"/><path class="element-404-8" d="M298.26,455.47l8.27,8.38L292,478.2l-8.27-8.38,14.56-14.35m0-1.42-16,15.76,9.67,9.8,16-15.75-9.67-9.81Z"/><line class="element-404-16" x1="311.58" y1="450.6" x2="269.72" y2="491.86"/><rect class="element-404-8" x="497.36" y="471.73" width="12.77" height="12.77" transform="translate(-75.58 95.06) rotate(-10.03)"/><path class="element-404-8" d="M508.51,471.29l2.05,11.59L499,484.93l-2.05-11.59,11.59-2m.81-1.16-13.55,2.4,2.39,13.56,13.56-2.4-2.4-13.56Z"/><line class="element-404-16" x1="469.43" y1="484.03" x2="535.97" y2="472.26"/><rect class="element-404-14" x="563.08" y="463.9" width="12.77" height="17.27" transform="translate(-68.54 847.4) rotate(-70.12)"/><path class="element-404-14" d="M563.82,464.23l15.3,5.53-4,11.07-15.29-5.53,4-11.07m-.6-1.28-4.68,12.95,17.17,6.21,4.69-12.95L563.22,463Z"/><line class="element-404-15" x1="602.63" y1="484.52" x2="538.22" y2="461.23"/><rect class="element-404-8" x="399.39" y="452.51" width="12.77" height="34.58" transform="translate(-189.11 647.22) rotate(-65.79)"/><path class="element-404-8" d="M392.87,457.55l30.63,13.77-4.83,10.74-30.62-13.77,4.82-10.74m-.5-1.32-5.65,12.56,32.46,14.59,5.64-12.56-32.45-14.59Z"/><line class="element-404-16" x1="378.69" y1="457.63" x2="432.3" y2="481.73"/><path class="element-404-10" d="M660.19,145.6s-.81,1.87,1.45,3.05a2.67,2.67,0,0,0,1.77.32l-2.58-3.89Z"/><path class="element-404-17" d="M42,361.67l75.08-32.87a1.31,1.31,0,0,1,1.54.38l58.81,72.38a.92.92,0,0,0,1.52-.12l59.38-103.28a2.44,2.44,0,0,1,1-1L388.75,229a2.28,2.28,0,0,1,2,.05l119.32,61.45a2.39,2.39,0,0,0,1.49.22l58.68-11.09a2.36,2.36,0,0,0,1.32-.76l59.71-69a2.37,2.37,0,0,0,.32-.46l55.17-107.7"/><polygon class="element-404-11" points="691.94 91.66 690.47 108.8 686.4 102.47 678.89 102.87 691.94 91.66"/><path class="element-404-3" d="M664.07,157.33s-4.07-2.66-1.8-6c1.2-1.76,1.38-2.74-.27-3.39s-2.15-3.16-1.13-3.82,4.64,3.07,5.78,3.13,3.19,3.41,2.08,6.43S664.07,157.33,664.07,157.33Z"/><g id="Clip-2"><g class="element-404-18"><g class="element-404-19"><path class="element-404-20" d="M754.49,202.41l-12.37,8.17a.19.19,0,0,0,0,.3l2,1.87a.33.33,0,0,0,.38,0l12.37-8.17a.19.19,0,0,0,0-.3l-2-1.87a.33.33,0,0,0-.37,0m-15.94-2-3-5.55h0L742.1,198l-3.55,2.35m-5.89-8.16c-1.35.89-.9,2-.37,3,.27.52,5.41,10.67,5.61,11a.3.3,0,0,0,.35.14l2.77-.7.08,0a.16.16,0,0,0,.06-.23l-1.32-2.61,5.2-3.44,3.1,1.43a.29.29,0,0,0,.3,0,.12.12,0,0,0,0-.05c.08-.1,1.25-1.9,1.34-2s0-.24-.12-.29l-13.15-6.06c-1.23-.57-2.55-1.1-3.9-.2"/></g></g></g></svg>