<svg xmlns="http://www.w3.org/2000/svg" xmlns:xlink="http://www.w3.org/1999/xlink" width="117px" height="36px" viewBox="0 0 117 36">
    <g fill="#E30000">
        <path id="Fill-1" d="M81.863938,17.1787043 C81.143998,17.1787043 80.558998,17.7680087 80.558998,18.4882696 C80.558998,19.2155739 81.143998,19.7991391 81.863938,19.7991391 C82.583098,19.7991391 83.167318,19.2155739 83.167318,18.4882696 C83.167318,17.7680087 82.583098,17.1787043 81.863938,17.1787043 Z M36.645518,18.4235739 C36.645518,18.4235739 37.296558,16.2372261 37.395618,15.8947043 C37.658738,15.0051391 38.052378,13.6045304 38.052378,13.6045304 L38.116858,13.6045304 C38.116858,13.6045304 38.479298,15.0562696 38.715898,15.8819217 C38.808458,16.2030522 39.430378,18.4235739 39.430378,18.4235739 L36.645518,18.4235739 Z M40.608178,22.3940087 L42.963518,22.3940087 L39.406198,11.4841826 C39.032058,11.3574 38.564318,11.2780957 38.070578,11.2780957 C37.531338,11.2780957 37.338938,11.3498348 36.915918,11.4841826 L33.143578,22.3940087 L35.399598,22.3940087 C35.399598,22.3940087 35.702238,21.4387043 36.071958,20.2517478 L39.972998,20.2517478 C40.324518,21.4379217 40.608178,22.3940087 40.608178,22.3940087 Z M116.808458,22.3940087 C116.808458,22.3940087 115.693318,20.005487 115.419798,19.465487 C115.112218,18.8524435 114.828818,18.4295739 114.198838,18.279313 L114.198838,18.243313 C114.620818,18.163487 114.955958,17.9067913 115.318658,17.1267913 C115.668358,16.363487 115.771838,16.2004435 115.975938,16.0201826 C116.177178,15.837313 116.451218,15.9069652 116.451218,15.9069652 L116.554958,14.4862696 C116.261678,14.4471391 115.937978,14.4466174 115.603618,14.4648783 C115.051118,14.499313 114.762518,14.6566174 114.492118,14.9339217 C114.280478,15.1449652 114.134098,15.4598348 113.954438,15.8289652 C113.762298,16.2234 113.611498,16.5424435 113.418838,16.9441826 C113.222278,17.355313 113.126338,17.5389652 112.596978,17.5389652 L112.253518,17.5389652 L112.253518,14.589313 L110.200558,14.589313 L110.200558,22.3940087 L112.253518,22.3940087 L112.253518,19.2048783 L112.533018,19.2001826 C113.116458,19.2001826 113.216298,19.3462696 113.526218,19.9637478 C113.891258,20.7020087 114.580518,22.3940087 114.580518,22.3940087 L116.808458,22.3940087 Z M108.417478,22.3940087 L108.417478,14.589313 L106.372318,14.589313 L106.372318,17.5402696 L104.057278,17.5402696 L104.057278,14.589313 L102.016018,14.589313 L102.016018,22.3940087 L104.057278,22.3940087 L104.057278,19.2069652 L106.372318,19.2069652 L106.372318,22.3940087 L108.417478,22.3940087 Z M52.231478,14.5183565 L52.223158,21.9836609 C53.192438,22.3940087 54.257138,22.5789652 55.203278,22.5789652 C57.374278,22.5789652 58.535958,21.4530522 58.535958,19.5972261 C58.535958,17.9180087 57.507658,16.8792261 55.585738,16.8792261 C55.097458,16.8792261 54.811198,16.9441826 54.275078,17.073313 L54.275078,14.5183565 L52.231478,14.5183565 Z M56.421898,19.6924435 C56.421898,20.4625304 56.151498,20.9900087 55.169738,20.9900087 C54.839018,20.9900087 54.703038,20.9900087 54.274038,20.8692261 L54.274038,18.6187043 C54.806778,18.5146174 54.853838,18.4971391 55.169738,18.4971391 C56.108078,18.4971391 56.421898,18.9549652 56.421898,19.6924435 Z M100.945078,21.6450522 C100.403498,20.8217478 100.263358,20.3360087 100.263358,19.3003565 L100.263358,17.1980087 C100.263358,16.0621826 100.133618,15.6455739 99.834358,15.2292261 C99.418618,14.6451391 98.727538,14.3926174 97.450938,14.3926174 C96.549778,14.3926174 95.667078,14.4904435 94.822338,14.7061826 L95.124718,16.2119217 C95.697498,16.1315739 96.299918,16.0621826 96.732038,16.0621826 C98.083258,16.0621826 98.239258,16.2601826 98.239258,17.277313 L98.239258,17.6587043 C97.939218,17.5775739 97.601738,17.5191391 97.207318,17.5191391 C95.163458,17.5191391 94.087318,18.519313 94.087318,20.1706174 C94.087318,21.7225304 95.237298,22.5698348 96.645198,22.5698348 C97.169098,22.5698348 97.713798,22.4720087 98.145658,22.2969652 C98.406958,22.1816609 98.520318,22.1167043 98.857018,21.8934 C99.061118,22.1939217 99.470358,22.4975739 99.636238,22.5523565 L100.945078,21.6450522 Z M98.346118,20.745313 C97.897358,20.901313 97.601738,20.937313 97.245278,20.937313 C96.513378,20.937313 96.101278,20.647487 96.101278,19.8948783 C96.101278,19.1117478 96.625178,18.8464435 97.638398,18.8464435 C97.884358,18.8464435 98.127458,18.8837478 98.239258,18.9236609 L98.239258,19.485313 C98.239258,20.0910522 98.272018,20.487313 98.346118,20.745313 Z M78.389818,21.6450522 C77.850578,20.8217478 77.710178,20.3360087 77.710178,19.3003565 L77.710178,17.1980087 C77.710178,16.0621826 77.579398,15.6455739 77.279098,15.2292261 C76.865438,14.6451391 76.173058,14.3926174 74.897238,14.3926174 C73.997638,14.3926174 73.112598,14.4904435 72.267078,14.7061826 L72.570238,16.2119217 C73.145358,16.1315739 73.744138,16.0621826 74.177298,16.0621826 C75.531118,16.0621826 75.687118,16.2601826 75.687118,17.277313 L75.687118,17.6587043 C75.386298,17.5775739 75.047258,17.5191391 74.653618,17.5191391 C72.608198,17.5191391 71.532058,18.519313 71.532058,20.1706174 C71.532058,21.7225304 72.681518,22.5698348 74.091238,22.5698348 C74.614618,22.5698348 75.160878,22.4720087 75.592738,22.2969652 C75.852478,22.1816609 75.965838,22.1167043 76.304098,21.8934 C76.508198,22.1939217 76.915098,22.4975739 77.081758,22.5523565 L78.389818,21.6450522 Z M75.792158,20.745313 C75.342878,20.901313 75.047258,20.937313 74.692358,20.937313 C73.960978,20.937313 73.545238,20.647487 73.545238,19.8948783 C73.545238,19.1117478 74.069918,18.8464435 75.083138,18.8464435 C75.326758,18.8464435 75.572198,18.8837478 75.687118,18.9236609 L75.687118,19.485313 C75.687118,20.0910522 75.716758,20.487313 75.792158,20.745313 Z M50.610898,22.3940087 L50.610898,14.8736609 C49.488478,14.5381826 48.625018,14.3926174 47.498698,14.3926174 C46.373418,14.3926174 45.531278,14.5381826 44.408338,14.8736609 L44.408338,18.7240957 C44.408338,19.7712261 44.390398,20.085313 44.276778,20.4236609 C44.163678,20.7202696 44.012098,21.0763565 43.600258,21.3515739 L44.157438,22.5523565 C45.798818,22.0872261 46.417098,21.3706174 46.417098,19.0929652 L46.417098,16.2601826 C46.959458,16.1806174 47.066578,16.1623565 47.498698,16.1623565 C47.933678,16.1623565 48.024418,16.1806174 48.565218,16.2601826 L48.565218,22.3940087 L50.610898,22.3940087 Z M66.080378,24.9505304 L66.080378,22.1464435 C66.339338,22.3000957 66.855698,22.5270522 67.726438,22.5270522 C69.457778,22.5270522 70.733598,21.0834 70.733598,18.4452261 C70.733598,15.6035739 69.466098,14.3871391 67.382978,14.3871391 C66.853618,14.3871391 66.509118,14.4416609 66.080378,14.6467043 L66.080378,11.2963565 L64.044318,11.2963565 L64.044318,14.6467043 C63.616098,14.4416609 63.269518,14.3871391 62.740938,14.3871391 C60.658078,14.3871391 59.389538,15.6539217 59.389538,18.4937478 C59.389538,21.1329652 60.536138,22.5270522 62.394358,22.5270522 C63.268738,22.5270522 63.785358,22.3000957 64.044318,22.1464435 L64.044318,24.9505304 L66.080378,24.9505304 Z M61.489038,18.4937478 C61.489038,16.9272261 61.959378,16.0989652 62.897198,16.0989652 C63.293178,16.0989652 63.556038,16.0966174 64.044318,16.3308783 L64.044318,20.6401826 C63.601018,20.7860087 63.391458,20.8058348 62.996258,20.8058348 C61.927398,20.8058348 61.489038,19.9306174 61.489038,18.4937478 Z M68.635138,18.4452261 C68.635138,19.8802696 68.065478,20.8058348 67.127658,20.8058348 C66.734018,20.8058348 66.525238,20.7860087 66.080378,20.6401826 L66.080378,16.3308783 C66.568658,16.0966174 66.831518,16.0989652 67.225938,16.0989652 C68.165058,16.0989652 68.635138,16.8776609 68.635138,18.4452261 Z M93.307318,19.0060957 C93.307318,17.0725304 92.178398,15.7402696 89.806418,15.7402696 C89.223758,15.7402696 88.816858,15.7960957 88.188438,15.9450522 L88.184018,13.1618348 C88.574538,13.1060087 89.244298,13.0569652 89.981658,13.0569652 C90.679238,13.0569652 91.562978,13.095313 92.338298,13.1902696 L92.392378,11.577313 C91.510978,11.3790522 90.233078,11.2580087 89.241178,11.2580087 C88.263838,11.2580087 86.744398,11.5032261 86.020558,11.6996609 L86.019778,21.9875739 C87.147918,22.4015739 88.248758,22.5912261 89.378978,22.5912261 C91.965198,22.5912261 93.307318,21.2156609 93.307318,19.0060957 Z M91.132418,19.1618348 C91.132418,20.2045304 90.557298,20.8906174 89.497798,20.8906174 C89.078938,20.8906174 88.735478,20.8919217 88.188438,20.7421826 L88.188438,17.5859217 C88.429978,17.5460087 88.928918,17.4682696 89.497798,17.4888783 C90.574978,17.5298348 91.132418,18.0346174 91.132418,19.1618348 Z M11.218558,5.63757391 L8.159398,14.8527913 L14.326338,14.8527913 L11.256778,5.63757391 L11.218558,5.63757391 Z M0.497458,30.1749652 C0.307658,30.1749652 0.154518,30.3325304 0.154518,30.5274 L0.154518,34.4459217 C0.154518,34.641313 0.307658,34.7980957 0.497458,34.7980957 L21.976318,34.7980957 C22.164558,34.7980957 22.316398,34.641313 22.316398,34.4459217 L22.316398,30.5274 C22.316398,30.3325304 22.164558,30.1749652 21.976318,30.1749652 L0.497458,30.1749652 Z M11.236758,0.159313043 C13.587418,0.159313043 14.326338,1.84844348 14.943838,3.53966087 C15.205918,4.25470435 21.311498,21.0301826 21.494018,21.5334 C21.545238,21.6721826 21.511438,21.9040957 21.295898,21.9867913 C21.079578,22.0692261 17.906538,23.307313 17.731558,23.373313 C17.556058,23.4395739 17.358458,23.3417478 17.293978,23.1667043 C17.228978,22.9927043 15.914158,19.3360957 15.765438,18.9265304 L6.719258,18.9265304 C6.570538,19.3360957 5.241938,22.9992261 5.180578,23.1667043 C5.119738,23.3341826 4.929678,23.4471391 4.744298,23.373313 C4.558138,23.2989652 1.371058,22.0600957 1.182818,21.9867913 C1.000298,21.9171391 0.916578,21.7092261 0.981318,21.5334 C1.205958,20.9036609 7.218198,4.39818261 7.526298,3.53966087 C8.120918,1.87557391 8.887138,0.159313043 11.236758,0.159313043 Z"/>
        <path id="Fill-3" d="M33.85343,32.5476 C33.85343,33.5083826 34.37213,34.3687304 35.28317,34.3687304 C36.20071,34.3687304 36.71915,33.5214261 36.71915,32.5006435 C36.71915,31.6069043 36.25375,30.6727304 35.28967,30.6727304 C34.33209,30.6727304 33.85343,31.5602087 33.85343,32.5476 M37.33093,32.4740348 C37.33093,34.0217739 36.39363,34.8424696 35.24989,34.8424696 C34.06611,34.8424696 33.23515,33.9218609 33.23515,32.5609043 C33.23515,31.1331652 34.11941,30.1992522 35.31619,30.1992522 C36.53975,30.1992522 37.33093,31.1399478 37.33093,32.4740348"/>
        <polygon id="Fill-5" points="39.977912 31.5400435 39.977912 32.007 38.973792 32.007 38.973792 34.769087 38.395552 34.769087 38.395552 32.007 37.391432 32.007 37.391432 31.5400435"/>
        <path id="Fill-7" d="M41.141828,32.5208348 C41.141828,32.9478783 41.082028,33.3613565 40.975688,33.7218783 C40.909128,33.9417913 40.816048,34.1418783 40.716208,34.3218783 L42.198988,34.3218783 L42.198988,31.9870957 L41.141828,31.9870957 L41.141828,32.5208348 Z M42.770988,31.5399652 L42.770988,34.3289217 L43.103268,34.3354435 L43.070248,35.7965739 L42.611348,35.7965739 L42.584568,34.7690087 L40.357148,34.7690087 L40.330628,35.7965739 L39.871988,35.7965739 L39.845208,34.3354435 L40.117948,34.3289217 C40.257568,34.1220522 40.363908,33.9018783 40.436968,33.6681391 C40.563328,33.2679652 40.623128,32.8344 40.623128,32.3807478 L40.623128,31.5399652 L42.770988,31.5399652 Z"/>
        <path id="Fill-9" d="M45.583772,32.8410783 C45.590532,32.4672522 45.430892,31.8870783 44.772572,31.8870783 C44.180812,31.8870783 43.921592,32.4338609 43.875052,32.8410783 L45.583772,32.8410783 Z M43.868292,33.2613391 C43.881552,34.0551652 44.386992,34.3820348 44.971992,34.3820348 C45.391112,34.3820348 45.643572,34.3087304 45.863012,34.2153391 L45.962852,34.6356 C45.756672,34.7289913 45.404372,34.835687 44.892432,34.835687 C43.901572,34.835687 43.309812,34.1819478 43.309812,33.2078609 C43.309812,32.2340348 43.881552,31.4665565 44.819112,31.4665565 C45.869772,31.4665565 46.149012,32.3939478 46.149012,32.987687 C46.149012,33.107687 46.135752,33.2013391 46.128992,33.2613391 L43.868292,33.2613391 Z"/>
        <path id="Fill-11" d="M49.028538,31.5400435 L49.028538,34.769087 L48.450038,34.769087 L48.450038,32.0004783 L47.346338,32.0004783 L47.346338,32.841 C47.346338,33.7483043 47.259758,34.3553478 46.840898,34.629 C46.681258,34.7557826 46.501858,34.829087 46.202598,34.829087 L46.142798,34.368913 C46.255638,34.3488261 46.381998,34.3021304 46.461818,34.2353478 C46.761078,34.0151739 46.794358,33.5615217 46.794358,32.841 L46.794358,31.5400435 L49.028538,31.5400435 Z"/>
        <path id="Fill-13" d="M51.768184,32.8410783 C51.774944,32.4672522 51.615304,31.8870783 50.956984,31.8870783 C50.365224,31.8870783 50.106004,32.4338609 50.059464,32.8410783 L51.768184,32.8410783 Z M50.052704,33.2613391 C50.065964,34.0551652 50.571404,34.3820348 51.156404,34.3820348 C51.575524,34.3820348 51.827984,34.3087304 52.047424,34.2153391 L52.147264,34.6356 C51.941084,34.7289913 51.588784,34.835687 51.076844,34.835687 C50.085984,34.835687 49.494224,34.1819478 49.494224,33.2078609 C49.494224,32.2340348 50.065964,31.4665565 51.003524,31.4665565 C52.054184,31.4665565 52.333424,32.3939478 52.333424,32.987687 C52.333424,33.107687 52.320164,33.2013391 52.313404,33.2613391 L50.052704,33.2613391 Z"/>
        <polygon id="Fill-15" points="53.36435 31.5400435 53.36435 32.841 54.89367 32.841 54.89367 31.5400435 55.47217 31.5400435 55.47217 34.769087 54.89367 34.769087 54.89367 33.3079565 53.36435 33.3079565 53.36435 34.769087 52.78585 34.769087 52.78585 31.5400435"/>
        <path id="Fill-17" d="M56.709328,31.5400435 L56.709328,32.901 C56.709328,33.414913 56.702568,33.735 56.676048,34.1954348 L56.696068,34.2019565 C56.888728,33.8083043 57.001828,33.5816087 57.214508,33.2080435 L58.218628,31.5400435 L58.903468,31.5400435 L58.903468,34.769087 L58.344988,34.769087 L58.344988,33.4016087 C58.344988,32.8743913 58.358248,32.6007391 58.384768,32.0803043 L58.365008,32.0803043 C58.158828,32.4940435 58.019208,32.7541304 57.833048,33.0812609 C57.527288,33.5816087 57.174728,34.2019565 56.828928,34.769087 L56.157348,34.769087 L56.157348,31.5400435 L56.709328,31.5400435 Z"/>
        <path id="Fill-19" d="M61.636744,32.8410783 C61.643244,32.4672522 61.483604,31.8870783 60.825544,31.8870783 C60.233784,31.8870783 59.974304,32.4338609 59.927764,32.8410783 L61.636744,32.8410783 Z M59.921264,33.2613391 C59.934524,34.0551652 60.439704,34.3820348 61.024964,34.3820348 C61.443824,34.3820348 61.696284,34.3087304 61.915984,34.2153391 L62.015564,34.6356 C61.809644,34.7289913 61.457344,34.835687 60.945144,34.835687 C59.954544,34.835687 59.362524,34.1819478 59.362524,33.2078609 C59.362524,32.2340348 59.934524,31.4665565 60.872084,31.4665565 C61.922744,31.4665565 62.201984,32.3939478 62.201984,32.987687 C62.201984,33.107687 62.188464,33.2013391 62.181964,33.2613391 L59.921264,33.2613391 Z"/>
        <path id="Fill-21" d="M65.101296,31.9736348 C64.755496,31.9736348 64.509536,32.1538957 64.376416,32.4139826 C64.270076,32.6075478 64.217036,32.8410261 64.217036,33.101113 C64.217036,33.6348522 64.476256,34.4023304 65.114556,34.4023304 C65.759356,34.4023304 65.998816,33.7749391 65.998816,33.1812 C65.998816,32.6542435 65.792636,31.9736348 65.101296,31.9736348 Z M66.251536,30.4462435 C66.085396,30.5059826 65.792636,30.5594609 65.579956,30.5928522 C65.061516,30.6729391 64.682436,30.8464174 64.436216,31.1998957 C64.230036,31.4933739 64.110436,31.9269391 64.083916,32.2673739 L64.103936,32.2673739 C64.310116,31.8004174 64.761996,31.5400696 65.220896,31.5400696 C66.012336,31.5400696 66.590836,32.1072 66.590836,33.1345043 C66.590836,34.1886783 66.045356,34.8424174 65.101296,34.8424174 C63.970816,34.8424174 63.598756,33.7548522 63.598756,32.6808522 C63.598756,31.9470261 63.751636,31.3467652 64.097436,30.8928522 C64.409696,30.4462435 64.855336,30.2393739 65.480376,30.1324174 C65.739596,30.0925043 66.058876,30.0390261 66.278056,29.9589391 L66.251536,30.4462435 Z"/>
        <path id="Fill-23" d="M68.765684,33.1213043 C68.127384,33.1077391 67.402504,33.2214783 67.402504,33.8483478 C67.402504,34.2286957 67.655224,34.4089565 67.954484,34.4089565 C68.373084,34.4089565 68.639324,34.1418261 68.732404,33.8684348 C68.752164,33.8084348 68.765684,33.7416522 68.765684,33.6813913 L68.765684,33.1213043 Z M68.852004,34.7689565 L68.805464,34.3622609 L68.785444,34.3622609 C68.606044,34.6158261 68.260244,34.8425217 67.801344,34.8425217 C67.149784,34.8425217 66.817504,34.382087 66.817504,33.9151304 C66.817504,33.1346087 67.508844,32.7075652 68.752164,32.714087 L68.752164,32.6475652 C68.752164,32.3806957 68.679104,31.9001739 68.020784,31.9001739 C67.721524,31.9001739 67.409004,31.9938261 67.183064,32.1404348 L67.049944,31.7535652 C67.316184,31.580087 67.701764,31.4666087 68.107364,31.4666087 C69.091464,31.4666087 69.330664,32.1404348 69.330664,32.7876522 L69.330664,33.9952174 C69.330664,34.2753913 69.344184,34.5490435 69.383964,34.7689565 L68.852004,34.7689565 Z"/>
        <polygon id="Fill-25" points="70.581108 31.5400435 70.581108 32.841 72.110428 32.841 72.110428 31.5400435 72.688668 31.5400435 72.688668 34.769087 72.110428 34.769087 72.110428 33.3079565 70.581108 33.3079565 70.581108 34.769087 70.002348 34.769087 70.002348 31.5400435"/>
        <path id="Fill-27" d="M73.965918,31.5400435 L73.965918,32.9411739 L74.105538,32.9411739 L75.315578,31.5400435 L76.027198,31.5400435 L74.624238,33.0011739 C75.142678,33.0546522 75.455458,33.4016087 75.707918,33.9817826 C75.794498,34.1954348 75.907598,34.509 76.053718,34.769087 L75.442198,34.769087 C75.355618,34.629 75.242518,34.3754348 75.142678,34.1085652 C74.923498,33.5883913 74.624238,33.3481304 74.079018,33.3481304 L73.965918,33.3481304 L73.965918,34.769087 L73.387418,34.769087 L73.387418,31.5400435 L73.965918,31.5400435 Z"/>
        <path id="Fill-29" d="M78.008866,33.1213043 C77.370566,33.1077391 76.645946,33.2214783 76.645946,33.8483478 C76.645946,34.2286957 76.898406,34.4089565 77.197926,34.4089565 C77.616526,34.4089565 77.882766,34.1418261 77.975846,33.8684348 C77.995606,33.8084348 78.008866,33.7416522 78.008866,33.6813913 L78.008866,33.1213043 Z M78.095446,34.7689565 L78.048906,34.3622609 L78.028886,34.3622609 C77.849486,34.6158261 77.503686,34.8425217 77.044786,34.8425217 C76.393226,34.8425217 76.060946,34.382087 76.060946,33.9151304 C76.060946,33.1346087 76.752286,32.7075652 77.995606,32.714087 L77.995606,32.6475652 C77.995606,32.3806957 77.922546,31.9001739 77.264486,31.9001739 C76.964966,31.9001739 76.652446,31.9938261 76.426506,32.1404348 L76.293386,31.7535652 C76.559626,31.580087 76.944946,31.4666087 77.350806,31.4666087 C78.334906,31.4666087 78.574106,32.1404348 78.574106,32.7876522 L78.574106,33.9952174 C78.574106,34.2753913 78.587626,34.5490435 78.627406,34.7689565 L78.095446,34.7689565 Z"/>
    </g>
</svg>
