<svg xmlns="http://www.w3.org/2000/svg" xmlns:xlink="http://www.w3.org/1999/xlink" width="105px" height="36px" viewBox="0 0 105 36">
    <g fill="#E30000">
        <path d="M11.4425085,5.64589831 L8.27877966,15.1444068 L14.6562712,15.1444068 L11.4815593,5.64589831 L11.4425085,5.64589831 Z M0.354508475,30.9374237 C0.158644068,30.9374237 0,31.100339 0,31.3004746 L0,35.3410169 C0,35.5423729 0.158644068,35.7034576 0.354508475,35.7034576 L22.5677288,35.7034576 C22.7623729,35.7034576 22.9191864,35.5423729 22.9191864,35.3410169 L22.9191864,31.3004746 C22.9191864,31.100339 22.7623729,30.9374237 22.5677288,30.9374237 L0.354508475,30.9374237 Z M11.4614237,0 C13.892339,0 14.6562712,1.74142373 15.2951186,3.48284746 C15.5660339,4.22054237 21.8800678,21.5121356 22.0686102,22.0307797 C22.1216949,22.1741695 22.0869153,22.4133559 21.8635932,22.4981695 C21.639661,22.5829831 18.3587797,23.8588475 18.1775593,23.9277966 C17.996339,23.9955254 17.7919322,23.8942373 17.7248136,23.7142373 C17.6583051,23.5348475 16.2982373,19.7652203 16.1444746,19.3435932 C15.692339,19.3435932 7.24088136,19.3435932 6.7899661,19.3435932 C6.63498305,19.7652203 5.26149153,23.5421695 5.1980339,23.7142373 C5.13518644,23.8875254 4.93810169,24.0034576 4.74650847,23.9277966 C4.55430508,23.8509153 1.25816949,22.5738305 1.06352542,22.4981695 C0.874983051,22.4267797 0.787728814,22.2113898 0.855457627,22.0307797 C1.08732203,21.3821695 7.30494915,4.36942373 7.62345763,3.48284746 C8.23850847,1.76888136 9.03111864,0 11.4614237,0 Z"/>
        <circle id="Oval" cx="67.7288136" cy="18.9152542" r="1.22033898"/>
        <path d="M42.1077879,22.9427211 C42.0265476,22.6873945 41.94821,22.4262689 41.8727726,22.1593365 C41.7973351,21.8924042 41.7248003,21.648687 41.6551657,21.4281777 C41.5739255,21.1728511 41.4984892,20.9233311 41.4288547,20.6796102 L37.285621,20.6796102 C37.2159865,20.9233311 37.1405502,21.1728511 37.0593099,21.4281777 C36.9896754,21.648687 36.9113377,21.8924042 36.8242946,22.1593365 C36.7372514,22.4262689 36.653111,22.6873945 36.5718707,22.9427211 L34.1694915,22.9427211 L38.1734568,11.3834474 C38.4055719,11.3138128 38.597064,11.2586863 38.7479388,11.2180662 C38.8988136,11.1774461 39.1193196,11.1571363 39.4094635,11.1571363 C39.9201167,11.1571363 40.3901427,11.2325726 40.8195556,11.3834474 L44.6146183,22.9427211 L42.1077879,22.9427211 Z M40.8543727,18.7298532 C40.6918921,18.1379598 40.5613293,17.6679338 40.4626804,17.3197611 C40.3640315,16.9715885 40.2856939,16.6988573 40.2276651,16.5015595 C40.1696363,16.2810502 40.123214,16.1301776 40.0883967,16.0489374 C40.0303679,15.874851 39.97234,15.6659506 39.9143113,15.4222297 C39.8562825,15.2133262 39.7895504,14.9580034 39.714113,14.6562538 C39.6386756,14.3545042 39.5545351,14.0121395 39.4616891,13.6291496 L39.3920549,13.6291496 C39.2876031,14.0005338 39.1918571,14.3341942 39.1048139,14.630141 C39.0177708,14.9260877 38.9452359,15.1785091 38.8872071,15.3874127 C38.8175726,15.6311335 38.7537419,15.8516395 38.6957131,16.0489374 C38.6608959,16.1417834 38.6144736,16.2984587 38.5564448,16.5189681 C38.498416,16.7162659 38.417177,16.988997 38.3127252,17.3371697 L37.8949201,18.7298532 L40.8543727,18.7298532 Z M45.8854421,22.9427211 L45.8854421,11.1919534 L48.0615102,11.1919534 L48.0615102,22.9427211 L45.8854421,22.9427211 Z M55.1467879,12.776131 C55.0539418,12.7645252 54.9669,12.7587224 54.8856597,12.7587224 L54.6419401,12.7587224 C54.2821617,12.7587224 53.9949236,12.7761308 53.7802171,12.810948 C53.5655107,12.8457653 53.4030325,12.909596 53.2927779,13.002442 C53.1825232,13.0952881 53.1099883,13.2258508 53.0751711,13.3941343 C53.0403538,13.5624177 53.0229454,13.7800224 53.0229454,14.0469547 L53.0229454,14.9870161 L55.181605,14.9870161 L55.181605,16.7452791 L53.0229454,16.7452791 L53.0229454,22.9427211 L50.8816944,22.9427211 L50.8816944,16.7452791 L49.8023647,16.7452791 L49.8023647,14.9870161 L50.8816944,14.9870161 L50.8816944,13.959912 C50.8816944,13.6581624 50.8903986,13.3999382 50.9078072,13.1852318 C50.9252159,12.9705253 50.9513284,12.784836 50.9861457,12.6281583 C51.020963,12.4714806 51.0673853,12.3322137 51.1254141,12.2103532 C51.1834428,12.0884928 51.2530763,11.9753384 51.3343166,11.8708866 C51.5548259,11.5575313 51.8623738,11.3312224 52.2569695,11.1919534 C52.6515651,11.0526843 53.1912246,10.9830508 53.8759641,10.9830508 C54.4098288,10.9830508 54.9494883,11.0178676 55.4949588,11.0875021 L55.1467879,12.776131 Z M62.5280108,23.1168065 C62.4351648,23.093595 62.3017006,23.0123559 62.1276143,22.8730869 C61.953528,22.7338178 61.814261,22.5829453 61.7098092,22.4204647 C61.5241172,22.548128 61.3848502,22.6351699 61.2920042,22.6815929 C61.1991581,22.7280159 61.0831023,22.780241 60.9438333,22.8382698 C60.7117182,22.9311158 60.4563954,23.0036507 60.1778573,23.0558766 C59.8993192,23.1081025 59.6207853,23.134215 59.3422472,23.134215 C58.970863,23.134215 58.6197942,23.0790885 58.2890302,22.9688339 C57.9582662,22.8585792 57.6710281,22.6961011 57.4273072,22.4813946 C57.1835864,22.2666882 56.9891929,21.9997598 56.844121,21.6806016 C56.6990491,21.3614433 56.6265142,20.9987689 56.6265142,20.5925675 C56.6265142,19.7221359 56.9079495,19.0345053 57.4708286,18.529655 C58.0337077,18.0248047 58.8606053,17.7723833 59.9515462,17.7723833 C60.1604498,17.7723833 60.3548433,17.7868903 60.5347325,17.8159046 C60.7146217,17.844919 60.885804,17.8826372 61.0482845,17.9290602 L61.0482845,17.5286637 C61.0482845,17.2617313 61.0337776,17.0441267 61.0047632,16.8758432 C60.9757488,16.7075598 60.9061153,16.576997 60.7958606,16.484151 C60.685606,16.3913049 60.5231278,16.3274742 60.3084214,16.292657 C60.0937149,16.2578397 59.8064768,16.2404313 59.4466984,16.2404313 C59.2145833,16.2404313 58.947655,16.2549383 58.6459054,16.2839527 C58.3441557,16.3129671 58.0424107,16.3506852 57.740661,16.3971082 L57.4098987,14.7955221 C58.291936,14.5750128 59.2261853,14.4647598 60.2126744,14.4647598 C60.8974139,14.4647598 61.434172,14.5372947 61.8229648,14.6823666 C62.2117575,14.8274385 62.516404,15.0508459 62.7369134,15.3525956 C62.8181536,15.4570474 62.8877871,15.5702018 62.9458159,15.6920622 C63.0038447,15.8139226 63.050267,15.9531896 63.0850843,16.1098673 C63.1199015,16.2665449 63.1460141,16.4522342 63.1634227,16.6669407 C63.1808313,16.8816471 63.1895355,17.1398713 63.1895355,17.4416209 L63.1895355,19.6699146 C63.1895355,19.9484528 63.2011411,20.1921699 63.2243526,20.4010735 C63.2475641,20.6099771 63.2852823,20.807272 63.3375082,20.992964 C63.3897341,21.1786561 63.4651703,21.361444 63.5638192,21.5413332 C63.6624682,21.7212224 63.7814254,21.9214187 63.9206944,22.141928 L62.5280108,23.1168065 Z M61.1527358,21.2018666 C61.1063128,21.0625975 61.0772988,20.8856124 61.0656931,20.670906 C61.0540873,20.4561995 61.0482845,20.1863698 61.0482845,19.8614086 L61.0482845,19.2695181 C60.9902558,19.2463066 60.9003125,19.2259968 60.7784521,19.2085882 C60.6565917,19.1911796 60.5318317,19.1824754 60.4041684,19.1824754 C59.8586979,19.1824754 59.4496012,19.2637145 59.176866,19.426195 C58.9041307,19.5886756 58.7677652,19.8788151 58.7677652,20.2966223 C58.7677652,20.7028237 58.8722154,20.9871604 59.081119,21.1496409 C59.2900226,21.3121215 59.5917677,21.3933606 59.9863633,21.3933606 C60.1836611,21.3933606 60.3693504,21.3846564 60.5434367,21.3672478 C60.7175231,21.3498391 60.9206207,21.2947126 61.1527358,21.2018666 Z M76.4400493,10.9830508 C77.0667601,10.9830508 77.6383349,11.0875011 78.154791,11.2964047 C78.6712471,11.5053082 79.1209633,11.8186589 79.5039532,12.2364661 L78.5464832,13.6117411 C78.2795509,13.426049 77.9807072,13.2432611 77.6499432,13.0633719 C77.3191792,12.8834827 76.9681104,12.7935395 76.5967262,12.7935395 C76.0976788,12.7935395 75.6885821,12.9095953 75.3694238,13.1417104 C75.0502656,13.3738255 74.8007456,13.6871762 74.6208564,14.0817718 C74.4409672,14.4763675 74.3162072,14.9376893 74.2465727,15.4657511 C74.1769382,15.9938129 74.1421214,16.5537822 74.1421214,17.1456757 C74.1421214,17.7607807 74.1885437,18.3236513 74.2813898,18.8343045 C74.3742358,19.3449577 74.522207,19.7859698 74.7253077,20.1573539 C74.9284084,20.528738 75.1924353,20.8188776 75.5173965,21.0277811 C75.8423576,21.2366847 76.2369473,21.3411349 76.7011775,21.3411349 C77.0957731,21.3411349 77.4642503,21.2627973 77.8066201,21.1061196 C78.1489898,20.9494419 78.436228,20.8072735 78.668343,20.6796102 L79.4691361,22.2115622 C79.097752,22.5365233 78.6567399,22.7744377 78.1460867,22.9253125 C77.6354335,23.0761873 77.0841684,23.1516236 76.492275,23.1516236 C75.5754204,23.1516236 74.809452,22.9775399 74.1943471,22.6293672 C73.5792421,22.2811946 73.0831035,21.8256756 72.7059165,21.2627965 C72.3287295,20.6999174 72.0618011,20.0529063 71.9051234,19.3217438 C71.7484457,18.5905812 71.6701081,17.8420213 71.6701081,17.0760415 C71.6701081,15.82262 71.8325862,14.7984275 72.1575473,14.0034334 C72.4825085,13.2084392 72.8858024,12.5875406 73.3674412,12.1407191 C73.84908,11.6938975 74.3655283,11.389251 74.9168017,11.2267705 C75.468075,11.0642899 75.9758191,10.9830508 76.4400493,10.9830508 Z M81.0707222,22.9427211 L81.0707222,11.1919534 L83.2467903,11.1919534 L83.2467903,22.9427211 L81.0707222,22.9427211 Z M87.8600546,22.9427211 L85.6839866,22.9427211 L85.6839866,14.6562538 L87.8600546,14.6562538 L87.8600546,22.9427211 Z M88.0341401,13.4202471 L85.5099011,13.4202471 L85.5099011,11.1919534 L88.0341401,11.1919534 L88.0341401,13.4202471 Z M93.5700573,14.4821683 C94.0923163,14.4821683 94.5536381,14.5663088 94.9540366,14.7345922 C95.3544351,14.9028757 95.6938984,15.1262831 95.9724365,15.4048212 L95.1716434,16.7975048 C94.9395283,16.6350242 94.6987125,16.4870531 94.4491888,16.3535869 C94.1996651,16.2201207 93.9066242,16.1533886 93.5700573,16.1533886 C93.0245868,16.1533886 92.6241943,16.3971058 92.3688677,16.8845475 C92.1135411,17.3719892 91.9858797,18.068324 91.9858797,18.9735729 C91.9858797,19.8091872 92.1048369,20.4416913 92.3427549,20.8711042 C92.5806729,21.3005171 93.0013752,21.5152204 93.6048744,21.5152204 C93.8834125,21.5152204 94.1619464,21.4571925 94.4404845,21.3411349 C94.7190226,21.2250774 94.9627398,21.1032188 95.1716434,20.9755555 L95.7809425,22.4204647 C95.4443756,22.6873971 95.0817012,22.8817905 94.6929084,23.003651 C94.3041157,23.1255114 93.8892162,23.1864407 93.4481975,23.1864407 C92.9723616,23.1864407 92.5139411,23.1139058 92.0729225,22.9688339 C91.6319038,22.8237619 91.2431168,22.5887489 90.90655,22.2637878 C90.5699831,21.9388267 90.2972519,21.5123216 90.0883484,20.9842598 C89.8794448,20.4561979 89.7749946,19.803384 89.7749946,19.0257985 C89.7749946,18.2133957 89.8794448,17.5199623 90.0883484,16.9454774 C90.2972519,16.3709926 90.5786873,15.9009666 90.9326628,15.5353853 C91.2866383,15.169804 91.6928336,14.9028757 92.1512609,14.7345922 C92.6096882,14.5663088 93.0826156,14.4821683 93.5700573,14.4821683 Z M102.204695,22.9427211 L101.717256,21.7850528 C101.577987,21.4542888 101.461931,21.1844591 101.369085,20.9755555 C101.253028,20.7318347 101.160183,20.528737 101.090549,20.3662564 C101.020914,20.1921701 100.954182,20.0529032 100.89035,19.9484514 C100.826519,19.8439996 100.756885,19.7627605 100.681448,19.7047317 C100.60601,19.646703 100.516067,19.6089848 100.411615,19.5915762 C100.307164,19.5741676 100.179502,19.5654634 100.028627,19.5654634 L99.7326821,19.5654634 L99.7326821,22.9427211 L97.556614,22.9427211 L97.556614,11.1919534 L99.7326821,11.1919534 L99.7326821,17.8072004 L100.098262,17.8072004 C100.3768,17.8072004 100.56539,17.7549753 100.664039,17.6505235 C100.762688,17.5460717 100.864237,17.3835935 100.968689,17.1630842 C101.073141,16.9425749 101.168887,16.7423786 101.25593,16.5624894 C101.342973,16.3826002 101.438719,16.1882068 101.543171,15.9793032 C101.636017,15.7820053 101.72596,15.6050202 101.813003,15.4483426 C101.900046,15.2916649 102.001595,15.1552993 102.117653,15.0392418 C102.268528,14.888367 102.425203,14.7752125 102.587683,14.6997751 C102.750164,14.6243377 102.982276,14.575014 103.284025,14.5518025 C103.458112,14.5401968 103.632195,14.534394 103.806282,14.534394 C103.980368,14.534394 104.148649,14.5459995 104.311129,14.5692111 L104.18927,16.0663459 C104.108029,16.0431344 104.038396,16.0373316 103.980367,16.0489374 C103.922338,16.0605431 103.870113,16.0779515 103.82369,16.101163 C103.777267,16.1243745 103.730845,16.1533884 103.684422,16.1882057 C103.57997,16.2810517 103.484224,16.4000089 103.397181,16.5450809 C103.310138,16.6901528 103.173772,16.9599826 102.98808,17.3545782 C102.790782,17.7607796 102.602191,18.0480177 102.422302,18.2163012 C102.242413,18.3845846 102.036414,18.4919362 101.804299,18.5383592 L101.804299,18.5905849 C102.140866,18.6718252 102.39909,18.8168949 102.578979,19.0257985 C102.758868,19.2347021 102.930051,19.5074332 103.092531,19.8440001 C103.162166,19.9832692 103.260813,20.1863668 103.388477,20.4532992 C103.504534,20.6854143 103.655407,21.0016663 103.841099,21.4020648 C104.026791,21.8024634 104.270508,22.3160103 104.572258,22.9427211 L102.204695,22.9427211 Z"/>
    </g>
</svg>
