<svg xmlns="http://www.w3.org/2000/svg" xmlns:xlink="http://www.w3.org/1999/xlink" width="123px" height="37px" viewBox="0 0 123 37">
    <g fill="#E30000">
        <path id="Fill-1" d="M11.4425085,5.64589831 L8.27877966,15.1444068 L14.6562712,15.1444068 L11.4815593,5.64589831 L11.4425085,5.64589831 Z M0.354508475,30.9374237 C0.158644068,30.9374237 0,31.1083365 0,31.3182969 L0,35.5571907 C0,35.7684313 0.158644068,35.9374237 0.354508475,35.9374237 L22.5677288,35.9374237 C22.7623729,35.9374237 22.9191864,35.7684313 22.9191864,35.5571907 L22.9191864,31.3182969 C22.9191864,31.1083365 22.7623729,30.9374237 22.5677288,30.9374237 L0.354508475,30.9374237 Z M11.4614237,0 C13.892339,0 14.6562712,1.74142373 15.2951186,3.48284746 C15.5660339,4.22054237 21.8800678,21.5121356 22.0686102,22.0307797 C22.1216949,22.1741695 22.0869153,22.4133559 21.8635932,22.4981695 C21.639661,22.5829831 18.3587797,23.8588475 18.1775593,23.9277966 C17.996339,23.9955254 17.7919322,23.8942373 17.7248136,23.7142373 C17.6583051,23.5348475 16.2982373,19.7652203 16.1444746,19.3435932 C15.692339,19.3435932 7.24088136,19.3435932 6.7899661,19.3435932 C6.63498305,19.7652203 5.26149153,23.5421695 5.1980339,23.7142373 C5.13518644,23.8875254 4.93810169,24.0034576 4.74650847,23.9277966 C4.55430508,23.8509153 1.25816949,22.5738305 1.06352542,22.4981695 C0.874983051,22.4267797 0.787728814,22.2113898 0.855457627,22.0307797 C1.08732203,21.3821695 7.30494915,4.36942373 7.62345763,3.48284746 C8.23850847,1.76888136 9.03111864,0 11.4614237,0 Z"/>
        <circle id="Oval" cx="67.7288136" cy="18.9152542" r="1.22033898"/>
        <path id="Alfa-Click" d="M42.1077879,22.9427211 C42.0265476,22.6873945 41.94821,22.4262689 41.8727726,22.1593365 C41.7973351,21.8924042 41.7248003,21.648687 41.6551657,21.4281777 C41.5739255,21.1728511 41.4984892,20.9233311 41.4288547,20.6796102 L37.285621,20.6796102 C37.2159865,20.9233311 37.1405502,21.1728511 37.0593099,21.4281777 C36.9896754,21.648687 36.9113377,21.8924042 36.8242946,22.1593365 C36.7372514,22.4262689 36.653111,22.6873945 36.5718707,22.9427211 L34.1694915,22.9427211 L38.1734568,11.3834474 C38.4055719,11.3138128 38.597064,11.2586863 38.7479388,11.2180662 C38.8988136,11.1774461 39.1193196,11.1571363 39.4094635,11.1571363 C39.9201167,11.1571363 40.3901427,11.2325726 40.8195556,11.3834474 L44.6146183,22.9427211 L42.1077879,22.9427211 Z M40.8543727,18.7298532 C40.6918921,18.1379598 40.5613293,17.6679338 40.4626804,17.3197611 C40.3640315,16.9715885 40.2856939,16.6988573 40.2276651,16.5015595 C40.1696363,16.2810502 40.123214,16.1301776 40.0883967,16.0489374 C40.0303679,15.874851 39.97234,15.6659506 39.9143113,15.4222297 C39.8562825,15.2133262 39.7895504,14.9580034 39.714113,14.6562538 C39.6386756,14.3545042 39.5545351,14.0121395 39.4616891,13.6291496 L39.3920549,13.6291496 C39.2876031,14.0005338 39.1918571,14.3341942 39.1048139,14.630141 C39.0177708,14.9260877 38.9452359,15.1785091 38.8872071,15.3874127 C38.8175726,15.6311335 38.7537419,15.8516395 38.6957131,16.0489374 C38.6608959,16.1417834 38.6144736,16.2984587 38.5564448,16.5189681 C38.498416,16.7162659 38.417177,16.988997 38.3127252,17.3371697 L37.8949201,18.7298532 L40.8543727,18.7298532 Z M45.8854421,22.9427211 L45.8854421,11.1919534 L48.0615102,11.1919534 L48.0615102,22.9427211 L45.8854421,22.9427211 Z M55.1467879,12.776131 C55.0539418,12.7645252 54.9669,12.7587224 54.8856597,12.7587224 L54.6419401,12.7587224 C54.2821617,12.7587224 53.9949236,12.7761308 53.7802171,12.810948 C53.5655107,12.8457653 53.4030325,12.909596 53.2927779,13.002442 C53.1825232,13.0952881 53.1099883,13.2258508 53.0751711,13.3941343 C53.0403538,13.5624177 53.0229454,13.7800224 53.0229454,14.0469547 L53.0229454,14.9870161 L55.181605,14.9870161 L55.181605,16.7452791 L53.0229454,16.7452791 L53.0229454,22.9427211 L50.8816944,22.9427211 L50.8816944,16.7452791 L49.8023647,16.7452791 L49.8023647,14.9870161 L50.8816944,14.9870161 L50.8816944,13.959912 C50.8816944,13.6581624 50.8903986,13.3999382 50.9078072,13.1852318 C50.9252159,12.9705253 50.9513284,12.784836 50.9861457,12.6281583 C51.020963,12.4714806 51.0673853,12.3322137 51.1254141,12.2103532 C51.1834428,12.0884928 51.2530763,11.9753384 51.3343166,11.8708866 C51.5548259,11.5575313 51.8623738,11.3312224 52.2569695,11.1919534 C52.6515651,11.0526843 53.1912246,10.9830508 53.8759641,10.9830508 C54.4098288,10.9830508 54.9494883,11.0178676 55.4949588,11.0875021 L55.1467879,12.776131 Z M62.5280108,23.1168065 C62.4351648,23.093595 62.3017006,23.0123559 62.1276143,22.8730869 C61.953528,22.7338178 61.814261,22.5829453 61.7098092,22.4204647 C61.5241172,22.548128 61.3848502,22.6351699 61.2920042,22.6815929 C61.1991581,22.7280159 61.0831023,22.780241 60.9438333,22.8382698 C60.7117182,22.9311158 60.4563954,23.0036507 60.1778573,23.0558766 C59.8993192,23.1081025 59.6207853,23.134215 59.3422472,23.134215 C58.970863,23.134215 58.6197942,23.0790885 58.2890302,22.9688339 C57.9582662,22.8585792 57.6710281,22.6961011 57.4273072,22.4813946 C57.1835864,22.2666882 56.9891929,21.9997598 56.844121,21.6806016 C56.6990491,21.3614433 56.6265142,20.9987689 56.6265142,20.5925675 C56.6265142,19.7221359 56.9079495,19.0345053 57.4708286,18.529655 C58.0337077,18.0248047 58.8606053,17.7723833 59.9515462,17.7723833 C60.1604498,17.7723833 60.3548433,17.7868903 60.5347325,17.8159046 C60.7146217,17.844919 60.885804,17.8826372 61.0482845,17.9290602 L61.0482845,17.5286637 C61.0482845,17.2617313 61.0337776,17.0441267 61.0047632,16.8758432 C60.9757488,16.7075598 60.9061153,16.576997 60.7958606,16.484151 C60.685606,16.3913049 60.5231278,16.3274742 60.3084214,16.292657 C60.0937149,16.2578397 59.8064768,16.2404313 59.4466984,16.2404313 C59.2145833,16.2404313 58.947655,16.2549383 58.6459054,16.2839527 C58.3441557,16.3129671 58.0424107,16.3506852 57.740661,16.3971082 L57.4098987,14.7955221 C58.291936,14.5750128 59.2261853,14.4647598 60.2126744,14.4647598 C60.8974139,14.4647598 61.434172,14.5372947 61.8229648,14.6823666 C62.2117575,14.8274385 62.516404,15.0508459 62.7369134,15.3525956 C62.8181536,15.4570474 62.8877871,15.5702018 62.9458159,15.6920622 C63.0038447,15.8139226 63.050267,15.9531896 63.0850843,16.1098673 C63.1199015,16.2665449 63.1460141,16.4522342 63.1634227,16.6669407 C63.1808313,16.8816471 63.1895355,17.1398713 63.1895355,17.4416209 L63.1895355,19.6699146 C63.1895355,19.9484528 63.2011411,20.1921699 63.2243526,20.4010735 C63.2475641,20.6099771 63.2852823,20.807272 63.3375082,20.992964 C63.3897341,21.1786561 63.4651703,21.361444 63.5638192,21.5413332 C63.6624682,21.7212224 63.7814254,21.9214187 63.9206944,22.141928 L62.5280108,23.1168065 Z M61.1527358,21.2018666 C61.1063128,21.0625975 61.0772988,20.8856124 61.0656931,20.670906 C61.0540873,20.4561995 61.0482845,20.1863698 61.0482845,19.8614086 L61.0482845,19.2695181 C60.9902558,19.2463066 60.9003125,19.2259968 60.7784521,19.2085882 C60.6565917,19.1911796 60.5318317,19.1824754 60.4041684,19.1824754 C59.8586979,19.1824754 59.4496012,19.2637145 59.176866,19.426195 C58.9041307,19.5886756 58.7677652,19.8788151 58.7677652,20.2966223 C58.7677652,20.7028237 58.8722154,20.9871604 59.081119,21.1496409 C59.2900226,21.3121215 59.5917677,21.3933606 59.9863633,21.3933606 C60.1836611,21.3933606 60.3693504,21.3846564 60.5434367,21.3672478 C60.7175231,21.3498391 60.9206207,21.2947126 61.1527358,21.2018666 Z M76.4400493,10.9830508 C77.0667601,10.9830508 77.6383349,11.0875011 78.154791,11.2964047 C78.6712471,11.5053082 79.1209633,11.8186589 79.5039532,12.2364661 L78.5464832,13.6117411 C78.2795509,13.426049 77.9807072,13.2432611 77.6499432,13.0633719 C77.3191792,12.8834827 76.9681104,12.7935395 76.5967262,12.7935395 C76.0976788,12.7935395 75.6885821,12.9095953 75.3694238,13.1417104 C75.0502656,13.3738255 74.8007456,13.6871762 74.6208564,14.0817718 C74.4409672,14.4763675 74.3162072,14.9376893 74.2465727,15.4657511 C74.1769382,15.9938129 74.1421214,16.5537822 74.1421214,17.1456757 C74.1421214,17.7607807 74.1885437,18.3236513 74.2813898,18.8343045 C74.3742358,19.3449577 74.522207,19.7859698 74.7253077,20.1573539 C74.9284084,20.528738 75.1924353,20.8188776 75.5173965,21.0277811 C75.8423576,21.2366847 76.2369473,21.3411349 76.7011775,21.3411349 C77.0957731,21.3411349 77.4642503,21.2627973 77.8066201,21.1061196 C78.1489898,20.9494419 78.436228,20.8072735 78.668343,20.6796102 L79.4691361,22.2115622 C79.097752,22.5365233 78.6567399,22.7744377 78.1460867,22.9253125 C77.6354335,23.0761873 77.0841684,23.1516236 76.492275,23.1516236 C75.5754204,23.1516236 74.809452,22.9775399 74.1943471,22.6293672 C73.5792421,22.2811946 73.0831035,21.8256756 72.7059165,21.2627965 C72.3287295,20.6999174 72.0618011,20.0529063 71.9051234,19.3217438 C71.7484457,18.5905812 71.6701081,17.8420213 71.6701081,17.0760415 C71.6701081,15.82262 71.8325862,14.7984275 72.1575473,14.0034334 C72.4825085,13.2084392 72.8858024,12.5875406 73.3674412,12.1407191 C73.84908,11.6938975 74.3655283,11.389251 74.9168017,11.2267705 C75.468075,11.0642899 75.9758191,10.9830508 76.4400493,10.9830508 Z M81.0707222,22.9427211 L81.0707222,11.1919534 L83.2467903,11.1919534 L83.2467903,22.9427211 L81.0707222,22.9427211 Z M87.8600546,22.9427211 L85.6839866,22.9427211 L85.6839866,14.6562538 L87.8600546,14.6562538 L87.8600546,22.9427211 Z M88.0341401,13.4202471 L85.5099011,13.4202471 L85.5099011,11.1919534 L88.0341401,11.1919534 L88.0341401,13.4202471 Z M93.5700573,14.4821683 C94.0923163,14.4821683 94.5536381,14.5663088 94.9540366,14.7345922 C95.3544351,14.9028757 95.6938984,15.1262831 95.9724365,15.4048212 L95.1716434,16.7975048 C94.9395283,16.6350242 94.6987125,16.4870531 94.4491888,16.3535869 C94.1996651,16.2201207 93.9066242,16.1533886 93.5700573,16.1533886 C93.0245868,16.1533886 92.6241943,16.3971058 92.3688677,16.8845475 C92.1135411,17.3719892 91.9858797,18.068324 91.9858797,18.9735729 C91.9858797,19.8091872 92.1048369,20.4416913 92.3427549,20.8711042 C92.5806729,21.3005171 93.0013752,21.5152204 93.6048744,21.5152204 C93.8834125,21.5152204 94.1619464,21.4571925 94.4404845,21.3411349 C94.7190226,21.2250774 94.9627398,21.1032188 95.1716434,20.9755555 L95.7809425,22.4204647 C95.4443756,22.6873971 95.0817012,22.8817905 94.6929084,23.003651 C94.3041157,23.1255114 93.8892162,23.1864407 93.4481975,23.1864407 C92.9723616,23.1864407 92.5139411,23.1139058 92.0729225,22.9688339 C91.6319038,22.8237619 91.2431168,22.5887489 90.90655,22.2637878 C90.5699831,21.9388267 90.2972519,21.5123216 90.0883484,20.9842598 C89.8794448,20.4561979 89.7749946,19.803384 89.7749946,19.0257985 C89.7749946,18.2133957 89.8794448,17.5199623 90.0883484,16.9454774 C90.2972519,16.3709926 90.5786873,15.9009666 90.9326628,15.5353853 C91.2866383,15.169804 91.6928336,14.9028757 92.1512609,14.7345922 C92.6096882,14.5663088 93.0826156,14.4821683 93.5700573,14.4821683 Z M102.204695,22.9427211 L101.717256,21.7850528 C101.577987,21.4542888 101.461931,21.1844591 101.369085,20.9755555 C101.253028,20.7318347 101.160183,20.528737 101.090549,20.3662564 C101.020914,20.1921701 100.954182,20.0529032 100.89035,19.9484514 C100.826519,19.8439996 100.756885,19.7627605 100.681448,19.7047317 C100.60601,19.646703 100.516067,19.6089848 100.411615,19.5915762 C100.307164,19.5741676 100.179502,19.5654634 100.028627,19.5654634 L99.7326821,19.5654634 L99.7326821,22.9427211 L97.556614,22.9427211 L97.556614,11.1919534 L99.7326821,11.1919534 L99.7326821,17.8072004 L100.098262,17.8072004 C100.3768,17.8072004 100.56539,17.7549753 100.664039,17.6505235 C100.762688,17.5460717 100.864237,17.3835935 100.968689,17.1630842 C101.073141,16.9425749 101.168887,16.7423786 101.25593,16.5624894 C101.342973,16.3826002 101.438719,16.1882068 101.543171,15.9793032 C101.636017,15.7820053 101.72596,15.6050202 101.813003,15.4483426 C101.900046,15.2916649 102.001595,15.1552993 102.117653,15.0392418 C102.268528,14.888367 102.425203,14.7752125 102.587683,14.6997751 C102.750164,14.6243377 102.982276,14.575014 103.284025,14.5518025 C103.458112,14.5401968 103.632195,14.534394 103.806282,14.534394 C103.980368,14.534394 104.148649,14.5459995 104.311129,14.5692111 L104.18927,16.0663459 C104.108029,16.0431344 104.038396,16.0373316 103.980367,16.0489374 C103.922338,16.0605431 103.870113,16.0779515 103.82369,16.101163 C103.777267,16.1243745 103.730845,16.1533884 103.684422,16.1882057 C103.57997,16.2810517 103.484224,16.4000089 103.397181,16.5450809 C103.310138,16.6901528 103.173772,16.9599826 102.98808,17.3545782 C102.790782,17.7607796 102.602191,18.0480177 102.422302,18.2163012 C102.242413,18.3845846 102.036414,18.4919362 101.804299,18.5383592 L101.804299,18.5905849 C102.140866,18.6718252 102.39909,18.8168949 102.578979,19.0257985 C102.758868,19.2347021 102.930051,19.5074332 103.092531,19.8440001 C103.162166,19.9832692 103.260813,20.1863668 103.388477,20.4532992 C103.504534,20.6854143 103.655407,21.0016663 103.841099,21.4020648 C104.026791,21.8024634 104.270508,22.3160103 104.572258,22.9427211 L102.204695,22.9427211 Z"/>
        <path id="Выставить-счет-в-Аль" d="M34,35.7213115 L34,31.2459016 L35.4631148,31.2459016 C35.9487729,31.2459016 36.3140357,31.3463105 36.5589139,31.5471311 C36.8037922,31.7479518 36.9262295,32.04508 36.9262295,32.4385246 C36.9262295,32.647542 36.8668039,32.8324787 36.7479508,32.9933402 C36.6290978,33.1542016 36.4672141,33.2786881 36.2622951,33.3668033 C36.5040996,33.4344266 36.6951837,33.5630113 36.8355533,33.7525615 C36.9759228,33.9421116 37.0461066,34.1680315 37.0461066,34.4303279 C37.0461066,34.8319692 36.9159849,35.1475398 36.6557377,35.3770492 C36.3954905,35.6065585 36.0276663,35.7213115 35.5522541,35.7213115 L34,35.7213115 Z M34.5901639,33.6280738 L34.5901639,35.2387295 L35.5645492,35.2387295 C35.8391407,35.2387295 36.0558394,35.1675212 36.2146516,35.0251025 C36.3734639,34.8826837 36.4528689,34.6864767 36.4528689,34.4364754 C36.4528689,33.8975383 36.159839,33.6280738 35.5737705,33.6280738 L34.5901639,33.6280738 Z M34.5901639,33.1547131 L35.4815574,33.1547131 C35.7397554,33.1547131 35.9462082,33.0901646 36.1009221,32.9610656 C36.255636,32.8319666 36.3329918,32.6567634 36.3329918,32.4354508 C36.3329918,32.189548 36.2612712,32.0107588 36.1178279,31.8990779 C35.9743845,31.787397 35.756149,31.7315574 35.4631148,31.7315574 L34.5901639,31.7315574 L34.5901639,33.1547131 Z M38.4508197,33.5420082 L39.3145492,33.5420082 C39.6916002,33.5461066 39.989753,33.6444663 40.2090164,33.8370902 C40.4282798,34.0297141 40.5379098,34.290982 40.5379098,34.6209016 C40.5379098,34.9528705 40.425206,35.2192613 40.1997951,35.420082 C39.9743841,35.6209026 39.6711085,35.7213115 39.289959,35.7213115 L37.8821721,35.7213115 L37.8821721,32.3954918 L38.4508197,32.3954918 L38.4508197,33.5420082 Z M41.7243852,35.7213115 L41.1526639,35.7213115 L41.1526639,32.3954918 L41.7243852,32.3954918 L41.7243852,35.7213115 Z M38.4508197,34.0061475 L38.4508197,35.2571721 L39.2961066,35.2571721 C39.5092224,35.2571721 39.6741797,35.2023571 39.7909836,35.0927254 C39.9077875,34.9830937 39.9661885,34.8329928 39.9661885,34.642418 C39.9661885,34.4579909 39.9093243,34.3068653 39.7955943,34.1890369 C39.6818642,34.0712084 39.522542,34.0102459 39.317623,34.0061475 L38.4508197,34.0061475 Z M44.0512295,35.3186475 C44.2540994,35.3186475 44.4313517,35.2571727 44.5829918,35.1342213 C44.7346319,35.0112699 44.8186475,34.8575829 44.835041,34.6731557 L45.3729508,34.6731557 C45.3627049,34.8637305 45.2971318,35.0450811 45.1762295,35.2172131 C45.0553273,35.3893451 44.8939559,35.5266388 44.6921107,35.6290984 C44.4902654,35.7315579 44.2766405,35.7827869 44.0512295,35.7827869 C43.5983584,35.7827869 43.2382186,35.6316613 42.9707992,35.3294057 C42.7033798,35.0271501 42.5696721,34.6137321 42.5696721,34.0891393 L42.5696721,33.9938525 C42.5696721,33.6700803 42.6290978,33.3821734 42.7479508,33.130123 C42.8668039,32.8780725 43.0373964,32.6823777 43.2597336,32.5430328 C43.4820708,32.4036878 43.7448755,32.3340164 44.0481557,32.3340164 C44.4211084,32.3340164 44.7310438,32.4456956 44.9779713,32.6690574 C45.2248988,32.8924191 45.3565573,33.1823753 45.3729508,33.5389344 L44.835041,33.5389344 C44.8186475,33.3237694 44.7371934,33.1470294 44.5906762,33.008709 C44.4441591,32.8703887 44.2633207,32.8012295 44.0481557,32.8012295 C43.7592199,32.8012295 43.5353492,32.9052244 43.3765369,33.1132172 C43.2177246,33.3212101 43.1383197,33.6219243 43.1383197,34.0153689 L43.1383197,34.1229508 C43.1383197,34.5061495 43.2172123,34.8012285 43.375,35.0081967 C43.5327877,35.215165 43.7581953,35.3186475 44.0512295,35.3186475 Z M48.4836066,32.8565574 L47.3678279,32.8565574 L47.3678279,35.7213115 L46.7991803,35.7213115 L46.7991803,32.8565574 L45.704918,32.8565574 L45.704918,32.3954918 L48.4836066,32.3954918 L48.4836066,32.8565574 Z M51.0901639,35.7213115 C51.0573769,35.6557374 51.0307378,35.5389353 51.0102459,35.3709016 C50.7459003,35.6454932 50.4303297,35.7827869 50.0635246,35.7827869 C49.7356541,35.7827869 49.4667019,35.6900624 49.2566598,35.5046107 C49.0466178,35.3191589 48.9415984,35.0840178 48.9415984,34.7991803 C48.9415984,34.4528671 49.0732569,34.1839149 49.3365779,33.9923156 C49.5998989,33.8007163 49.9702845,33.704918 50.4477459,33.704918 L51.0010246,33.704918 L51.0010246,33.4436475 C51.0010246,33.2448761 50.941599,33.0865785 50.8227459,32.96875 C50.7038928,32.8509215 50.5286897,32.7920082 50.2971311,32.7920082 C50.0942613,32.7920082 49.924181,32.8432372 49.7868852,32.9456967 C49.6495895,33.0481563 49.5809426,33.1721304 49.5809426,33.317623 L49.0092213,33.317623 C49.0092213,33.1516385 49.0681347,32.9912918 49.1859631,32.8365779 C49.3037916,32.681864 49.463626,32.5594267 49.6654713,32.4692623 C49.8673166,32.3790979 50.0891381,32.3340164 50.3309426,32.3340164 C50.7141413,32.3340164 51.0143432,32.4298146 51.2315574,32.6214139 C51.4487716,32.8130133 51.5614754,33.0768426 51.5696721,33.4129098 L51.5696721,34.9436475 C51.5696721,35.2489769 51.6086062,35.4918024 51.6864754,35.6721311 L51.6864754,35.7213115 L51.0901639,35.7213115 Z M50.1465164,35.2879098 C50.324796,35.2879098 50.4938517,35.2418037 50.6536885,35.1495902 C50.8135254,35.0573766 50.9293029,34.9375007 51.0010246,34.789959 L51.0010246,34.107582 L50.5553279,34.107582 C49.8586031,34.107582 49.5102459,34.3114734 49.5102459,34.7192623 C49.5102459,34.8975419 49.5696715,35.0368847 49.6885246,35.1372951 C49.8073776,35.2377054 49.9600401,35.2879098 50.1465164,35.2879098 Z M52.5133197,35.7213115 L52.5133197,32.3954918 L53.8104508,32.3954918 C54.253076,32.3954918 54.5927242,32.4728476 54.8294057,32.6275615 C55.0660872,32.7822754 55.1844262,33.0092198 55.1844262,33.3084016 C55.1844262,33.4620909 55.1383201,33.6009215 55.0461066,33.7248975 C54.953893,33.8488736 54.8176239,33.9436472 54.6372951,34.0092213 C54.8381158,34.0563527 54.9994871,34.1485649 55.1214139,34.2858607 C55.2433408,34.4231564 55.3043033,34.5870892 55.3043033,34.7776639 C55.3043033,35.0829933 55.1921118,35.3165976 54.9677254,35.4784836 C54.743339,35.6403697 54.4262316,35.7213115 54.0163934,35.7213115 L52.5133197,35.7213115 Z M53.0819672,34.2612705 L53.0819672,35.2633197 L54.022541,35.2633197 C54.2602471,35.2633197 54.4380117,35.2192627 54.5558402,35.1311475 C54.6736686,35.0430323 54.732582,34.9190582 54.732582,34.7592213 C54.732582,34.4272524 54.4887319,34.2612705 54.0010246,34.2612705 L53.0819672,34.2612705 Z M53.0819672,33.8063525 L53.8165984,33.8063525 C54.3493879,33.8063525 54.6157787,33.6506163 54.6157787,33.3391393 C54.6157787,33.0276624 54.363732,32.8668033 53.8596311,32.8565574 L53.0819672,32.8565574 L53.0819672,33.8063525 Z M58.2090164,32.3954918 L58.7776639,32.3954918 L58.7776639,35.7213115 L58.2090164,35.7213115 L58.2090164,33.2961066 L56.6752049,35.7213115 L56.1065574,35.7213115 L56.1065574,32.3954918 L56.6752049,32.3954918 L56.6752049,34.8237705 L58.2090164,32.3954918 Z M62.1618852,32.8565574 L61.0461066,32.8565574 L61.0461066,35.7213115 L60.477459,35.7213115 L60.477459,32.8565574 L59.3831967,32.8565574 L59.3831967,32.3954918 L62.1618852,32.3954918 L62.1618852,32.8565574 Z M63.3360656,33.5420082 L64.1997951,33.5420082 C64.5768461,33.5461066 64.8749989,33.6444663 65.0942623,33.8370902 C65.3135257,34.0297141 65.4231557,34.290982 65.4231557,34.6209016 C65.4231557,34.9528705 65.3104519,35.2192613 65.085041,35.420082 C64.85963,35.6209026 64.5563544,35.7213115 64.1752049,35.7213115 L62.767418,35.7213115 L62.767418,32.3954918 L63.3360656,32.3954918 L63.3360656,33.5420082 Z M63.3360656,34.0061475 L63.3360656,35.2571721 L64.1813525,35.2571721 C64.3944683,35.2571721 64.5594256,35.2023571 64.6762295,35.0927254 C64.7930334,34.9830937 64.8514344,34.8329928 64.8514344,34.642418 C64.8514344,34.4579909 64.7945702,34.3068653 64.6808402,34.1890369 C64.5671101,34.0712084 64.4077879,34.0102459 64.2028689,34.0061475 L63.3360656,34.0061475 Z M69.0256148,35.3186475 C69.2284846,35.3186475 69.4057369,35.2571727 69.557377,35.1342213 C69.7090172,35.0112699 69.7930327,34.8575829 69.8094262,34.6731557 L70.3473361,34.6731557 C70.3370901,34.8637305 70.271517,35.0450811 70.1506148,35.2172131 C70.0297125,35.3893451 69.8683412,35.5266388 69.6664959,35.6290984 C69.4646506,35.7315579 69.2510257,35.7827869 69.0256148,35.7827869 C68.5727436,35.7827869 68.2126038,35.6316613 67.9451844,35.3294057 C67.6777651,35.0271501 67.5440574,34.6137321 67.5440574,34.0891393 L67.5440574,33.9938525 C67.5440574,33.6700803 67.603483,33.3821734 67.7223361,33.130123 C67.8411891,32.8780725 68.0117817,32.6823777 68.2341189,32.5430328 C68.456456,32.4036878 68.7192608,32.3340164 69.022541,32.3340164 C69.3954937,32.3340164 69.7054291,32.4456956 69.9523566,32.6690574 C70.199284,32.8924191 70.3309425,33.1823753 70.3473361,33.5389344 L69.8094262,33.5389344 C69.7930327,33.3237694 69.7115786,33.1470294 69.5650615,33.008709 C69.4185443,32.8703887 69.237706,32.8012295 69.022541,32.8012295 C68.7336051,32.8012295 68.5097344,32.9052244 68.3509221,33.1132172 C68.1921099,33.3212101 68.1127049,33.6219243 68.1127049,34.0153689 L68.1127049,34.1229508 C68.1127049,34.5061495 68.1915976,34.8012285 68.3493852,35.0081967 C68.5071729,35.215165 68.7325805,35.3186475 69.0256148,35.3186475 Z M73.4979508,35.7213115 L72.9262295,35.7213115 L72.9262295,34.5163934 C72.6762283,34.5819675 72.4200833,34.6147541 72.1577869,34.6147541 C71.7418012,34.6147541 71.4246937,34.5081978 71.2064549,34.295082 C70.9882161,34.0819661 70.8770492,33.7786905 70.8729508,33.3852459 L70.8729508,32.392418 L71.4415984,32.392418 L71.4415984,33.4036885 C71.4518443,33.8995926 71.6905714,34.147541 72.1577869,34.147541 C72.4200833,34.147541 72.6762283,34.1147544 72.9262295,34.0491803 L72.9262295,32.3954918 L73.4979508,32.3954918 L73.4979508,35.7213115 Z M75.7879098,35.7827869 C75.3370879,35.7827869 74.9702883,35.6347351 74.6875,35.338627 C74.4047117,35.042519 74.2633197,34.6465189 74.2633197,34.1506148 L74.2633197,34.0461066 C74.2633197,33.7161869 74.3263313,33.4216201 74.4523566,33.1623975 C74.5783818,32.9031749 74.7546095,32.7003081 74.9810451,32.553791 C75.2074806,32.4072739 75.4528675,32.3340164 75.7172131,32.3340164 C76.1495923,32.3340164 76.4856545,32.476433 76.7254098,32.7612705 C76.9651651,33.046108 77.085041,33.4538908 77.085041,33.9846311 L77.085041,34.2213115 L74.8319672,34.2213115 C74.840164,34.549182 74.9359622,34.8140359 75.1193648,35.0158811 C75.3027673,35.2177264 75.5358592,35.3186475 75.8186475,35.3186475 C76.0194682,35.3186475 76.1895485,35.2776643 76.3288934,35.1956967 C76.4682384,35.1137291 76.5901634,35.0051236 76.6946721,34.869877 L77.0420082,35.1403689 C76.7633183,35.5686497 76.3452897,35.7827869 75.7879098,35.7827869 Z M75.7172131,32.8012295 C75.4877038,32.8012295 75.2950827,32.8847328 75.1393443,33.0517418 C74.9836058,33.2187508 74.8872953,33.4528673 74.8504098,33.7540984 L76.5163934,33.7540984 L76.5163934,33.7110656 C76.4999999,33.4221297 76.4221318,33.198259 76.2827869,33.0394467 C76.1434419,32.8806345 75.9549192,32.8012295 75.7172131,32.8012295 Z M80.2141393,32.8565574 L79.0983607,32.8565574 L79.0983607,35.7213115 L78.5297131,35.7213115 L78.5297131,32.8565574 L77.4354508,32.8565574 L77.4354508,32.3954918 L80.2141393,32.3954918 L80.2141393,32.8565574 Z M82.3780738,35.7213115 L82.3780738,32.3954918 L83.6752049,32.3954918 C84.1178301,32.3954918 84.4574783,32.4728476 84.6941598,32.6275615 C84.9308413,32.7822754 85.0491803,33.0092198 85.0491803,33.3084016 C85.0491803,33.4620909 85.0030742,33.6009215 84.9108607,33.7248975 C84.8186471,33.8488736 84.682378,33.9436472 84.5020492,34.0092213 C84.7028699,34.0563527 84.8642412,34.1485649 84.986168,34.2858607 C85.1080949,34.4231564 85.1690574,34.5870892 85.1690574,34.7776639 C85.1690574,35.0829933 85.0568659,35.3165976 84.8324795,35.4784836 C84.6080931,35.6403697 84.2909857,35.7213115 83.8811475,35.7213115 L82.3780738,35.7213115 Z M82.9467213,34.2612705 L82.9467213,35.2633197 L83.8872951,35.2633197 C84.1250012,35.2633197 84.3027658,35.2192627 84.4205943,35.1311475 C84.5384227,35.0430323 84.5973361,34.9190582 84.5973361,34.7592213 C84.5973361,34.4272524 84.353486,34.2612705 83.8657787,34.2612705 L82.9467213,34.2612705 Z M82.9467213,33.8063525 L83.6813525,33.8063525 C84.214142,33.8063525 84.4805328,33.6506163 84.4805328,33.3391393 C84.4805328,33.0276624 84.2284861,32.8668033 83.7243852,32.8565574 L82.9467213,32.8565574 L82.9467213,33.8063525 Z M90.0409836,34.5532787 L88.1659836,34.5532787 L87.744877,35.7213115 L87.1362705,35.7213115 L88.8452869,31.2459016 L89.3616803,31.2459016 L91.0737705,35.7213115 L90.4682377,35.7213115 L90.0409836,34.5532787 Z M88.3442623,34.067623 L89.8657787,34.067623 L89.1034836,31.9743852 L88.3442623,34.067623 Z M94.3135246,32.3954918 L94.3135246,35.7213115 L93.7418033,35.7213115 L93.7418033,32.8657787 L92.6106557,32.8657787 L92.5430328,34.1106557 C92.5061474,34.6823799 92.4103491,35.0911873 92.2556352,35.3370902 C92.1009214,35.582993 91.8555345,35.7110655 91.5194672,35.7213115 L91.2920082,35.7213115 L91.2920082,35.2202869 L91.454918,35.2079918 C91.6393452,35.1874999 91.771516,35.0809436 91.8514344,34.8883197 C91.9313529,34.6956958 91.9825819,34.3391419 92.005123,33.8186475 L92.0665984,32.3954918 L94.3135246,32.3954918 Z M95.8473361,33.5420082 L96.7110656,33.5420082 C97.0881166,33.5461066 97.3862694,33.6444663 97.6055328,33.8370902 C97.8247962,34.0297141 97.9344262,34.290982 97.9344262,34.6209016 C97.9344262,34.9528705 97.8217224,35.2192613 97.5963115,35.420082 C97.3709005,35.6209026 97.0676249,35.7213115 96.6864754,35.7213115 L95.2786885,35.7213115 L95.2786885,32.3954918 L95.8473361,32.3954918 L95.8473361,33.5420082 Z M95.8473361,34.0061475 L95.8473361,35.2571721 L96.692623,35.2571721 C96.9057388,35.2571721 97.0706961,35.2023571 97.1875,35.0927254 C97.3043039,34.9830937 97.3627049,34.8329928 97.3627049,34.642418 C97.3627049,34.4579909 97.3058407,34.3068653 97.1921107,34.1890369 C97.0783806,34.0712084 96.9190584,34.0102459 96.7141393,34.0061475 L95.8473361,34.0061475 Z M98.5215164,34.119877 C98.5215164,33.5645464 98.6290973,33.1280754 98.8442623,32.8104508 C99.0594273,32.4928263 99.3545063,32.3340164 99.7295082,32.3340164 C99.9036894,32.3340164 100.056352,32.3637292 100.1875,32.4231557 L100.1875,31 L100.756148,31 L100.756148,32.4415984 C100.899591,32.3698767 101.067622,32.3340164 101.260246,32.3340164 C101.637297,32.3340164 101.933401,32.4928263 102.148566,32.8104508 C102.363731,33.1280754 102.471311,33.5860626 102.471311,34.1844262 C102.471311,34.6741828 102.364243,35.0635231 102.150102,35.352459 C101.935962,35.6413949 101.641395,35.7858607 101.266393,35.7858607 C101.067622,35.7858607 100.897542,35.7530741 100.756148,35.6875 L100.756148,37 L100.1875,37 L100.1875,35.6967213 C100.052253,35.7561478 99.8975419,35.7858607 99.7233607,35.7858607 C99.350408,35.7858607 99.0568658,35.6413949 98.8427254,35.352459 C98.628585,35.0635231 98.5215164,34.6680353 98.5215164,34.1659836 L98.5215164,34.119877 Z M101.902664,34.119877 C101.902664,33.7018422 101.830943,33.3775626 101.6875,33.1470287 C101.544057,32.9164947 101.346313,32.8012295 101.094262,32.8012295 C100.965163,32.8012295 100.852459,32.8217211 100.756148,32.8627049 L100.756148,35.2694672 C100.848361,35.3043035 100.963114,35.3217213 101.10041,35.3217213 C101.354509,35.3217213 101.551741,35.2233616 101.692111,35.0266393 C101.83248,34.829917 101.902664,34.527666 101.902664,34.119877 Z M99.0901639,34.1844262 C99.0901639,34.5573789 99.1567616,34.840163 99.289959,35.0327869 C99.4231564,35.2254108 99.6147528,35.3217213 99.8647541,35.3217213 C99.9836072,35.3217213 100.091188,35.3032789 100.1875,35.2663934 L100.1875,32.8534836 C100.101434,32.8186474 99.9959023,32.8012295 99.8709016,32.8012295 C99.6209004,32.8012295 99.4282794,32.9129087 99.2930328,33.1362705 C99.1577862,33.3596323 99.0901639,33.709014 99.0901639,34.1844262 Z M105.262295,35.7213115 C105.229508,35.6557374 105.202869,35.5389353 105.182377,35.3709016 C104.918031,35.6454932 104.602461,35.7827869 104.235656,35.7827869 C103.907785,35.7827869 103.638833,35.6900624 103.428791,35.5046107 C103.218749,35.3191589 103.11373,35.0840178 103.11373,34.7991803 C103.11373,34.4528671 103.245388,34.1839149 103.508709,33.9923156 C103.77203,33.8007163 104.142416,33.704918 104.619877,33.704918 L105.173156,33.704918 L105.173156,33.4436475 C105.173156,33.2448761 105.11373,33.0865785 104.994877,32.96875 C104.876024,32.8509215 104.700821,32.7920082 104.469262,32.7920082 C104.266392,32.7920082 104.096312,32.8432372 103.959016,32.9456967 C103.821721,33.0481563 103.753074,33.1721304 103.753074,33.317623 L103.181352,33.317623 C103.181352,33.1516385 103.240266,32.9912918 103.358094,32.8365779 C103.475923,32.681864 103.635757,32.5594267 103.837602,32.4692623 C104.039448,32.3790979 104.261269,32.3340164 104.503074,32.3340164 C104.886272,32.3340164 105.186474,32.4298146 105.403689,32.6214139 C105.620903,32.8130133 105.733607,33.0768426 105.741803,33.4129098 L105.741803,34.9436475 C105.741803,35.2489769 105.780737,35.4918024 105.858607,35.6721311 L105.858607,35.7213115 L105.262295,35.7213115 Z M104.318648,35.2879098 C104.496927,35.2879098 104.665983,35.2418037 104.82582,35.1495902 C104.985657,35.0573766 105.101434,34.9375007 105.173156,34.789959 L105.173156,34.107582 L104.727459,34.107582 C104.030734,34.107582 103.682377,34.3114734 103.682377,34.7192623 C103.682377,34.8975419 103.741803,35.0368847 103.860656,35.1372951 C103.979509,35.2377054 104.132171,35.2879098 104.318648,35.2879098 Z M107.816598,34.0522541 L106.316598,34.0522541 L106.316598,33.5881148 L107.816598,33.5881148 L107.816598,34.0522541 Z M109.620902,33.7110656 L109.076844,33.7110656 L109.076844,35.7213115 L108.48668,35.7213115 L108.48668,31.2459016 L109.076844,31.2459016 L109.076844,33.2192623 L109.53791,33.2192623 L111.102459,31.2459016 L111.83709,31.2459016 L110.128074,33.4159836 L111.963115,35.7213115 L111.240779,35.7213115 L109.620902,33.7110656 Z M115.141393,32.3954918 L115.141393,35.7213115 L114.569672,35.7213115 L114.569672,32.8657787 L113.438525,32.8657787 L113.370902,34.1106557 C113.334016,34.6823799 113.238218,35.0911873 113.083504,35.3370902 C112.92879,35.582993 112.683403,35.7110655 112.347336,35.7213115 L112.119877,35.7213115 L112.119877,35.2202869 L112.282787,35.2079918 C112.467214,35.1874999 112.599385,35.0809436 112.679303,34.8883197 C112.759222,34.6956958 112.810451,34.3391419 112.832992,33.8186475 L112.894467,32.3954918 L115.141393,32.3954918 Z M118.205943,32.3954918 L118.77459,32.3954918 L118.77459,35.7213115 L118.205943,35.7213115 L118.205943,33.2961066 L116.672131,35.7213115 L116.103484,35.7213115 L116.103484,32.3954918 L116.672131,32.3954918 L116.672131,34.8237705 L118.205943,32.3954918 Z M120.723361,34.3043033 L120.308402,34.3043033 L120.308402,35.7213115 L119.73668,35.7213115 L119.73668,32.3954918 L120.308402,32.3954918 L120.308402,33.8032787 L120.680328,33.8032787 L121.79918,32.3954918 L122.487705,32.3954918 L121.172131,33.9938525 L122.598361,35.7213115 L121.876025,35.7213115 L120.723361,34.3043033 Z"/>
    </g>
</svg>
