<svg xmlns="http://www.w3.org/2000/svg" width="18" height="23" viewBox="0 0 18 23">
  <g>
    <path d="M-19-16h56v56h-56z"/>
    <path class="fill" d="M.929 8.8157c-1.8622 3.2905-.6784 8.284 1.3808 11.3118C3.3376 21.6412 4.3783 23 5.8036 23c.0269 0 .0538-.0005.0814-.0016.6697-.0272 1.1536-.2372 1.6215-.44.5253-.228 1.0686-.4637 1.9207-.4637.8107 0 1.328.228 1.8284.4485.493.2172 1.001.442 1.7515.4276 1.6055-.0304 2.5912-1.4967 3.461-2.7901.9075-1.3506 1.3627-2.6619 1.5163-3.163l.0062-.0199a.1851.1851 0 0 0-.0959-.2255l-.0132-.0057c-.2827-.1177-2.7628-1.2381-2.7888-4.2918-.0242-2.4809 1.8605-3.7947 2.2385-4.0328l.0176-.0112a.1838.1838 0 0 0 .0791-.118.1865.1865 0 0 0-.0278-.1401c-1.301-1.9387-3.2949-2.2309-4.0976-2.266a3.5495 3.5495 0 0 0-.3575-.0178c-.9428 0-1.846.3626-2.5717.654-.5009.2011-.9335.3748-1.232.3748-.3352 0-.7703-.1758-1.2742-.3794-.6738-.2723-1.4375-.5809-2.246-.5809-.0192 0-.0382.0002-.0569.0006-1.8798.0282-3.656 1.1233-4.6353 2.8577zM13.692.0001c-1.176.0494-2.5867.7947-3.4299 1.8115-.7166.8547-1.4166 2.2798-1.2322 3.7162.0116.0899.0826.1592.1704.1662.0794.0064.1604.0096.2411.0097 1.15 0 2.3904-.655 3.2376-1.7096.8916-1.1137 1.3425-2.5429 1.2061-3.823-.0107-.1004-.0965-.1749-.193-.171z" opacity=".8"/>
  </g>
</svg>
