<svg xmlns="http://www.w3.org/2000/svg" width="64" height="64"><g fill="none" fill-rule="evenodd"><path d="M0 0h64v64H0z"/><g fill-rule="nonzero"><path fill="#FFF" d="M32.4848 4.8485c-15.2386 0-27.6363 12.3977-27.6363 27.6363 0 15.2387 12.3977 27.6364 27.6363 27.6364 15.2387 0 27.6364-12.3977 27.6364-27.6364 0-15.2386-12.3977-27.6363-27.6364-27.6363zm24.1802 19.627h-1.6992a3.4097 3.4097 0 0 0-1.5166.3579l-.6231.3116a1.23 1.23 0 0 1-1.2291-.0765l-2.3487-1.5658a1.0834 1.0834 0 0 0-.6004-.1818h-.2866l.8016-1.2025a.2159.2159 0 0 1 .18-.0963h1.686v.4705c0 .5977.4845 1.0823 1.0824 1.0823.533 0 .975-.3855 1.0648-.8927l.3948.1975a2.828 2.828 0 0 0 1.2585.297h1.3657c.1684.4272.3244.8606.47 1.2987zm-8.0891-9.9848a.0732.0732 0 0 1 .021-.051l.8164-.8164a1.0802 1.0802 0 0 0 .0764-.0851 25.736 25.736 0 0 1 1.3821 1.3377l-.6802.6803c-.4228.4227-.4228 1.108 0 1.5306.2113.2113.4883.317.7653.317.277 0 .554-.1056.7653-.317l.5819-.5818a25.5439 25.5439 0 0 1 2.9175 4.5068h-.3924a.6553.6553 0 0 1-.2905-.0685l-1.6693-.8348a2.393 2.393 0 0 0-1.0648-.2512h-2.4619c-.798 0-1.5387.3964-1.9813 1.0603l-1.6017 2.4033h-1.0083c-.4377 0-.7937-.356-.7937-.7937v-1.9099a.072.072 0 0 1 .0494-.0684l2.112-.704a3.613 3.613 0 0 0 1.4044-.868c.6788-.6787 1.0524-1.5809 1.0524-2.5406v-1.9456zm-33.0962-.9525c.0238.0293.049.0577.0765.085l1.1545 1.1546a1.0821 1.0821 0 0 0 1.5306 0l1.6326-1.6329a1.219 1.219 0 0 1 .8675-.3592h1.4248v.0722a1.0824 1.0824 0 0 0 1.5665.968l1.889-.9447a.9109.9109 0 0 1 .4052-.0955h3.8612c-.4222.2753-.7157.7144-.8062 1.2372-.1274.7358.1794 1.4504.8008 1.8647l1.4876.9917a.072.072 0 0 1 .032.06v.5367a.0723.0723 0 0 1-.0722.0722h-.4971c-.7132 0-1.3836.2777-1.888.782l-7.2785 7.2785a.0724.0724 0 0 1-.051.021H19.785c-1.8701 0-3.3914 1.5213-3.3914 3.3914v.527l-1.2-.24a.9326.9326 0 0 1-.6551-.5003l-.7127-1.425a1.0822 1.0822 0 0 0-.968-.5985h-.6448a1.225 1.225 0 0 1-1.1636-.8388l-1.507-4.5213c1.4537-3.0032 3.481-5.6789 5.9373-7.886zm17.0051 44.4182c-14.045 0-25.4716-11.4266-25.4716-25.4716 0-2.7819.4498-5.4604 1.2778-7.9684l.7046 2.1138a3.3866 3.3866 0 0 0 3.1931 2.3188l.4134.827c.4312.8626 1.221 1.4656 2.1667 1.655l4.1276.8254c.2321.0464.4432.1594.6105.3267.3358.336.7304.592 1.1605.7585l-.7548 2.2645a1.0818 1.0818 0 0 0-.0556.3424v2.309c0 1.0617.5072 2.0761 1.3566 2.7132l2.7708 2.078c.3072.2304.4907.5973.4907.9812v6.228c0 .672.1969 1.3226.5696 1.8814l1.6642 2.4964c.3623.5432.968.8675 1.621.8675h.4024c.7559 0 1.371-.6151 1.371-1.371v-1.9793c0-.4818.1876-.935.5283-1.2756l2.1365-2.1365a3.991 3.991 0 0 0 .9589-1.5514l.676-2.0279a.072.072 0 0 1 .0684-.0494h.5755a2.2334 2.2334 0 0 0 2.1701-1.6944l.7774-3.1095c.1894-.7578-.036-1.5718-.5885-2.124l-1.5087-1.5087a2.2225 2.2225 0 0 0-1.5817-.6552h-1.3826l-3.963-3.963a2.2225 2.2225 0 0 0-1.5816-.6552H22.119a1.1257 1.1257 0 0 0-.0505 0h-.186c-.319 0-.6193-.1242-.8448-.35a3.3475 3.3475 0 0 0-1.7168-.9187l-.7627-.1525v-.9597c0-.6763.5503-1.2267 1.2268-1.2267h1.2267v.0722c0 .5978.4846 1.0823 1.0823 1.0823.5978 0 1.0824-.4845 1.0824-1.0823v-.7082c.0068-.0067.0142-.0125.021-.019l7.2785-7.2785a.5019.5019 0 0 1 .3572-.148h.497c1.2335 0 2.237-1.0034 2.237-2.2368v-.5368a2.2323 2.2323 0 0 0-.996-1.8611l-.9137-.6092 1.7534-.4385a1.7277 1.7277 0 0 0 1.3108-1.6792c0-.954-.7763-1.7304-1.7304-1.7304H26.027c-.4743 0-.9492.112-1.3733.3242l-.7152.3576c-.3307-.4152-.8405-.6818-1.4114-.6818h-1.7857c-.9058 0-1.7576.3527-2.3981.9934l-.8674.8674-.3236-.3235c4.2686-3.2277 9.5805-5.1451 15.3324-5.1451 5.7519 0 11.0638 1.9173 15.3321 5.145l-.7507.7507a2.222 2.222 0 0 0-.6552 1.5817v1.9454c0 .3816-.1487.7403-.4183 1.01a1.4367 1.4367 0 0 1-.5583.3452l-2.1119.704a2.2342 2.2342 0 0 0-1.5296 2.1221v1.9098c0 .5453.151 1.0551.4094 1.4942a4.109 4.109 0 0 0-1.1272 1.131l-1.0216 1.5322a3.3802 3.3802 0 0 0-.5697 1.8813v2.0652c0 .6718.197 1.3224.5697 1.8813l1.2358 1.8536a3.3845 3.3845 0 0 0 2.8217 1.5102h2.8726c.529 0 .9965.337 1.1636.8388l.258.7738a6.1236 6.1236 0 0 1 .3148 1.9396v.8171c0 1.0795.1503 2.1532.447 3.1916l1.856 6.4964c-4.648 4.9358-11.2388 8.023-18.538 8.023zM25.2835 41.317l-2.7709-2.0781a1.2328 1.2328 0 0 1-.4906-.9813v-2.1334l.8524-2.5568h4.5141c.019 0 .0377.0077.051.021l4.28 4.28c.2029.2031.4783.317.7653.317h1.8308c.019 0 .0377.0077.051.021l1.5088 1.5088a.0727.0727 0 0 1 .019.0685l-.7774 3.1094a.072.072 0 0 1-.07.0546h-.5755c-.9643 0-1.817.6146-2.1222 1.5296l-.676 2.0279a1.8127 1.8127 0 0 1-.4358.705l-2.1365 2.1365c-.7496.7496-1.1623 1.7462-1.1623 2.8063v.425l-1.093-1.6393a1.2222 1.2222 0 0 1-.2058-.6804v-6.2279c0-1.0622-.507-2.0766-1.3564-2.7134zm25.9652 1.5255a9.4552 9.4552 0 0 1-.3638-2.597v-.817a8.2856 8.2856 0 0 0-.4257-2.6243l-.258-.7738a3.387 3.387 0 0 0-3.2173-2.3188h-2.8726c-.411 0-.7925-.2043-1.0206-.5463l-1.2358-1.8537a1.2227 1.2227 0 0 1-.2061-.6804V28.566c0-.243.0713-.4783.2061-.6804l1.0216-1.5323a1.9442 1.9442 0 0 1 1.621-.8675h3.823l2.0758 1.3839c1.01.6733 2.3122.7544 3.398.2115l.623-.3116a1.2335 1.2335 0 0 1 .5486-.1294h2.313a25.4515 25.4515 0 0 1 .6778 5.8447c0 5.8127-1.9584 11.1756-5.248 15.4667l-1.46-5.1091z"/><path fill="#EF3124" d="M10.3945 9.0212l-.0107-.011c-.3773-.3773-.9962-.3773-1.3735 0-.3774.3774-.3774.9963 0 1.3736a.9682.9682 0 0 0 .6867.2829.969.969 0 0 0 .6975-.2938c.3629-.3747.3629-.9771 0-1.3517z"/><path fill="#EF3124" d="M10.5533 4.8485c-3.1456 0-5.7048 2.5592-5.7048 5.7047 0 .5982.485 1.0832 1.0832 1.0832s1.0831-.485 1.0831-1.0832c0-1.951 1.5874-3.5383 3.5384-3.5383.5982 0 1.0832-.485 1.0832-1.0831 0-.5982-.4847-1.0833-1.083-1.0833z"/><path fill="#EF3124" d="M10.5317 0C4.7247 0 0 4.7246 0 10.5317c0 .61.4946 1.1047 1.1047 1.1047.61 0 1.1047-.4946 1.1047-1.1047 0-4.589 3.7333-8.3223 8.3223-8.3223.61 0 1.1047-.4946 1.1047-1.1047 0-.61-.4945-1.1047-1.1047-1.1047zM54.0201 52.6465c-.0036-.0036-.0072-.0072-.011-.0107-.3746-.3629-.977-.3629-1.3516 0a.9773.9773 0 0 0-.0216.0216c-.363.3747-.363.9772 0 1.3517.0034.0038.007.0074.0106.011a.9684.9684 0 0 0 .6869.283.9682.9682 0 0 0 .6868-.283c.3771-.3773.3771-.9963-.0001-1.3736zM58.0682 52.3636c-.5981 0-1.0831.485-1.0831 1.0832 0 1.951-1.5874 3.5384-3.5383 3.5384-.5982 0-1.0832.485-1.0832 1.0831 0 .5982.485 1.0832 1.0832 1.0832 3.1455 0 5.7047-2.5592 5.7047-5.7048-.0001-.5982-.485-1.083-1.0833-1.083z"/><path fill="#EF3124" d="M62.8953 52.3636c-.61 0-1.1047.4946-1.1047 1.1047 0 4.589-3.7333 8.3223-8.3223 8.3223-.61 0-1.1047.4946-1.1047 1.1047 0 .61.4946 1.1047 1.1047 1.1047C59.2753 64.0001 64 59.2755 64 53.4685c0-.6104-.4946-1.1049-1.1047-1.1049z"/><path fill="#FFF" d="M27.0522 15.07c-.2316-.4685-.7953-.6585-1.2588-.4241l-2.0017 1.0117c-.4636.2342-.6515.8039-.4197 1.2725a.937.937 0 0 0 .84.5244.9273.9273 0 0 0 .4189-.1002l2.0017-1.0117c.4635-.2342.6514-.804.4196-1.2725zM43.6364 12.606c-.5356 0-.9697.4248-.9697.9487v1.0118c0 .524.434.9487.9697.9487.5355 0 .9697-.4248.9697-.9487v-1.0118c0-.524-.4342-.9486-.9697-.9486z"/></g></g></svg>