<svg xmlns="http://www.w3.org/2000/svg" width="65" height="56" viewBox="0 0 65 56">
  <g fill="none" fill-rule="evenodd">
    <path d="M-1 0h66v66H-1z"/>
    <path fill="#EDEFF3" d="M2 2h44v3H2z"/>
    <path stroke="#6F85A1" stroke-width="2" d="M47 6V1H1v5h46z"/>
    <path fill="#EDEFF3" d="M5 5h38v12H5z"/>
    <path fill="#EDEFF3" d="M10 15h6v8h-6zm0 12h6v8h-6zm0 12h6v8h-6z"/>
    <path stroke="#6F86A2" stroke-width="2" d="M4 4v46.8722c0 1.4747.108 2.0338.416 2.6099.2555.4776.6243.8464 1.102 1.1018.576.3081 1.135.4161 2.6097.4161h31.7444c1.4747 0 2.0338-.108 2.6099-.416.4776-.2555.8464-.6243 1.1018-1.102.3081-.576.4161-1.1351.4161-2.6098V4H4z"/>
    <path stroke="#6F86A2" d="M9.5 3.5h7v8h-7zm0 11h7v9h-7zm0 12h7v9h-7zm0 12h7v9h-7z"/>
    <path stroke="#E30000" stroke-linecap="round" stroke-width="2" d="M36.0241 37v10m0-23L36 33m22-18v15m0 10v15"/>
    <path stroke="#6F85A1" stroke-linecap="round" stroke-width="2" d="M27 8h12"/>
    <path stroke="#E30000" stroke-linecap="round" stroke-width="2" d="M31 24v2"/>
    <path stroke="#6F85A1" stroke-linecap="round" stroke-width="2" d="M31 4v4m4-4v4"/>
    <path stroke="#E30000" stroke-linecap="round" stroke-width="2" d="M31.0241 44.9999V47m0-9.0001V40m0-9.0001V33"/>
    <rect width="12" height="14" x="27" y="4" stroke="#6F85A1" stroke-width="2" rx="2"/>
    <rect width="6" height="6" x="27" y="12" stroke="#6F85A1" stroke-width="2" rx="2"/>
    <path stroke="#E30000" stroke-linecap="round" stroke-linejoin="round" stroke-width="2" d="M52 21.0026L57.9952 15 64 21.0026M52 49l5.9952 6.0026L64 49"/>
  </g>
</svg>
