<svg xmlns="http://www.w3.org/2000/svg" xmlns:xlink="http://www.w3.org/1999/xlink" width="20px" height="19px" version="1.1" viewBox="0 0 20 19">
    <g fill="none" stroke="#B5BBC2" stroke-width="2">
        <path d="M16.5,19.6046512 L16.5,14.4883721 C16.5,13.591374 16.5,13.591374 16.5,11.8333428 C16.5,9.7883005 16.5,9.7883005 16.5,7.45624716 C16.5,4.68498043 16.5,4.68498043 16.5,2.39534884 C16.5,2.20607607 16.2671229,2 15.9231806,2 L4.07681941,2 C3.73287706,2 3.5,2.20607607 3.5,2.39534884 L3.5,19.6046512 C3.5,19.7939239 3.73287706,20 4.07681941,20 L15.9231806,20 C16.2671229,20 16.5,19.7939239 16.5,19.6046512 Z" transform="translate(10.000000, 11.000000) rotate(-90.000000) translate(-10.000000, -11.000000) "/>
        <path d="M11.5,-0.5 L8.5,-0.5 L8.5,5.5 L11.5,5.5 L11.5,3.89534884 C11.5,3.53654961 11.5,3.53654961 11.5,2.83333711 C11.5,2.0153202 11.5,2.0153202 11.5,1.08249886 C11.5,0.187570397 11.5,0.0151427193 11.5,-0.500000001 Z" transform="translate(10.000000, 2.500000) rotate(-90.000000) translate(-10.000000, -2.500000) "/>
        <path d="M1,11 L19,11"/>
        <path d="M8,13 L12,13"/>
    </g>
</svg>
