<svg xmlns="http://www.w3.org/2000/svg" width="68" height="59"><g fill="#ef3124"><path d="M53 12h-3c-1.1 0-2 .9-2 2v8.1h1v.9h5v-2h-4v-1h3c2.2 0 4-1.8 4-4s-1.8-4-4-4zm0 6h-3v-4h3c1.1 0 2 .9 2 2s-.9 2-2 2zM67.8 7.9C65.4 4.5 62.1 2 58.2.6c-.3-.1-.5 0-.6.3-.1.3 0 .5.3.6 3.7 1.3 6.9 3.7 9.2 6.9.1.1.3.2.4.2.1 0 .2 0 .3-.1.1 0 .2-.3 0-.6z"/></g><path d="M62.4 8.6C59.7 5.8 56.1 4.2 52.2 4c-3.7-.2-7.3 1-10.2 3.2l-.7-.1c-2.2-.3-6.8-.8-7.9-.9-1.6-.2-3.2.3-4.4 1.3l-9.4 7.8c-1.5 1.3-2.6 2.9-3.1 4.8-1 3.8-3 10.4-4.3 13.1L8 37.4l-.3-.3c-.4-.4-1-.7-1.6-.7s-1.1.3-1.6.7L.7 41c-.9.9-.9 2.4 0 3.3l1 1c.4.4 1 .4 1.4 0s.4-1 0-1.4l-1-1c-.1-.1-.1-.2-.1-.3 0-.1 0-.2.1-.3L6 38.4c.1-.1.2-.1.3-.1.1 0 .2 0 .3.1l.9 1s2 2 6 6.1l7 7c.1.1.1.2.1.3s0 .2-.1.3l-4 3.9c-.1.1-.2.1-.3.1s-.2 0-.3-.1l-8.6-8.7c-.4-.4-1-.4-1.4 0-.4.4-.4 1 0 1.4l8.6 8.7c.4.4 1 .7 1.6.7s1.2-.2 1.6-.7l3.9-3.9c.4-.4.7-1 .7-1.6s-.2-1.2-.7-1.6l-.3-.3.6-.6c.5-.5 1.2-.9 1.9-1.1 0 0 2.4-.8 7.1-2.4 2.4-.8 4.5-2.3 6-4.3l3.5-4.5 9.4-9.4c2.2-2 2.7-4 1.5-6.1-.7-.8-1.8-1.3-3.2-1.3-3.3-.2-7.7 1.6-10.2 4.1l-4.4 4.4c-.3.3-.7.5-1.2.5-.7 0-1.6-.7-1.9-1.4v-9.5l3.1-2.6 2.5-.4c-.5 2.2-.5 4.5 0 6.8.1.4.5.8.9.8h.2c.5-.1.8-.6.7-1.1-.5-2.4-.4-4.9.3-7.2.7-2.1 1.8-3.9 3.3-5.5.3-.3.7-.6 1-.9 2.6-2.1 5.9-3.2 9.3-3.1 3.4.2 6.6 1.6 9 4 2.6 2.6 4 6 4 9.7s-1.4 7.1-4 9.7c-3.4 3.4-8.4 4.8-13.1 3.6-.5-.1-1 .2-1.2.7-.1.5.2 1 .7 1.2 1.3.3 2.6.5 3.9.5 1.3 0 2.7-.2 4-.5 2.6-.7 5.1-2.1 7-4.1 2.9-3 4.6-6.9 4.6-11.1.4-4.4-1.2-8.4-4.2-11.3zM44.9 31l-.9-.9c-.2-.2-.3-.4-.3-.6 0-.2.1-.4.3-.6l1.6-1.6c.5-.5 1.2-.8 1.8-.8.5 0 1 .2 1.5.5l-4 4zm-8-16.8l-3.6.6c-.2 0-.3.1-.5.2l-3.7 3c-.2.2-.3.5-.3.7V29c.4 1.6 2.2 2.9 3.7 2.9 1 0 1.8-.4 2.5-1l4.4-4.4c2.1-2.1 6-3.7 8.8-3.6.6 0 1.4.2 1.9.7 0 0 0 .1.1.1.2.2.8.8.1 1.8-1.8-1.4-4.3-1.3-6 .3l-1.6 1.6c-.5.5-.8 1.2-.8 2 0 .7.3 1.4.8 2l.9.9-4.3 4.3-.1.1-3.6 4.5c-1.3 1.7-3.1 3-5.2 3.7l-7 2.4c-1 .3-1.9.8-2.7 1.6l-.6.6-5.4-5.4-5.4-5.4 4.2-4.2.2-.2c1.4-2.7 3.4-9.7 4.5-13.6.4-1.5 1.3-2.9 2.5-3.9L30.2 9c.8-.7 1.9-1 2.9-.9 1 .1 4.6.5 7 .8-1.4 1.6-2.5 3.3-3.2 5.3z" fill="#6f86a2"/></svg>