<svg xmlns="http://www.w3.org/2000/svg" xmlns:xlink="http://www.w3.org/1999/xlink" width="63" height="55">
  <defs>
    <rect id="a" width="64" height="64"/>
  </defs>
  <g fill="none" fill-rule="evenodd">
    <g>
      <g transform="translate(0 -3)">
        <mask id="b" fill="#fff">
          <use xlink:href="#a"/>
        </mask>
        <g mask="url(#b)">
          <g>
            <g>
              <path stroke="#EF3124" stroke-width="2" d="M45.4339213,13.9571395 L45.4339213,16.703167" transform="translate(0 6.7023)"/>
              <path stroke="#EF3124" stroke-width="2" d="M50.0190952,16.703167 L45.4339213,16.703167" transform="translate(0 6.7023)"/>
              <path stroke="#EF3124" stroke-width="2" d="M45.4613297,13.8204432 L49.0927182,13.8204432 C50.5867097,13.8204432 51.797829,12.6093239 51.797829,11.1153324 C51.797829,9.62134098 50.5867097,8.41022162 49.0927182,8.41022162 L46.4613297,8.41022162 C45.909045,8.41022162 45.4613297,8.85793687 45.4613297,9.41022162 L45.4613297,13.8204432 Z" transform="translate(0 6.7023)"/>
              <path fill="#FFF" fill-rule="nonzero" d="M57.8416908,4.23989201 C55.3061719,1.69181853 51.9390155,0.192113385 48.3603436,0.0171822995 C44.9335507,-0.149830596 41.5840912,0.904994103 38.8837236,2.99344712 L38.2028741,2.91499613 C36.1542651,2.67879044 31.891471,2.18749721 30.8886816,2.06689709 C29.4312249,1.89147873 27.9462531,2.33026827 26.8148575,3.2708274 L18.1263599,10.4946529 C16.7273275,11.6578959 15.7321746,13.2034047 15.2484163,14.9644101 C14.2893846,18.4557227 12.5097456,24.6217998 11.2599256,27.1036041 L7.44670788,30.9358862 L7.19531357,30.683235 C6.79519177,30.2811128 6.26306978,30.0595253 5.69712956,30.0595253 C5.13118933,30.0595253 4.59906734,30.280991 4.19894554,30.683235 L0.619546362,34.2805296 C-0.206515454,35.1107213 -0.206515454,36.4615645 0.619546362,37.2917562 L1.5690023,38.245959 C1.9159119,38.594603 2.47845818,38.594603 2.82536778,38.245959 C3.17227737,37.897315 3.17227737,37.3319563 2.82536778,36.9833123 L1.87591184,36.0291095 C1.7887602,35.9415221 1.77579048,35.8391948 1.77579048,35.786082 C1.77579048,35.7329692 1.7887602,35.6306418 1.87591184,35.5430545 L5.45531102,31.9457599 C5.54246266,31.8581726 5.644281,31.845138 5.69712956,31.845138 C5.74997812,31.845138 5.85179645,31.8581726 5.93894809,31.9457599 L6.81797968,32.8291863 C6.81806049,32.8293487 8.68561878,34.7062845 12.4206546,38.4599938 L18.9046641,44.9765422 C18.9918157,45.0641295 19.0047854,45.1664569 19.0047854,45.2195697 C19.0047854,45.2726825 18.9918157,45.3750098 18.9046641,45.4625972 L15.3252649,49.0598917 C15.2381132,49.1474791 15.1362949,49.1605137 15.0834463,49.1605137 C15.0305978,49.1605137 14.9287794,49.1474791 14.8416278,49.0598917 L6.8437979,41.0220764 C6.4968883,40.6734324 5.93434203,40.6734324 5.58743243,41.0220764 C5.24052283,41.3707203 5.24052283,41.9360791 5.58743243,42.2847231 L13.5852623,50.3225385 C13.9983538,50.7376952 14.5409001,50.9452736 15.0834463,50.9452736 C15.6259926,50.9452736 16.1685388,50.7376952 16.5816304,50.3225385 L20.1610295,46.7252439 C20.5611513,46.3231217 20.7816365,45.7883393 20.7816365,45.2195697 C20.7816365,44.6508 20.5612725,44.1160177 20.1610295,43.7138954 L19.9053928,43.4569806 L20.461636,42.8980782 C20.9399398,42.4173832 21.5361831,42.0631356 22.1860022,41.8738299 C22.194083,41.8714748 24.3767125,41.1331747 28.7338906,39.6589295 C30.9435908,38.8970779 32.8774118,37.5208965 34.3263836,35.6792473 L37.5878429,31.5338922 L46.2923405,22.7858762 C48.3540438,20.9699368 48.8152162,19.0724949 47.6758577,17.0935504 C47.0505235,16.3466824 46.0267644,15.9145929 44.7095503,15.843451 C41.6975459,15.6788744 37.5364489,17.3656925 35.2342637,19.6795094 C33.7661404,21.1549727 32.0988652,22.8308271 31.1798336,23.7550626 C30.8948634,24.0415792 30.5131659,24.1993339 30.1052865,24.1993339 C29.4594674,24.1993339 28.6125571,23.5332315 28.3801931,22.8922235 L28.379587,14.1086365 L31.290864,11.7008977 L33.5923219,11.3459192 C33.1404425,13.4046485 33.1382607,15.5473107 33.5945038,17.6182219 C33.6862615,18.0345968 34.0535347,18.3181898 34.4610505,18.3181898 C34.5245657,18.3181898 34.5891719,18.3112462 34.6538992,18.2968716 C35.1329303,18.1902806 35.4352337,17.7136056 35.329173,17.2321797 C34.8417783,15.0200811 34.9498997,12.7150351 35.6416583,10.5634802 C36.2707501,8.62413279 37.3055395,6.93207654 38.7273598,5.50314783 C39.0292996,5.19982025 39.3501486,4.90830905 39.6814218,4.63641059 C42.1158496,2.64882313 45.1583995,1.64906031 48.2741616,1.80133319 C51.4110147,1.95458062 54.3627766,3.26924376 56.5855677,5.50314783 C58.9706621,7.90016661 60.2841186,11.0869335 60.2841186,14.4767714 C60.2841186,17.8666094 58.9706621,21.053498 56.5855677,23.4505168 C53.4409571,26.6109709 48.8083442,27.8812922 44.4959743,26.7655584 C44.0213069,26.6425219 43.5365789,26.9300131 43.4142757,27.4076626 C43.2919725,27.8851904 43.5780335,28.3718545 44.0531857,28.4947692 C45.2325814,28.799924 46.4447044,28.9524406 47.6569486,28.9524406 C48.8945262,28.9524406 50.132225,28.7934677 51.334651,28.4755219 C53.7881091,27.8268394 56.0384154,26.5258199 57.8419332,24.7131636 C60.5623008,21.978099 62.0606061,18.3427971 62.0606061,14.4760405 C62.0606061,10.6094057 60.5623008,6.97410386 57.8416908,4.23989201 Z M41.55197,25.0244093 L40.7173021,24.1856903 C40.5669988,24.0345138 40.4842108,23.8336354 40.4842108,23.6199661 C40.4842108,23.4062968 40.5669988,23.2054184 40.7174233,23.0542419 L42.1710012,21.593275 C42.6357291,21.1263454 43.246033,20.8928197 43.8564582,20.8928197 C44.3379134,20.8928197 44.8192475,21.0381489 45.2293087,21.3286856 L41.55197,25.0244093 Z M34.1434743,9.45395908 L30.7800754,9.97278324 C30.6221358,9.9971469 30.4737719,10.0637815 30.3503778,10.1658653 L26.9266152,12.9974099 C26.721524,13.166981 26.6027359,13.4198758 26.6027359,13.6867797 L26.603342,23.0265891 C26.603342,23.1043092 26.6134026,23.1817856 26.6334027,23.2568257 C27.0193426,24.7099963 28.6262541,25.9845812 30.0720744,25.9845812 L30.1051653,25.9845812 C30.9879545,25.9845812 31.8158345,25.6409318 32.4364415,25.0168566 C33.3554731,24.0927429 35.0225058,22.4170103 36.490508,20.9416688 C38.44542,18.977105 42.0890617,17.4905563 44.614035,17.6260182 C45.1903995,17.6572037 45.9560976,17.792422 46.3304012,18.2594734 C46.3504012,18.2844462 46.3716134,18.3082007 46.3941589,18.3307371 C46.5825228,18.5200428 47.0927053,19.0338724 46.441068,20.0118297 C44.8094293,18.709592 42.4227591,18.8152085 40.9147569,20.33075 L39.461179,21.7915952 C38.9752389,22.2799647 38.7076022,22.9292563 38.7076022,23.6199661 C38.7076022,24.3105541 38.9752389,24.9598456 39.461179,25.4482152 L40.2958469,26.2869342 L36.2949926,30.307791 C36.2706289,30.3322765 36.2477198,30.3582238 36.2262652,30.3852675 L32.9328058,34.5714317 C31.6954707,36.1439842 30.0441955,37.3190435 28.1621322,37.9679696 L21.6724257,40.16411 C20.743091,40.4384449 19.8904837,40.9467926 19.205513,41.6351879 L18.649391,42.1940903 L13.6772625,37.1971034 L8.70295214,32.1984111 L12.6142306,28.267578 C12.6776246,28.2038671 12.7310793,28.1308979 12.7727763,28.0511069 C14.1021116,25.5047389 15.9675688,19.0565306 16.9610248,15.4395015 C17.3473284,14.033231 18.1419963,12.7989679 19.2588464,11.870347 L27.947344,4.64652151 C28.7054057,4.0162336 29.700195,3.7220424 30.6772874,3.83971888 C31.5580159,3.9457008 34.9307481,4.33503211 37.1345089,4.58914509 C35.8115979,6.00759743 34.8078389,7.64020635 34.1434743,9.45395908 Z" transform="translate(0 6.7023)"/>
              <path stroke="#FFF" stroke-linecap="round" d="M15.7354336,46.6895805 L13.5757576,44.6060606" transform="translate(0 6.7023)"/>
            </g>
            <path stroke="#EF3124" stroke-linecap="round" d="M62.4839568,6.81021576 C60.3162005,3.75210781 57.2357194,1.38657369 53.6394444,0.110544365" transform="translate(0 3.8788)"/>
          </g>
        </g>
      </g>
    </g>
  </g>
</svg>
