<svg width="83px" height="65px" viewBox="0 0 83 65" version="1.1" xmlns="http://www.w3.org/2000/svg" xmlns:xlink="http://www.w3.org/1999/xlink">
    <g id="3_internet/mob/meta_trading" stroke="none" stroke-width="1" fill="none" fill-rule="evenodd">
        <g id="AF-internet-trading_conditions_mob" transform="translate(-40.000000, -652.000000)">
            <g id="Group-48" transform="translate(28.000000, 642.000000)">
                <g id="Group-8" transform="translate(12.000000, 0.000000)">
                    <g id="card-icon-copy">
                        <rect id="Rectangle-7-Copy-7" x="0" y="0" width="84" height="84"></rect>
                        <path d="M30.7023272,73.8181818 L30.5454545,73.1540784 L31.5454545,73.1540784 L31.5454545,73.8181818 L30.7023272,73.8181818 Z M34.8033538,72.8181818 L71.5454545,72.8181818 L71.5454545,65.1818182 L81.7272727,65.1818182 L81.7272727,49.3636364 L72.8181818,49.3636364 L72.8181818,42.2727273 L80.4545455,42.2727273 L80.4545455,26.4545455 L63.9090909,26.4545455 L63.9090909,19.3636364 L70.2727273,19.3636364 L70.2727273,11.1818182 L30.2727273,11.1818182 L30.2727273,18.8181818 L23.9090909,18.8181818 L23.9090909,23.1975358 C24.2114486,23.1870653 24.5145089,23.1818182 24.8181818,23.1818182 C39.0771699,23.1818182 50.6363636,34.7410119 50.6363636,49 C50.6363636,59.5856803 44.2140797,68.8755189 34.8033538,72.8181818 Z" id="Combined-Shape" stroke="#6F86A2" stroke-width="2"></path>
                        <path d="M38.8181818,15.2727273 L38.8181818,17.8181818" id="Path-3" stroke="#6F86A2"></path>
                        <path d="M46.4545455,15.2727273 L46.4545455,17.8181818" id="Path-3-Copy" stroke="#6F86A2"></path>
                        <path d="M54.0909091,15.2727273 L54.0909091,17.8181818" id="Path-3-Copy-2" stroke="#6F86A2"></path>
                        <path d="M61.7272727,15.2727273 L61.7272727,17.8181818" id="Path-3-Copy-4" stroke="#6F86A2"></path>
                        <path d="M40.0909091,22.9090909 L40.0909091,25.4545455" id="Path-3-Copy-8" stroke="#6F86A2"></path>
                        <path d="M47.7272727,22.9090909 L47.7272727,25.4545455" id="Path-3-Copy-3" stroke="#6F86A2"></path>
                        <path d="M55.3636364,22.9090909 L55.3636364,25.4545455" id="Path-3-Copy-7" stroke="#6F86A2"></path>
                        <path d="M49,30.5454545 L49,33.0909091" id="Path-3-Copy-13" stroke="#6F86A2"></path>
                        <path d="M56.6363636,30.5454545 L56.6363636,33.0909091" id="Path-3-Copy-12" stroke="#6F86A2"></path>
                        <path d="M64.2727273,30.5454545 L64.2727273,33.0909091" id="Path-3-Copy-11" stroke="#6F86A2"></path>
                        <path d="M71.9090909,30.5454545 L71.9090909,33.0909091" id="Path-3-Copy-14" stroke="#6F86A2"></path>
                        <path d="M56.6363636,38.1818182 L56.6363636,40.7272727" id="Path-3-Copy-18" stroke="#6F86A2"></path>
                        <path d="M64.2727273,38.1818182 L64.2727273,40.7272727" id="Path-3-Copy-17" stroke="#6F86A2"></path>
                        <path d="M71.9090909,38.1818182 L71.9090909,40.7272727" id="Path-3-Copy-16" stroke="#6F86A2"></path>
                        <path d="M56.6363636,45.8181818 L56.6363636,48.3636364" id="Path-3-Copy-21" stroke="#6F86A2"></path>
                        <path d="M64.2727273,45.8181818 L64.2727273,48.3636364" id="Path-3-Copy-20" stroke="#6F86A2"></path>
                        <path d="M57.9090909,53.4545455 L57.9090909,56" id="Path-3-Copy-28" stroke="#6F86A2"></path>
                        <path d="M65.5454545,53.4545455 L65.5454545,56" id="Path-3-Copy-29" stroke="#6F86A2"></path>
                        <path d="M73.1818182,53.4545455 L73.1818182,56" id="Path-3-Copy-26" stroke="#6F86A2"></path>
                        <path d="M50.2727273,61.0909091 L50.2727273,63.6363636" id="Path-3-Copy-34" stroke="#6F86A2"></path>
                        <path d="M57.9090909,61.0909091 L57.9090909,63.6363636" id="Path-3-Copy-33" stroke="#6F86A2"></path>
                        <path d="M65.5454545,61.0909091 L65.5454545,63.6363636" id="Path-3-Copy-32" stroke="#6F86A2"></path>
                        <path d="M73.1818182,61.0909091 L73.1818182,63.6363636" id="Path-3-Copy-31" stroke="#6F86A2"></path>
                        <path d="M47.7272727,68.7272727 L47.7272727,71.2727273" id="Path-3-Copy-38" stroke="#6F86A2"></path>
                        <path d="M55.3636364,68.7272727 L55.3636364,71.2727273" id="Path-3-Copy-37" stroke="#6F86A2"></path>
                        <path d="M63,68.7272727 L63,71.2727273" id="Path-3-Copy-36" stroke="#6F86A2"></path>
                    </g>
                    <circle id="Oval-13" stroke="#6F86A2" stroke-width="2" cx="26.0909091" cy="49" r="24.8181818"></circle>
                    <circle id="Oval-13-Copy-2" stroke="#6F86A2" cx="26.0909091" cy="49" r="18.4545455"></circle>
                    <path d="M30.5454545,19.0909091 L69.9966732,19.0909091" id="Path-24" stroke="#6F86A2" stroke-width="2"></path>
                    <path d="M38.1818182,26.7272727 L69.9966732,26.7272727" id="Path-24-Copy" stroke="#6F86A2" stroke-width="2"></path>
                    <path d="M47.0909091,34.3636364 L78.9090909,34.3636364" id="Path-24-Copy-2" stroke="#6F86A2" stroke-width="2"></path>
                    <path d="M49.6119106,42 L71.2727273,42" id="Path-24-Copy-3" stroke="#6F86A2" stroke-width="2"></path>
                    <path d="M50.8836611,49.6363636 L82.7454508,49.6363636" id="Path-24-Copy-4" stroke="#6F86A2" stroke-width="2"></path>
                    <path d="M49.6363636,57.2727273 L82.7272727,57.2727273" id="Path-24-Copy-5" stroke="#6F86A2" stroke-width="2"></path>
                    <path d="M45.8181818,64.9090909 L77.6599246,64.9090909" id="Path-24-Copy-6" stroke="#6F86A2" stroke-width="2"></path>
                    <path d="M30.4338829,52.3286397 C29.4937175,52.3286397 29.049584,52.5617757 29.049584,53.1834717 C29.0234155,54.7377117 28.1616094,56.1105753 25.9935713,56.1105753 C23.61677,56.1105753 22.8593455,54.452816 22.8593455,53.0280477 L22.8593455,52.277025 L26.0459083,52.277025 C26.5160641,52.277025 26.9862199,51.8625127 26.9862199,51.2927214 C26.9862199,50.7229301 26.5160641,50.2824654 26.0459083,50.2824654 L22.8593455,50.2824654 L22.8593455,48.2101938 L26.0457621,48.2101938 C26.5159179,48.2101938 26.9860737,47.7956815 26.9860737,47.2257452 C26.9860737,46.6558089 26.5159179,46.2154892 26.0457621,46.2154892 L22.8591993,46.2154892 L22.8591993,45.2311856 C22.8591993,42.9515853 23.982398,41.8895697 25.9674028,41.8895697 C28.2138002,41.8895697 29.049584,43.314193 29.049584,44.6612493 C29.049584,45.2569929 29.467549,45.5160813 30.4338829,45.5160813 C31.3741945,45.5160813 31.8181818,45.2569929 31.8181818,44.246737 C31.8181818,41.3196334 29.362875,39.4545455 25.8890435,39.4545455 C22.6501437,39.4545455 20.0904553,41.0345927 20.0904553,45.2310406 L20.0904553,46.2153443 L18.7061564,46.2153443 C18.1838098,46.2153443 17.8181818,46.6556639 17.8181818,47.2514076 C17.8181818,47.8213439 18.1838098,48.2099039 18.7061564,48.2099039 L20.0904553,48.2099039 L20.0904553,50.2821755 L18.7061564,50.2821755 C18.1838098,50.2821755 17.8181818,50.7226401 17.8181818,51.3183838 C17.8181818,51.8881751 18.1838098,52.2767351 18.7061564,52.2767351 L20.0904553,52.2767351 L20.0904553,53.0279027 C20.0904553,56.4991353 22.2845157,58.5454545 25.8890435,58.5454545 C29.3630212,58.5454545 31.8181818,56.6026546 31.8181818,53.6237914 C31.8181818,52.587728 31.400363,52.3286397 30.4338829,52.3286397 Z" id="Shape" fill="#EF3124" fill-rule="nonzero"></path>
                </g>
            </g>
        </g>
    </g>
</svg>