<svg xmlns="http://www.w3.org/2000/svg" width="66" height="64"><g fill="#FFF" fill-rule="nonzero"><path d="M45.2807 1C34.4075 1 25.5614 9.8324 25.5614 20.689c0 1.5261.1747 3.0123.5055 4.4396a19.7062 19.7062 0 0 0-4.4448-.5064c-8.8922 0-16.7209 5.9791-19.0381 14.5401-.139.5139.1654 1.043.68 1.1818.515.139 1.0446-.1652 1.1836-.679C6.5377 31.9429 13.6 26.5497 21.6219 26.5497c1.765 0 3.47.2597 5.0806.7402 1.986 5.5556 6.4043 9.9667 11.9687 11.949.4807 1.608.7395 3.3104.7395 5.0721 0 9.7937-7.98 17.7614-17.7888 17.7614-4.4331 0-8.68-1.6379-11.9584-4.612-3.2561-2.9539-5.2939-6.9761-5.738-11.3259-.054-.5296-.5279-.9148-1.058-.861-.5304.054-.9165.527-.8624 1.0564.4923 4.8235 2.7511 9.2831 6.3602 12.5573C11.9997 62.1842 16.7077 64 21.622 64c10.8732 0 19.7194-8.8324 19.7194-19.689 0-1.5257-.176-3.011-.5065-4.4378a19.738 19.738 0 0 0 4.4458.5046c5.5665 0 10.9007-2.3666 14.6351-6.4929.3575-.3949.3265-1.0044-.069-1.3612-.3957-.357-1.006-.3261-1.3634.0689-3.369 3.7226-8.1812 5.8576-13.2027 5.8576-9.8088 0-17.7888-7.9677-17.7888-17.7614 0-9.7936 7.98-17.7613 17.7888-17.7613 9.8088 0 17.7888 7.9677 17.7888 17.7613 0 2.1148-.3681 4.1835-1.0944 6.1487-.1846.4993.0713 1.0535.5715 1.2378.5.1844 1.0553-.0712 1.2397-.5706C64.5917 25.3253 65 23.0321 65 20.6888 65.0001 9.8324 56.154 1 45.2807 1z"/><path d="M48.8135 22.464c-.8059 0-1.1866.2077-1.1866.7613-.0224 1.384-.7611 2.6065-2.6194 2.6065-2.0373 0-2.6865-1.4762-2.6865-2.745v-.6687h2.7313c.403 0 .806-.3691.806-.8765s-.403-.8996-.806-.8996H42.321v-1.8453h2.7312c.403 0 .806-.3691.806-.8766 0-.5075-.403-.8996-.806-.8996H42.321v-.8765c0-2.03.9627-2.9757 2.6641-2.9757 1.9255 0 2.642 1.2686 2.642 2.4681 0 .5305.3582.7613 1.1865.7613.806 0 1.1865-.2308 1.1865-1.1304C50 12.6608 47.8955 11 44.9179 11c-2.7762 0-4.9702 1.407-4.9702 5.1438v.8765H38.761c-.4477 0-.7611.3921-.7611.9226 0 .5075.3134.8535.7611.8535h1.1866v1.8453H38.761c-.4477 0-.7611.3923-.7611.9228 0 .5074.3134.8534.7611.8534h1.1866v.6689c0 3.091 1.8806 4.9132 4.9702 4.9132C47.8956 28 50 26.27 50 23.6174c0-.9226-.3581-1.1533-1.1865-1.1533zM65.9589 46.053l-1.927-6.3732a.9577.9577 0 0 0-1.5363-.4521l-5.1852 4.401c-.4028.3419-.4519.9454-.1094 1.3476.3424.4024.9464.4514 1.3493.1094l2.6572-2.2555c-.8203 3.266-2.252 6.3843-4.2007 9.1161-2.4612 3.4504-5.6274 6.2055-9.411 8.1888-1.5712.8236-3.223 1.4938-4.9097 1.9916-.5069.1498-.7965.6815-.6466 1.188.123.4159.5044.6853.9177.6853a.9589.9589 0 0 0 .2717-.0395c1.8064-.5333 3.575-1.2506 5.2567-2.1322 4.052-2.1241 7.4435-5.0755 10.0805-8.7724 2.1087-2.9561 3.6517-6.3348 4.5255-9.8715l1.0345 3.4215c.1249.4134.5049.68.916.68a.9616.9616 0 0 0 .2772-.041c.506-.1529.7924-.6866.6396-1.1919zM23.9605.6852C23.8106.179 23.2782-.11 22.7711.0394c-1.8063.5333-3.5749 1.2506-5.2567 2.1323-4.052 2.1241-7.4435 5.0755-10.0806 8.7724-2.1087 2.9562-3.6517 6.3348-4.5254 9.8716L1.8739 17.394c-.1529-.5055-.687-.7915-1.1931-.6387-.5061.1526-.7926.6862-.6396 1.1916l1.927 6.3733A.9568.9568 0 0 0 2.8846 25a.9577.9577 0 0 0 .62-.2276l5.185-4.401a.9551.9551 0 0 0 .1095-1.3477c-.3424-.4024-.9465-.4513-1.3493-.1093l-2.6572 2.2554c.8203-3.2659 2.252-6.3842 4.2007-9.116 2.4612-3.4505 5.6274-6.2056 9.411-8.1889 1.5713-.8236 3.223-1.4937 4.9097-1.9916.5068-.1499.7963-.6818.6465-1.188zM22.5412 41.994v-4.7037c1.715.1158 2.352.8572 2.94.8572.7349 0 1.0778-.8804 1.0778-1.3207 0-1.1354-2.3519-1.622-4.0178-1.6683v-.6256c0-.278-.3675-.5329-.735-.5329-.4164 0-.7104.2548-.7104.5329v.6719c-2.3275.2317-4.6548 1.3902-4.6548 4.3098 0 2.9658 2.45 3.8 4.6548 4.5414v5.445c-2.4989-.1854-3.1603-1.8073-3.9688-1.8073-.6125 0-1.127.7646-1.127 1.3207 0 1.1355 2.058 2.688 5.0958 2.7342v.7185c0 .278.2939.5329.7105.5329.3674 0 .735-.2548.735-.5329v-.7878C25.187 51.3317 27 49.756 27 46.906c0-3.1511-2.3274-4.1707-4.4588-4.9122zm-1.2984-.4405c-1.2985-.4634-2.3519-.95-2.3519-2.2707 0-1.205.98-1.7842 2.352-1.9463v4.217zm1.1514 7.9011v-4.889c1.2004.4866 2.1559 1.1355 2.1559 2.595 0 1.3208-.833 2.0624-2.1559 2.294z"/></g></svg>