<svg xmlns="http://www.w3.org/2000/svg" width="66" height="64"><path d="M26.7 25.7c1.8 6.6 7 11.8 13.6 13.6.5 1.7.7 3.4.7 5.2C41 55.3 32.3 64 21.5 64S2 55.3 2 44.5 10.7 25 21.5 25c1.8 0 3.5.2 5.2.7z" opacity=".5" fill="#e0e4eb"/><path d="M45.3 1C34.4 1 25.6 9.8 25.6 20.7c0 1.5.2 3 .5 4.4-1.4-.3-2.9-.5-4.4-.5-8.9 0-16.7 6-19 14.5-.1.5.2 1 .7 1.2.5.1 1-.2 1.2-.7 2.1-7.7 9.2-13.1 17.2-13.1 1.8 0 3.5.3 5.1.7 2 5.6 6.4 10 12 11.9.5 1.6.7 3.3.7 5.1 0 9.8-8 17.8-17.8 17.8-4.4 0-8.7-1.6-12-4.6-3.3-3-5.3-7-5.7-11.3-.1-.5-.5-.9-1.1-.9-.7.1-1 .6-1 1.1.5 4.8 2.8 9.3 6.4 12.6C12 62.2 16.7 64 21.6 64c10.9 0 19.7-8.8 19.7-19.7 0-1.5-.2-3-.5-4.4 1.4.3 2.9.5 4.4.5 5.6 0 10.9-2.4 14.6-6.5.4-.4.3-1-.1-1.4-.4-.4-1-.3-1.4.1-3.4 3.7-8.2 5.9-13.2 5.9-9.8 0-17.8-8-17.8-17.8s8-17.8 17.8-17.8 17.8 8 17.8 17.8c0 2.1-.4 4.2-1.1 6.1-.2.5.1 1.1.6 1.2.5.2 1.1-.1 1.2-.6.8-2.2 1.2-4.5 1.2-6.8C65 9.8 56.2 1 45.3 1z" fill="#6f86a2"/><path d="M48.8 22.5c-.8 0-1.2.2-1.2.8 0 1.4-.8 2.6-2.6 2.6-2 0-2.7-1.5-2.7-2.7v-.7H45c.4 0 .8-.4.8-.9s-.4-.9-.8-.9h-2.7v-1.8H45c.4 0 .8-.4.8-.9s-.3-1-.7-1h-2.7v-.9c0-2 1-3 2.7-3 1.9 0 2.6 1.3 2.6 2.5 0 .5.4.8 1.2.8.8 0 1.2-.2 1.2-1.1 0-2.6-2.1-4.3-5.1-4.3-2.8 0-5 1.4-5 5.1v.9h-1.2c-.4 0-.8.4-.8.9s.3.9.8.9H40v1.8h-1.2c-.4 0-.8.4-.8.9s.3.9.8.9H40v.7c0 3.1 1.9 4.9 5 4.9 3 0 5.1-1.7 5.1-4.4-.1-.9-.5-1.1-1.3-1.1zM66 46.1l-2-6.4c-.1-.3-.3-.5-.6-.6-.3-.1-.6 0-.9.2l-5.2 4.4c-.4.3-.5.9-.1 1.3.3.4.9.5 1.3.1l2.7-2.3c-.8 3.3-2.3 6.4-4.2 9.1-2.5 3.5-5.6 6.2-9.4 8.2-1.6.8-3.2 1.5-4.9 2-.5.1-.8.7-.6 1.2.1.4.5.7.9.7h.3c1.8-.5 3.6-1.3 5.3-2.1 4.1-2.1 7.4-5.1 10.1-8.8 2.1-3 3.7-6.3 4.5-9.9l1 3.4c.1.4.5.7.9.7h.3c.4-.2.7-.7.6-1.2zM24 .7c-.1-.5-.7-.8-1.2-.6-1.8.5-3.6 1.3-5.3 2.1-4.1 2.1-7.4 5.1-10.1 8.8-2.1 3-3.7 6.3-4.5 9.9l-1-3.4c-.2-.5-.7-.8-1.2-.6-.5.2-.8.7-.6 1.2L2 24.3c.1.3.3.5.6.6h.3c.2 0 .4-.1.6-.2l5.2-4.4c.4-.3.4-.9.1-1.3s-.9-.5-1.3-.1l-2.7 2.3c.8-3.3 2.2-6.4 4.2-9.1 2.5-3.5 5.6-6.2 9.4-8.2 1.6-.8 3.2-1.5 4.9-2 .5-.2.8-.7.7-1.2zM22.5 42v-4.7c1.7.1 2.4.9 2.9.9.7 0 1.1-.9 1.1-1.3 0-1.1-2.4-1.6-4-1.7v-.6c0-.3-.4-.5-.7-.5-.4 0-.7.3-.7.5v.7c-2.3.2-4.7 1.4-4.7 4.3 0 3 2.4 3.8 4.7 4.5v5.4c-2.5-.2-3.2-1.8-4-1.8-.6 0-1.1.8-1.1 1.3 0 1.1 2.1 2.7 5.1 2.7v.7c0 .3.3.5.7.5.4 0 .7-.3.7-.5v-.8c2.6-.3 4.5-1.9 4.5-4.8 0-3-2.3-4.1-4.5-4.8zm-1.3-.4c-1.3-.5-2.4-.9-2.4-2.3 0-1.2 1-1.8 2.4-1.9v4.2zm1.2 7.9v-4.9c1.2.5 2.2 1.1 2.2 2.6 0 1.3-.9 2-2.2 2.3z" fill="#ef3124"/></svg>