<svg xmlns="http://www.w3.org/2000/svg" xmlns:xlink="http://www.w3.org/1999/xlink" width="20px" height="20px" viewBox="0 0 20 20">
    <g fill="none" stroke="#B5BBC2">
        <circle cx="10" cy="10" r="9" stroke-width="2"/>
        <path fill="#B5BBC2" stroke-linejoin="round" d="M11.8077336,12.3808237 C11.8077336,11.9855478 11.6691743,11.6525759 11.3920516,11.3818978 C11.1149288,11.1112198 10.6476939,10.8663243 9.99033298,10.6472039 C9.07518339,10.3679329 8.40816536,10.003812 7.98925886,9.55483016 C7.57035236,9.10584832 7.36090226,8.53549956 7.36090226,7.84376678 C7.36090226,7.13914457 7.56605595,6.56127709 7.9763695,6.11014702 C8.38668304,5.65901694 8.95058718,5.39049117 9.66809882,5.30456163 L9.66809882,3.89317602 L10.6283566,3.89317602 L10.6283566,5.31100631 C11.3501647,5.40982528 11.9119207,5.71272236 12.3136412,6.21970663 C12.7153618,6.72669091 12.9162191,7.42056152 12.9162191,8.30133929 L11.7303974,8.30133929 C11.7303974,7.69553604 11.5864676,7.21433785 11.2986037,6.85773026 C11.0107397,6.50112268 10.6219144,6.32282156 10.132116,6.32282156 C9.62083525,6.32282156 9.22986172,6.45493625 8.95918367,6.71916958 C8.68850563,6.98340291 8.55316864,7.35182027 8.55316864,7.82443273 C8.55316864,8.26267338 8.69602435,8.61175689 8.98174006,8.87169374 C9.26745578,9.1316306 9.73791294,9.36793328 10.3931257,9.58060889 C11.0483384,9.7932845 11.5596115,10.027439 11.9269603,10.2830794 C12.294309,10.5387197 12.564983,10.8362463 12.7389903,11.175668 C12.9129976,11.5150896 13,11.9125078 13,12.3679343 C13,13.0940389 12.7819571,13.678351 12.3458647,14.1208882 C11.9097723,14.5634253 11.2986076,14.8255064 10.5123523,14.9071395 L10.5123523,16.138074 L9.55853921,16.138074 L9.55853921,14.9071395 C8.7593945,14.8340994 8.13319238,14.5494621 7.67991407,14.053219 C7.22663576,13.5569759 7,12.8835132 7,12.0328108 L8.19226638,12.0328108 C8.19226638,12.6300211 8.34908544,13.0897372 8.66272825,13.411973 C8.97637106,13.7342088 9.42104975,13.8953242 9.99677766,13.8953242 C10.5596161,13.8953242 11.0021466,13.7599873 11.3243824,13.4893092 C11.6466182,13.2186312 11.8077336,12.8491397 11.8077336,12.3808237 Z"/>
    </g>
</svg>
