<svg width="20" height="20" viewBox="0 0 20 20" xmlns="http://www.w3.org/2000/svg">
  <g fill="#B5BBC2" fill-rule="nonzero">
    <path d="M14.9439 9.11625c-.10125-.22375-.32375-.36625-.56876-.36625h-2.50001V.625c0-.345-.28-.625-.625-.625H8.7501c-.345 0-.625.28-.625.625V8.75H5.62508c-.245 0-.4675.14375-.56875.36625-.1025.22375-.0625.485.09875.67l4.37503 5a.62288.62288 0 0 0 .47.21375c.18 0 .35126-.07875.47-.21375l4.37504-5c.1625-.18375.2-.44625.09875-.67z"/>
    <path d="M17.25 13.75v3.75H2.5v-3.75H0v5C0 19.44125.56 20 1.25 20H18.5c.69125 0 1.25-.55875 1.25-1.25v-5h-2.5z"/>
  </g>
</svg>
