<svg xmlns="http://www.w3.org/2000/svg" xmlns:xlink="http://www.w3.org/1999/xlink" width="18px" height="21px" version="1.1" viewBox="0 0 18 21">
    <g stroke="#6D7986" style="fill: none;">
        <path id="Oval-6" d="M10.5,19.7928932 L10.5,17.3777289 L10.8893567,17.2893792 C14.7287868,16.4181663 17.5,12.9898421 17.5,9 C17.5,4.30557963 13.6944204,0.5 9,0.5 C4.30557963,0.5 0.5,4.30557963 0.5,9 C0.5,13.320943 3.74137771,16.9412318 7.99637493,17.4414196 L8.16879492,17.4616881 L10.5,19.7928932 Z"/>
        <path id="Oval-16" stroke-linecap="round" stroke-linejoin="round" d="M8.91623506,11.4371881 L8.91623506,10.0354977 C10.3056976,10.0354977 11.4320795,8.90826316 11.4320795,7.51774886 C11.4320795,6.12723456 10.3056976,5 8.91623506,5 C7.52677255,5 6.40039062,6.12723456 6.40039062,7.51774886"/>
        <path id="Path-34" stroke-linecap="round" d="M8.8,13 L8.8,13.55"/>
    </g>
</svg>
