<svg xmlns="http://www.w3.org/2000/svg" width="66" height="48" viewBox="0 0 66 48">
  <g fill="none" fill-rule="evenodd">
    <path d="M0 0h66v66H0z"/>
    <path fill="#EDEFF3" d="M25.4204 40.5098C34.3391 38.4978 41 30.5268 41 21c0-2.0783-.317-4.0825-.9053-5.967h10.3119C50.7958 16.9616 51 18.957 51 21c0 9.2372-4.1748 17.4994-10.7406 23.0026-4.2594 0-1.8988.9806-9.23.9806-1.0205 0-2.9227-1.925-4.0298-4.7864a41.4337 41.4337 0 0 1-1.5792.313z"/>
    <path stroke="#E30000" stroke-linecap="round" stroke-linejoin="round" stroke-width="2" d="M39 31.1154l4.1236 4.1454L53.6328 25"/>
    <path stroke="#6F86A2" stroke-linecap="round" stroke-linejoin="round" stroke-width="2" d="M19.9741 40.9741C9.4051 40.4401 1 31.7016 1 21 1 9.9543 9.9543 1 21 1s20 8.9543 20 20c0 10.3707-7.8934 18.8978-18 19.9012V44l-3.0259-3.0259z"/>
    <path stroke="#E30000" stroke-linecap="round" stroke-linejoin="round" stroke-width="2" d="M20 26.3403V23c3.3137 0 6-2.6863 6-6s-2.6863-6-6-6-6 2.6863-6 6"/>
    <path stroke="#6F86A2" stroke-linejoin="round" stroke-width="2" d="M39.9549 15H60c2.7614 0 5 2.2386 5 5v19c0 2.7614-2.2386 5-5 5H44v3l-3-3h-9c-2.3951 0-4.397-1.6841-4.8858-3.9328"/>
    <path stroke="#E30000" stroke-linecap="round" stroke-width="2" d="M19.9975 30v1"/>
  </g>
</svg>
