<svg xmlns="http://www.w3.org/2000/svg" xmlns:xlink="http://www.w3.org/1999/xlink" width="20px" height="20px" viewBox="0 0 20 20">
    <g fill="none" stroke="#B5BBC2" stroke-width="2" transform="translate(-161.000000, -569.000000)">
        <path d="M173.410141,572.227322 L174.091177,572.512017 C174.135835,572.528764 174.180493,572.537138 174.22236,572.534346 C174.261436,572.534346 174.303303,572.523182 174.34517,572.500853 L175.790975,571.755621 C175.927741,571.685843 176.078462,571.660723 176.220809,571.683052 C176.363157,571.708172 176.499922,571.775159 176.608777,571.884013 L176.611568,571.884013 L178.115987,573.388432 C178.224841,573.497286 178.291828,573.634052 178.314157,573.779191 C178.336486,573.921538 178.314157,574.072259 178.244379,574.209025 L177.499147,575.652039 C177.476818,575.693906 177.465654,575.735773 177.462862,575.77764 C177.460071,575.819507 177.471236,575.864165 177.487983,575.908823 L177.775469,576.601023 C177.792216,576.64289 177.817336,576.679175 177.848038,576.707086 C177.878741,576.737789 177.917817,576.760118 177.962475,576.774073 L179.508761,577.265312 C179.656691,577.312762 179.779501,577.404869 179.863235,577.519305 L179.866026,577.519305 C179.94976,577.639324 180,577.781672 180,577.937975 L180,580.059234 C180,580.215537 179.94976,580.357885 179.866026,580.477904 C179.779501,580.595131 179.656691,580.684447 179.508761,580.731896 L177.962475,581.223135 C177.917817,581.239882 177.878741,581.262211 177.848038,581.290122 C177.817336,581.318034 177.792216,581.354318 177.775469,581.398977 L177.769887,581.40735 L177.487983,582.091177 C177.471236,582.133044 177.460071,582.177702 177.462862,582.219569 C177.465654,582.261436 177.476818,582.303303 177.499147,582.34517 L178.244379,583.788184 C178.314157,583.927741 178.336486,584.075671 178.314157,584.220809 C178.291828,584.363157 178.224841,584.499922 178.115987,584.608777 L176.611568,586.115987 C176.502714,586.224841 176.365948,586.291828 176.220809,586.314157 C176.078462,586.336486 175.927741,586.314157 175.790975,586.241588 L174.34517,585.496356 C174.303303,585.476818 174.261436,585.462862 174.22236,585.462862 C174.177702,585.460071 174.135835,585.468445 174.091177,585.485192 L173.398977,585.772678 C173.35711,585.792216 173.320825,585.817336 173.290122,585.848038 C173.262211,585.878741 173.239882,585.917817 173.225927,585.959684 L172.731896,587.50597 L172.731896,587.508761 C172.684447,587.6539 172.595131,587.77671 172.477904,587.863235 C172.360676,587.94976 172.215537,587.997209 172.062025,587.997209 L169.937975,587.997209 C169.784463,587.997209 169.639324,587.94976 169.522096,587.863235 C169.404869,587.77671 169.315553,587.6539 169.268104,587.508761 L169.265312,587.497597 L168.774073,585.959684 C168.760118,585.915026 168.737789,585.878741 168.709878,585.848038 C168.681966,585.817336 168.645682,585.792216 168.601023,585.772678 L168.59265,585.769887 L167.908823,585.485192 C167.866956,585.468445 167.822298,585.460071 167.780431,585.462862 C167.738564,585.462862 167.696697,585.476818 167.65483,585.496356 L166.209025,586.241588 C166.072259,586.314157 165.921538,586.336486 165.779191,586.314157 C165.634052,586.291828 165.497286,586.224841 165.388432,586.115987 L163.884013,584.608777 L163.872849,584.597612 C163.769577,584.488758 163.708172,584.357575 163.685843,584.220809 C163.663514,584.075671 163.685843,583.927741 163.755621,583.788184 L164.503644,582.34517 C164.523182,582.303303 164.534346,582.261436 164.537138,582.219569 C164.539929,582.177702 164.531555,582.133044 164.512017,582.091177 L164.224531,581.396185 C164.207784,581.354318 164.182664,581.318034 164.151962,581.290122 C164.121259,581.262211 164.082183,581.239882 164.037525,581.223135 L162.491239,580.731896 C162.343309,580.684447 162.220499,580.595131 162.136765,580.477904 L162.125601,580.461157 C162.047449,580.34672 162,580.209955 162,580.059234 L162,577.937975 C162,577.784463 162.05024,577.639324 162.136765,577.522096 L162.136765,577.519305 C162.220499,577.404869 162.343309,577.315553 162.491239,577.265312 L164.037525,576.774073 L164.037525,576.771282 C164.082183,576.760118 164.121259,576.734998 164.151962,576.707086 C164.182664,576.679175 164.207784,576.64289 164.224531,576.601023 L164.512017,575.908823 C164.531555,575.864165 164.539929,575.819507 164.537138,575.77764 C164.534346,575.735773 164.523182,575.693906 164.503644,575.652039 L163.755621,574.209025 C163.685843,574.072259 163.663514,573.921538 163.685843,573.779191 C163.708172,573.634052 163.775159,573.497286 163.884013,573.388432 L165.388432,571.884013 C165.497286,571.775159 165.634052,571.708172 165.779191,571.683052 C165.921538,571.660723 166.072259,571.685843 166.209025,571.755621 L167.65483,572.500853 C167.696697,572.523182 167.738564,572.534346 167.780431,572.534346 C167.822298,572.537138 167.864165,572.528764 167.908823,572.512017 L168.601023,572.224531 L168.609397,572.22174 C168.648473,572.202202 168.681966,572.179873 168.709878,572.151962 C168.737789,572.118468 168.760118,572.082183 168.774073,572.037525 L168.776865,572.029152 L169.268104,570.491239 L169.268104,570.488448 C169.315553,570.343309 169.404869,570.220499 169.522096,570.133974 C169.639324,570.047449 169.784463,570 169.937975,570 L172.062025,570 C172.215537,570 172.360676,570.047449 172.477904,570.133974 C172.595131,570.220499 172.684447,570.343309 172.731896,570.488448 L172.734688,570.499612 L173.225927,572.037525 C173.239882,572.082183 173.262211,572.118468 173.290122,572.151962 C173.320825,572.179873 173.35711,572.204993 173.398977,572.224531 L173.410141,572.227322 Z M171.001739,576.494838 C170.309726,576.494838 169.683784,576.773035 169.228238,577.228581 C168.776169,577.68065 168.494495,578.310069 168.494495,578.998604 C168.494495,579.690618 168.776169,580.316559 169.228238,580.768628 C169.683784,581.224174 170.309726,581.50237 171.001739,581.50237 C171.683319,581.50237 172.302306,581.227652 172.757852,580.782538 L172.771762,580.768628 C173.223831,580.316559 173.505505,579.690618 173.505505,578.998604 C173.505505,578.306591 173.223831,577.68065 172.771762,577.228581 C172.319693,576.773035 171.690274,576.494838 171.001739,576.494838 Z"/>
    </g>
</svg>
