<svg xmlns="http://www.w3.org/2000/svg" width="18" height="20" viewBox="0 0 18 20">
  <g>
    <path d="M-20-18h56v56h-56z"/>
    <path class="fill" d="M.0836 1C.0339 1.1668 0 1.3467 0 1.5522v16.9025c0 .2024.034.3804.0816.5453L10 10.0126.0836 1zM13 6.379L2.2113.28C1.7812.014 1.3577-.0533 1 .0394L10.2793 9 13 6.379zm4.1295 2.3223L14.1015 7 11 9.967 14.1591 13l2.9461-1.634c1.4382-.8278.9136-2.1601.0243-2.6647zM1 19.9528c.3614.1034.793.0415 1.232-.2314L13 13.6774 10.2437 11 1 19.9528z" opacity=".8"/>
  </g>
</svg>
