<svg width="201px" height="209px" viewBox="0 0 201 209" version="1.1" xmlns="http://www.w3.org/2000/svg" xmlns:xlink="http://www.w3.org/1999/xlink">
    <defs>
        <rect id="path-1" x="77" y="91" width="49" height="22" rx="11"></rect>
    </defs>
    <g id="3_" stroke="none" stroke-width="1" fill="none" fill-rule="evenodd">
        <g id="AF-internet-trading" transform="translate(-163.000000, -1399.000000)">
            <g id="Group-4" transform="translate(164.000000, 1400.000000)">
                <circle id="Oval-17" stroke="#6F86A2" stroke-width="2" fill-opacity="0.5" fill="#E0E4EB" cx="101" cy="43" r="43"></circle>
                <circle id="Oval-17-Copy-10" stroke="#6F86A2" stroke-width="2" fill-opacity="0.5" fill="#E0E4EB" cx="101" cy="164" r="43"></circle>
                <circle id="Oval-17-Copy-3" stroke="#6F86A2" stroke-width="2" fill="#F9F9FB" cx="101" cy="43" r="38"></circle>
                <circle id="Oval-17-Copy-11" stroke="#6F86A2" stroke-width="2" fill="#F9F9FB" cx="101" cy="164" r="38"></circle>
                <path d="M105,40.000067 L97,40.000067 C94.794041,40.000067 92.9998828,38.2061507 92.9998828,35.9999665 C92.9998828,33.7940167 94.7938066,31.9998661 97,31.9998661 L109.000117,31.9998661 C110.104034,31.9998661 111.000059,31.1059548 111.000059,29.999933 C111.000059,28.8939112 110.104034,28 109.000117,28 L97,28 C92.5878475,28 89,31.5880669 89,35.9999665 C89,40.4121005 92.5880819,43.999933 97,43.999933 L105,43.999933 C107.205959,43.999933 109.000117,45.7938493 109.000117,48.0000335 C109.000117,50.2059833 107.206193,52.0001339 105,52.0001339 L92.9998828,52.0001339 C91.8959658,52.0001339 90.9999414,52.8940452 90.9999414,54.000067 C90.9999414,55.1060888 91.8959658,56 92.9998828,56 L105,56 C109.412152,56 113,52.4119331 113,48.0000335 C113,43.5878995 109.411918,40.000067 105,40.000067 Z" id="Shape" fill="#EF3124" fill-rule="nonzero"></path>
                <path d="M106.778795,149 L96.5479839,149 L96.5479839,152.999866 L106.778795,152.999866 C108.984754,152.999866 110.778912,154.793782 110.778912,156.999967 C110.778912,159.205916 108.984988,161.000067 106.778795,161.000067 L94.7786777,161.000067 C93.6747607,161.000067 92.7787363,161.893978 92.7787363,163 C92.7787363,164.106022 93.6747607,164.999933 94.7786777,164.999933 L106.778795,164.999933 C111.190947,164.999933 114.778795,161.411866 114.778795,156.999967 C114.778795,152.587833 111.190713,149 106.778795,149 Z" id="Shape-Copy" fill="#EF3124" fill-rule="nonzero" transform="translate(103.778766, 156.999967) scale(1, -1) translate(-103.778766, -156.999967) "></path>
                <path d="M101,24 C99.8960506,24 99,24.8939121 99,25.9999349 L99,58.0000651 C99,59.1060879 99.8960506,60 101,60 C102.103949,60 103,59.1060879 103,58.0000651 L103,25.9999349 C103,24.8939121 102.103949,24 101,24 Z" id="Shape" fill="#EF3124" fill-rule="nonzero"></path>
                <path d="M94.7787363,149 C93.6747869,149 92.7787363,149.893912 92.7787363,150.999935 L92.7787363,183.000065 C92.7787363,184.106088 93.6747869,185 94.7787363,185 C95.8826857,185 96.7787363,184.106088 96.7787363,183.000065 L96.7787363,150.999935 C96.7787363,149.893912 95.8826857,149 94.7787363,149 Z" id="Shape-Copy-2" fill="#EF3124" fill-rule="nonzero"></path>
                <path d="M93.2212051,157.557531 C92.1172557,157.557531 91.2212051,158.451443 91.2212051,159.557466 L91.2212051,166.442534 C91.2212051,167.548557 92.1172557,168.442469 93.2212051,168.442469 C94.3251545,168.442469 95.2212051,167.548557 95.2212051,166.442534 L95.2212051,159.557466 C95.2212051,158.451443 94.3251545,157.557531 93.2212051,157.557531 Z" id="Shape" fill="#EF3124" fill-rule="nonzero" transform="translate(93.221205, 163.000000) rotate(90.000000) translate(-93.221205, -163.000000) "></path>
                <path d="M96.8212966,162.95744 C95.7173472,162.95744 94.8212966,163.851352 94.8212966,164.957375 L94.8212966,179.042625 C94.8212966,180.148648 95.7173472,181.04256 96.8212966,181.04256 C97.9252459,181.04256 98.8212966,180.148648 98.8212966,179.042625 L98.8212966,164.957375 C98.8212966,163.851352 97.9252459,162.95744 96.8212966,162.95744 Z" id="Shape-Copy-5" fill="#EF3124" fill-rule="nonzero" transform="translate(96.821297, 172.000000) rotate(90.000000) translate(-96.821297, -172.000000) "></path>
                <circle id="Oval-17-Copy" stroke="#6F86A2" stroke-width="2" cx="74.5" cy="43.5" r="3.5"></circle>
                <circle id="Oval-17-Copy-12" stroke="#6F86A2" stroke-width="2" cx="74.5" cy="164.5" r="3.5"></circle>
                <circle id="Oval-17-Copy-4" stroke="#EF3124" stroke-width="2" cx="3.5" cy="43.5" r="3.5"></circle>
                <circle id="Oval-17-Copy-7" stroke="#EF3124" stroke-width="2" cx="168.5" cy="164.5" r="3.5"></circle>
                <circle id="Oval-17-Copy-5" stroke="#EF3124" stroke-width="2" cx="17.5" cy="43.5" r="3.5"></circle>
                <circle id="Oval-17-Copy-8" stroke="#EF3124" stroke-width="2" cx="182.5" cy="164.5" r="3.5"></circle>
                <circle id="Oval-17-Copy-6" stroke="#EF3124" stroke-width="2" cx="30.5" cy="43.5" r="3.5"></circle>
                <circle id="Oval-17-Copy-9" stroke="#EF3124" stroke-width="2" cx="195.5" cy="164.5" r="3.5"></circle>
                <circle id="Oval-17-Copy-2" stroke="#6F86A2" stroke-width="2" cx="128.5" cy="43.5" r="3.5"></circle>
                <circle id="Oval-17-Copy-13" stroke="#6F86A2" stroke-width="2" cx="128.5" cy="164.5" r="3.5"></circle>
                <path d="M144.292272,41.8598299 L151.363785,41.8598299 L168.759788,41.8598299 C185.409442,41.8598299 198.906653,55.3570408 198.906653,72.0066944 L198.906653,72.0066944 C198.906653,88.6563479 185.409442,102.153559 168.759788,102.153559 L31.13035,102.153559 C14.1002716,102.153559 0.294665375,115.959165 0.294665375,132.989244 L0.294665375,132.989244 C0.294665375,150.019322 14.1002716,163.824928 31.13035,163.824928 L57.4113469,163.824928" id="Path-25" stroke="#6F86A2" stroke-width="2"></path>
                <g id="Rectangle-24">
                    <use fill="#FFFFFF" fill-rule="evenodd" xlink:href="#path-1"></use>
                    <rect stroke="#6F86A2" stroke-width="2" x="78" y="92" width="47" height="20" rx="10"></rect>
                </g>
                <text id="86-₽" font-family="Roboto-Medium, Roboto" font-size="12" font-weight="400" line-spacing="16" fill="#EF3124">
                    <tspan x="89" y="105">86 ₽</tspan>
                </text>
            </g>
        </g>
    </g>
</svg>
