<svg xmlns="http://www.w3.org/2000/svg" width="65" height="52"><g fill="none" fill-rule="evenodd" transform="translate(0 -7)"><path d="M0 0h65v65H0z"/><path stroke="#FFF" stroke-width="2" d="M23.7578 57.1212l-.1214-.5139h1v.514h-.8786zm4.2264-1h27.1522v-5.909h7.8788v-11.788h-6.894v-5.9394h5.9091V20.697h-12.803v-5.9394h4.9242V8.8788h-30.5v5.909h-4.9242v2.9299c.1588-.0037.318-.0056.4772-.0056 11.1587 0 20.2046 9.0459 20.2046 20.2046 0 7.9167-4.59 14.9072-11.425 18.2045z"/><path stroke="#FFF" d="M30.0379 11.8182v1.9697M35.947 11.8182v1.9697M41.856 11.8182v1.9697M47.7652 11.8182v1.9697M31.0227 17.7273v1.9697M36.9318 17.7273v1.9697M42.841 17.7273v1.9697M37.9167 23.6364v1.9697M43.8258 23.6364v1.9697M49.7348 23.6364v1.9697M55.644 23.6364v1.9697M43.8258 29.5455v1.9697M49.7348 29.5455v1.9697M55.644 29.5455v1.9697M43.8258 35.4545v1.9697M49.7348 35.4545v1.9697M44.8106 41.3636v1.9697M50.7197 41.3636v1.9697M56.6288 41.3636v1.9697M38.9015 47.2727v1.9697M44.8106 47.2727v1.9697M50.7197 47.2727v1.9697M56.6288 47.2727v1.9697M36.9318 53.1818v1.9697M42.841 53.1818v1.9697M48.75 53.1818v1.9697"/><circle cx="20.1894" cy="37.9167" r="19.2045" stroke="#FFF" stroke-width="2"/><circle cx="20.1894" cy="37.9167" r="14.2803" stroke="#FFF"/><path stroke="#FFF" stroke-width="2" d="M23.6364 14.7727H54.164M29.5455 20.6818H54.164M36.4394 26.591h24.6212M38.3902 32.5h16.7613M39.3743 38.409h24.655M38.409 44.3182h25.6062M35.4545 50.2273H60.094"/><path fill="#EF3124" fill-rule="nonzero" d="M23.55 40.4924c-.7275 0-1.0712.1804-1.0712.6615-.0202 1.2027-.687 2.265-2.3647 2.265-1.8392 0-2.4253-1.2828-2.4253-2.3853v-.5811h2.4658c.3638 0 .7276-.3208.7276-.7617 0-.441-.3638-.7817-.7276-.7817h-2.4658v-1.6036h2.4657c.3638 0 .7276-.3207.7276-.7618 0-.441-.3638-.7817-.7276-.7817h-2.4658v-.7617c0-1.764.8691-2.5858 2.4051-2.5858 1.7383 0 2.385 1.1024 2.385 2.1448 0 .461.3235.6615 1.0712.6615.7277 0 1.0712-.2005 1.0712-.9823 0-2.265-1.9-3.7082-4.588-3.7082-2.5063 0-4.487 1.2227-4.487 4.47v.7616H14.475c-.4042 0-.6871.3407-.6871.8017 0 .441.283.7417.6871.7417h1.0712v1.6035H14.475c-.4042 0-.6871.3409-.6871.8019 0 .4409.283.7415.6871.7415h1.0712v.5813c0 2.686 1.6978 4.2695 4.487 4.2695 2.6882 0 4.588-1.5033 4.588-3.8084 0-.8017-.3233-1.0022-1.0712-1.0022z"/></g></svg>