<svg width="201" height="209" xmlns="http://www.w3.org/2000/svg" xmlns:xlink="http://www.w3.org/1999/xlink"><defs><rect id="a" x="77" y="91" width="49" height="22" rx="11"/></defs><g transform="translate(1 1)" fill="none" fill-rule="evenodd"><circle stroke="#6F86A2" stroke-width="2" fill-opacity=".5" fill="#E0E4EB" cx="101" cy="43" r="43"/><circle stroke="#6F86A2" stroke-width="2" fill-opacity=".5" fill="#E0E4EB" cx="101" cy="164" r="43"/><circle stroke="#6F86A2" stroke-width="2" fill="#F9F9FB" cx="101" cy="43" r="38"/><circle stroke="#6F86A2" stroke-width="2" fill="#F9F9FB" cx="101" cy="164" r="38"/><path d="M105 40h-8c-2.206 0-4.0001-1.7938-4.0001-4 0-2.206 1.794-4.0001 4.0001-4.0001h12.0001c1.104 0 2-.894 2-2 0-1.106-.896-1.9999-2-1.9999H97c-4.4122 0-8 3.588-8 8 0 4.4121 3.588 8 8 8h8c2.206 0 4.0001 1.7938 4.0001 4 0 2.206-1.794 4.0001-4.0001 4.0001H92.9999c-1.104 0-2 .894-2 2C91 55.106 91.896 56 93 56H105c4.4122 0 8-3.588 8-8 0-4.4121-3.588-8-8-8zM106.7788 165H96.548v-4h10.2308c2.206 0 4.0001-1.7938 4.0001-4 0-2.206-1.794-4.0001-4.0001-4.0001H94.7787c-1.104 0-2-.894-2-2 0-1.106.896-1.9999 2-1.9999h12.0001c4.4121 0 8 3.588 8 8 0 4.4121-3.588 8-8 8z" fill="#EF3124" fill-rule="nonzero"/><path d="M101 24c-1.104 0-2 .894-2 2v32c0 1.106.896 2 2 2s2-.894 2-2V26c0-1.106-.896-2-2-2zM94.7787 149c-1.104 0-2 .894-2 2v32c0 1.106.896 2 2 2s2-.894 2-2v-32c0-1.106-.896-2-2-2z" fill="#EF3124" fill-rule="nonzero"/><path d="M98.6637 163c0-1.104-.894-2-2-2h-6.885c-1.106 0-2 .896-2 2s.894 2 2 2h6.885c1.106 0 2-.896 2-2zM105.8639 172c0-1.104-.894-2-2-2H89.7787c-1.106 0-2 .896-2 2s.894 2 2 2h14.0852c1.106 0 2-.896 2-2z" fill="#EF3124" fill-rule="nonzero"/><circle stroke="#6F86A2" stroke-width="2" cx="74.5" cy="43.5" r="3.5"/><circle stroke="#6F86A2" stroke-width="2" cx="74.5" cy="164.5" r="3.5"/><circle stroke="#EF3124" stroke-width="2" cx="3.5" cy="43.5" r="3.5"/><circle stroke="#EF3124" stroke-width="2" cx="168.5" cy="164.5" r="3.5"/><circle stroke="#EF3124" stroke-width="2" cx="17.5" cy="43.5" r="3.5"/><circle stroke="#EF3124" stroke-width="2" cx="182.5" cy="164.5" r="3.5"/><circle stroke="#EF3124" stroke-width="2" cx="30.5" cy="43.5" r="3.5"/><circle stroke="#EF3124" stroke-width="2" cx="195.5" cy="164.5" r="3.5"/><circle stroke="#6F86A2" stroke-width="2" cx="128.5" cy="43.5" r="3.5"/><circle stroke="#6F86A2" stroke-width="2" cx="128.5" cy="164.5" r="3.5"/><path d="M144.2923 41.8598h24.4675c16.6496 0 30.1469 13.4972 30.1469 30.1469 0 16.6496-13.4973 30.1469-30.147 30.1469H31.1304c-17.03 0-30.8356 13.8056-30.8356 30.8356 0 17.0301 13.8056 30.8357 30.8356 30.8357h26.281" stroke="#6F86A2" stroke-width="2"/><rect stroke="#6F86A2" fill="#fff" stroke-width="2" x="78" y="92" width="47" height="20" rx="10"/><text font-family="Roboto-Medium, Roboto" font-size="12" font-weight="400" fill="#EF3124"><tspan x="89" y="105">86 ₽</tspan></text></g></svg>
