<svg width="19px" height="18px" viewBox="0 0 18 18" version="1.1" xmlns="http://www.w3.org/2000/svg" xmlns:xlink="http://www.w3.org/1999/xlink">
    <g id="5_other" stroke="none" stroke-width="1" fill="none" fill-rule="evenodd">
        <g id="AF-list" transform="translate(-449.000000, -724.000000)" fill="#6D7986">
            <g id="bage-copy-6" transform="translate(449.000000, 723.000000)">
                <path d="M4,19 L2,19 C0.8954305,19 1.11632554e-15,18.1045695 0,17 L0,6 C-6.76353751e-17,5.44771525 0.44771525,5 1,5 L3,5 L3,2 C3,1.44771525 3.44771525,1 4,1 L17,1 C17.5522847,1 18,1.44771525 18,2 L18,17 C18,18.1045695 17.1045695,19 16,19 L4,19 Z M2,18 C2.63267772,18 3.00003967,17.481686 3,16.8446275 L3,6 L1,6 L1,16.8446275 C1,17.481726 1.36732228,18 2,18 Z M4,2 L4,17.0319279 C4.01400439,17.6988261 3.87653491,18.0215168 3.58759157,18 C7.72506105,18 11.8625305,18 16,18 C16.5522847,18 17,17.5522847 17,17 L17,2 L4,2 Z M6,4 L15,4 L15,9 L6,9 L6,4 Z M7,5 L7,8 L14,8 L14,5 L7,5 Z M6,11 L15,11 L15,12 L6,12 L6,11 Z M6,14 L11,14 L11,15 L6,15 L6,14 Z" id="news-bage-grey-icon-copy-4"></path>
            </g>
        </g>
    </g>
</svg>
