<svg width="22" height="22" viewBox="0 0 22 22" xmlns="http://www.w3.org/2000/svg">
  <path d="M9.39665 5.31455c.17085 0 .17085 0 0 0 .17085-.6834.3417-1.02509.3417-1.53764v-.3417c.17085-.85423.17085-1.53763 0-1.70847v-.17085l-.17085-.17085s0 .17085-.17085.17085c-.3417 1.02509-.3417 2.22102 0 3.75866zM4.27121 17.10308c-.3417.17085-.6834.3417-.85424.51254-1.19594 1.0251-2.05018 2.22097-2.22103 2.73358 1.02509-.17085 2.05018-1.19594 3.07527-3.24612.17084 0 .17084 0 0 0 .17084 0 0 0 0 0zm15.71804-2.56272c-.17085-.17085-.85424-.6834-3.24612-.6834h-.3417v.17085c1.19594.51255 2.39188.85424 3.24612.85424H20.1601v-.17085s-.17085 0-.17085-.17084zm.68339 1.36678c-.34176.17085-.85424.3417-1.53763.3417-1.36679 0-3.41697-.3417-5.12545-1.19594-2.90442.3417-5.12545.68333-6.83393 1.36672-.17085 0-.17085 0-.3417.17085-2.05018 3.58788-3.75866 5.29636-5.12545 5.29636-.3417 0-.51254 0-.68339-.17091l-.85424-.51248v-.17085C0 20.69083 0 20.52005 0 20.17835c.17085-.85424 1.19594-2.39188 3.24612-3.58788.3417-.17085.85424-.51248 1.53763-.85424.51255-.85424 1.0251-1.87933 1.70848-3.0752.85425-1.70849 1.36679-3.41697 1.87934-4.9546-.6834-2.05018-1.0251-3.24612-.3417-5.638.17085-.6834.6834-1.36678 1.36678-1.36678h.3417c.3417 0 .6834.17084 1.0251.3417 1.196 1.19593.68338 3.9295 0 6.15053v.17085c.68338 1.87933 1.70847 3.41696 2.73356 4.44205.51255.3417.85424.6834 1.53764 1.0251.85424 0 1.53763-.17086 2.22103-.17086 2.05017 0 3.41696.3417 3.92944 1.19594.17091.34177.17091.6834.17091 1.0251-.17084.17084-.3417.68339-.68339 1.02508zM9.5675 9.24406c-.3417 1.19594-1.02509 2.56272-1.70848 4.10036-.3417.68332-.6834 1.19594-1.02509 1.87933h.3417c2.22102-.85424 4.2712-1.36679 5.63799-1.53764-.34176-.17084-.51254-.3417-.6834-.51254-.85423-1.02509-1.87932-2.39188-2.56272-3.92951z" fill="#EF3124" fill-rule="nonzero"/>
</svg>
