<svg width="14px" height="14px" viewBox="0 0 14 14" version="1.1" xmlns="http://www.w3.org/2000/svg" xmlns:xlink="http://www.w3.org/1999/xlink">
  <g fill="#E30000">
    <path d="M7,8.41421356 L1.87347584,13.5407377 C1.55527778,13.8589358 1.20172439,13.9296465 0.98959236,13.7175144 L0.282485579,13.0104076 C0.0703535444,12.7982756 0.141064222,12.4447222 0.459262274,12.1265242 L5.58578644,7 L0.459262274,1.87347584 C0.141064222,1.55527778 0.0703535444,1.20172439 0.282485579,0.98959236 L0.98959236,0.282485579 C1.20172439,0.0703535444 1.55527778,0.141064222 1.87347584,0.459262274 L7,5.58578644 L12.1265242,0.459262274 C12.4447222,0.141064222 12.7982756,0.0703535444 13.0104076,0.282485579 L13.7175144,0.98959236 C13.9296465,1.20172439 13.8589358,1.55527778 13.5407377,1.87347584 L8.41421356,7 L13.5407377,12.1265242 C13.8589358,12.4447222 13.9296465,12.7982756 13.7175144,13.0104076 L13.0104076,13.7175144 C12.7982756,13.9296465 12.4447222,13.8589358 12.1265242,13.5407377 L7,8.41421356 Z"></path>
  </g>
</svg>
