<svg width="20px" height="20px" viewBox="0 0 20 20" version="1.1" xmlns="http://www.w3.org/2000/svg" xmlns:xlink="http://www.w3.org/1999/xlink">  
    <g stroke="none" stroke-width="1" fill-rule="evenodd">
        <g transform="translate(-764.000000, -549.000000)">
            <g transform="translate(200.000000, 493.000000)">
                <g transform="translate(561.000000, 54.000000)">
                    <path d="M20.984375,18.9859485 L20.984375,8.02576112 L5.015625,8.02576112 L5.015625,19.9859485 L19.984375,19.9859485 C20.5366597,19.9859485 20.984375,19.5382332 20.984375,18.9859485 Z M17.984375,2 L20,2 L20,4.01405152 L20.984375,4.01405152 C21.5468778,4.01405152 22.0234355,4.20140328 22.4140625,4.57611241 C22.8046895,4.95082155 23,5.43481358 23,6.02810304 L23,19.9859485 C23,20.5480122 22.8046895,21.0241979 22.4140625,21.4145199 C22.0234355,21.8048419 21.5468778,22 20.984375,22 L5.015625,22 C4.45312219,22 3.97656445,21.8048419 3.5859375,21.4145199 C3.19531055,21.0241979 3,20.5480122 3,19.9859485 L3,6.02810304 C3,5.43481358 3.18749813,4.95082155 3.5625,4.57611241 C3.93750187,4.20140328 4.42187203,4.01405152 5.015625,4.01405152 L6,4.01405152 L6,2 L8.015625,2 L8.015625,4.01405152 L17.984375,4.01405152 L17.984375,2 Z" fill="#B5BBC2"></path>
                    <rect fill="#B5BBC2" x="14" y="14" width="5" height="4"></rect>
                </g>
            </g>
        </g>
    </g>
</svg>