<svg width="20" height="20" viewBox="0 0 20 20" xmlns="http://www.w3.org/2000/svg">
  <path d="M19.22222 2.66745H14V.66754c0-.19866-.10267-.38665-.28156-.51332-.17733-.12666-.41533-.18132-.63933-.14132L.63467 2.0128C.266 2.07148 0 2.34614 0 2.66746v14.666c0 .31999.266.59598.63467.65464L13.0791 19.988a.85008.85008 0 0 0 .14311.012c.18045 0 .35622-.05333.49622-.15333.1789-.12666.28156-.31598.28156-.5133v-1.99992h5.22222c.42934 0 .77778-.29865.77778-.66663V3.33408c0-.36798-.34844-.66663-.77778-.66663zm-.87008 12.87101h-2.7077V14h2.7077v1.53846zm0-3h-2.7077V11h2.7077v1.53846zm0-3h-2.7077V8h2.7077v1.53846zm0-3h-2.7077V5h2.7077v1.53846zm-3.68547 9h-.97778V14h.97778v1.53846zm0-3h-.97778V11h.97778v1.53846zm0-3h-.97778V8h.97778v1.53846zm0-3h-.97778V5h.97778v1.53846zm-7.21081 7.25385l-1.18123-2.5377c-.04468-.09461-.09071-.26846-.13877-.52153h-.01828c-.02234.11923-.07514.30077-.1584.54384l-1.1853 2.51539H2.93334l2.18511-3.89539L3.1195 6.00077h1.87914l.98018 2.33615c.0765.18462.14486.40385.20578.65693h.01896c.03858-.15231.11034-.37847.21526-.67923L7.50866 6h1.72073L7.17358 9.86308l2.11335 3.92846-1.83107.00077z" fill="#107C10" fill-rule="nonzero"/>
</svg>
