<svg viewBox="0 0 19 17"
	xmlns="http://www.w3.org/2000/svg">
	<g fill="none" fill-rule="evenodd">
		<path d="M0-1h20v20H0z"></path>
		<path d="M.5 16.5h4" stroke="#6D7986" stroke-linecap="round"></path>
		<path d="M.5 14.5h4" stroke="#6D7986" stroke-linecap="round"></path>
		<path d="M7.5 16.5h4" stroke="#6D7986" stroke-linecap="round"></path>
		<path d="M14.5 16.5h4" stroke="#6D7986" stroke-linecap="round"></path>
		<path d="M14.5 14.5h4" stroke="#6D7986" stroke-linecap="round"></path>
		<path d="M14.5 12.5h4" stroke="#6D7986" stroke-linecap="round"></path>
		<path d="M14.5 10.5h4" stroke="#6D7986" stroke-linecap="round"></path>
		<path d="M14.5 8.5h4" stroke="#6D7986" stroke-linecap="round"></path>
		<path d="M14.5 6.5h4" stroke="#6D7986" stroke-linecap="round"></path>
		<path d="M14.5 4.5h4" stroke="#6D7986" stroke-linecap="round"></path>
		<path d="M7.5 14.5h4" stroke="#6D7986" stroke-linecap="round"></path>
		<path d="M7.5 12.5h4" stroke="#6D7986" stroke-linecap="round"></path>
		<path d="M7.5 10.5h4" stroke="#6D7986" stroke-linecap="round"></path>
		<path d="M10.0674 5.7305c0-.2403-.0667-.4314-.2-.5735-.1333-.1421-.3596-.2732-.679-.3933-.3193-.1201-.5946-.2395-.8261-.3582-.2314-.1186-.43-.2549-.5955-.4087a1.642 1.642 0 0 1-.3867-.5427c-.0923-.208-.1384-.4556-.1384-.7427 0-.495.1582-.9009.4746-1.2173s.7368-.501 1.2612-.5537V0h.7032v.9536c.5185.0733.9243.2893 1.2172.6482.293.3589.4395.824.4395 1.3953h-1.27c0-.3516-.0725-.6145-.2175-.7888-.145-.1744-.3392-.2615-.5823-.2615-.2403 0-.4263.068-.5581.2043-.1319.1363-.1978.3245-.1978.5647 0 .2227.0645.4014.1934.5362.1289.1347.3684.2724.7185.413.35.1407.638.2732.8635.3977.2256.1246.416.2652.5713.422.1553.1567.274.3354.356.536.082.2007.123.4344.123.701 0 .498-.1553.9023-.4658 1.2129-.3106.3105-.7383.4936-1.2832.5493v.8745h-.6988v-.8701c-.6005-.0645-1.0656-.2776-1.3952-.6394C7.1648 6.487 7 6.0059 7 5.4053h1.27c0 .3486.0828.616.2483.802.1655.186.4036.279.7141.279.2578 0 .4614-.068.6109-.2043.1494-.1362.224-.32.224-.5515z" fill="#6D7986"></path>
		<path d="M3.0674 10.2305c0-.2403-.0667-.4314-.2-.5735-.1333-.1421-.3596-.2732-.679-.3933-.3193-.1201-.5946-.2395-.8261-.3582-.2314-.1186-.43-.2549-.5955-.4087a1.642 1.642 0 0 1-.3867-.5427c-.0923-.208-.1384-.4556-.1384-.7427 0-.495.1582-.9009.4746-1.2173s.7368-.501 1.2612-.5537V4.5h.7032v.9536c.5185.0733.9243.2893 1.2172.6482.293.3589.4395.824.4395 1.3953h-1.27c0-.3516-.0725-.6145-.2175-.7888-.145-.1744-.3392-.2615-.5823-.2615-.2403 0-.4263.068-.5581.2043-.1319.1363-.1978.3245-.1978.5647 0 .2227.0645.4014.1934.5362.1289.1347.3684.2724.7185.413.35.1407.638.2732.8635.3977.2256.1246.416.2652.5713.422.1553.1567.274.3354.356.536.082.2007.123.4344.123.701 0 .498-.1553.9023-.4658 1.2129-.3106.3105-.7383.4936-1.2832.5493v.8745h-.6988v-.8701c-.6005-.0645-1.0656-.2776-1.3952-.6394C.1648 10.987 0 10.5059 0 9.9053h1.27c0 .3486.0828.616.2483.802.1655.186.4036.279.7141.279.2578 0 .4614-.068.6109-.2043.1494-.1362.224-.32.224-.5515z" fill="#6D7986"></path>
	</g>
</svg>
