<svg xmlns="http://www.w3.org/2000/svg" xmlns:xlink="http://www.w3.org/1999/xlink" width="14px" height="20px" viewBox="0 0 14 20">
    <g fill="none" stroke="#B5BBC2" stroke-width="2">
        <path d="M13,18.6046512 L13,13.4883721 C13,12.591374 13,12.591374 13,10.8333428 C13,8.7883005 13,8.7883005 13,6.45624716 C13,3.68498043 13,3.68498043 13,1.39534884 C13,1.18926821 12.8003756,1 12.5283019,1 L1.47169811,1 C1.19962439,1 1,1.18926821 1,1.39534884 L1,18.6046512 C1,18.8107318 1.19962439,19 1.47169811,19 L12.5283019,19 C12.8003756,19 13,18.8107318 13,18.6046512 Z"/>
        <path d="M0,4 L14,4"/>
        <path d="M0,14 L14,14"/>
        <path d="M5,16.5 L9,16.5"/>
    </g>
</svg>
