<svg width="23" height="16" viewBox="0 0 22 16" xmlns="http://www.w3.org/2000/svg">
  <g fill="none" fill-rule="evenodd">
    <g stroke="#6D7986">
      <path d="M2.5.5v12.93611c0 .73734.05398 1.01687.20804 1.30494.1277.23879.31212.4232.55091.55091.28807.15406.5676.20804 1.30494.20804h6.87222c.73734 0 1.01687-.05398 1.30494-.20804.23879-.1277.4232-.31212.55091-.55091.15406-.28807.20804-.5676.20804-1.30494V.5h-11z"/>
      <path d="M4.5 6.5h3v6h-3zM4.5.5h3v4h-3zM10.5 1.5h1v11h-1zM.5.5v-1h15v1z"/>
      <g stroke-linecap="round">
        <path d="M18.42857 10.15584v4.28572"/>
        <path stroke-linejoin="round" d="M16.12987 12.8052l2.29687 2.33869 2.30053-2.3387"/>
      </g>
      <g stroke-linecap="round">
        <path d="M18.42857 6.84416V2.55844"/>
        <path stroke-linejoin="round" d="M16.12987 4.1948l2.29687-2.33869 2.30053 2.3387"/>
      </g>
    </g>
  </g>
</svg>
