<svg width="20" height="20" viewBox="0 0 20 20" xmlns="http://www.w3.org/2000/svg">
  <path d="M19.22222 2.66745H14V.66754c0-.19866-.10267-.38665-.28156-.51332-.17733-.12666-.41533-.18132-.63933-.14132L.63467 2.0128C.266 2.07148 0 2.34614 0 2.66746v14.666c0 .31999.266.59598.63467.65464L13.0791 19.988a.85008.85008 0 0 0 .14311.012c.18045 0 .35622-.05333.49622-.15333.1789-.12666.28156-.31598.28156-.5133v-1.99992h5.22222c.42934 0 .77778-.29865.77778-.66663V3.33408c0-.36798-.34844-.66663-.77778-.66663zM9.16946 11.01149L10.03423 6h1.6991l-1.68083 7.87H8.57873L7.3303 8.9167 6.08185 13.87H4.61416L2.93333 6h1.6991l.85869 5.00421L6.69693 6h1.2728l1.19973 5.01149zm9.27498 4.98869H14v-1.33327h2.11111c.42933 0 .77778-.29866.77778-.66664 0-.36798-.34845-.66664-.77778-.66664H14v-1.33327h2.11111c.42933 0 .77778-.29865.77778-.66664 0-.36798-.34845-.66663-.77778-.66663H14V9.3338h2.11111c.42933 0 .77778-.29865.77778-.66663 0-.36799-.34845-.66664-.77778-.66664H14V6.66727h2.11111c.42933 0 .77778-.29866.77778-.66664 0-.36798-.34845-.66664-.77778-.66664H14V4.00072h4.44444v11.99946z" fill="#2B579A" fill-rule="nonzero"/>
</svg>
