<svg viewBox="0 0 29 54" xmlns="http://www.w3.org/2000/svg"><path d="M16.9686 40.746c2.5753 0 5.0756-.8102 7.1895-2.3545 2.622-1.9154 4.3367-4.7307 4.8276-7.9279.1026-.6676-.359-1.2913-1.0306-1.3934-3.7306-.5661-7.331.622-9.9499 2.9423a29.9653 29.9653 0 0 0 .1623-3.8928c2.8831-.8121 5.334-2.6238 6.9516-5.1591 1.7426-2.7312 2.3107-5.9733 1.5997-9.129-.1482-.6592-.8063-1.0734-1.4694-.9262-3.1754.7065-5.8841 2.5999-7.6266 5.331a12.2763 12.2763 0 0 0-.8455 1.5649 29.612 29.612 0 0 0-1.0626-2.8391C20.6959 12.9805 21.7543 5.7563 18.0005.514a1.2299 1.2299 0 0 0-.798-.4968 1.2335 1.2335 0 0 0-.918.2095c-2.6514 1.875-4.4092 4.664-4.95 7.8532-.0889.5247-.1398 1.0498-.16 1.5728A30.116 30.116 0 0 0 9.3829 7.706c-.4805-.4775-1.2596-.4776-1.7403 0a1.2175 1.2175 0 0 0 0 1.7294 27.6066 27.6066 0 0 1 2.4427 2.7779c-2.9254-1.3725-6.2138-1.539-9.2651-.465-.6407.2253-.976.9242-.7494 1.5609 1.7677 4.9618 6.4777 8.0672 11.4954 8.0672.997 0 2.0066-.1233 3.0073-.3785.7509 2.5177 1.1306 5.1222 1.1413 7.7279-1.4753-2.8519-4.0747-5.1227-7.4086-6.0915-.6524-.1896-1.3355.1824-1.5264.8307-.9133 3.104-.5558 6.3758 1.007 9.2124 1.3978 2.537 3.6114 4.4519 6.2978 5.478-1.3318 3.683-3.478 7.138-6.442 10.084a27.7848 27.7848 0 0 1-4.3322 3.5171c-.567.3722-.7233 1.1308-.3488 1.6945.2365.356.6286.5491 1.028.5491.2328 0 .4683-.0655.677-.2025 1.605-1.0532 3.1171-2.2715 4.5022-3.6211 2.113 1.4826 4.5664 2.209 7.0078 2.209 3.5293 0 7.0312-1.5123 9.4367-4.4313a1.218 1.218 0 0 0 .2724-.896 1.2213 1.2213 0 0 0-.4448-.825c-2.5177-2.049-5.6877-3.0004-8.9256-2.6805a12.3711 12.3711 0 0 0-2.5229.5206 29.5606 29.5606 0 0 0 1.7355-3.3915 12.387 12.387 0 0 0 1.2407.0643zm7.551-25.081c.1821 2.0945-.3267 4.1802-1.4788 5.986-1.1523 1.8059-2.8336 3.1525-4.8175 3.882-.3686-4.3049 2.221-8.3636 6.2964-9.868zm1.746 15.7127c-1.2307 4.1435-5.1274 6.9856-9.4722 6.9197 1.2307-4.1434 5.1249-6.9909 9.4722-6.9197zM2.915 13.6987c2.0704-.4306 4.2148-.1782 6.1567.7424 1.942.9206 3.4887 2.4184 4.455 4.2886-4.2582.8784-8.621-1.1902-10.6117-5.031zm11.8192.875c-.9855-1.8604-1.3302-3.979-.9727-6.0876.3576-2.1085 1.3819-3.9979 2.926-5.4347 2.0194 3.826 1.216 8.5652-1.9533 11.5224zm2.0245 31.4124c2.1419-.2118 4.2446.2734 6.0457 1.3761-3.1832 2.9424-7.9954 3.4186-11.6996 1.1577 1.547-1.434 3.513-2.3218 5.654-2.5338zm-2.256-10.3025c-1.9329-.8545-3.5237-2.3055-4.557-4.181-1.0334-1.8756-1.4063-3.9895-1.0895-6.0681 3.9698 1.7611 6.2922 5.9766 5.6465 10.2491z" fill="#B5BBC2" fill-rule="nonzero"/></svg>