<svg viewBox="0 0 29 54" xmlns="http://www.w3.org/2000/svg"><path d="M17.4338 21.3763c5.0171 0 9.7277-3.1059 11.4954-8.0673.2267-.6368-.1087-1.3356-.7494-1.561-3.0515-1.0738-6.3396-.9076-9.2653.465a27.6107 27.6107 0 0 1 2.4428-2.7779 1.2175 1.2175 0 0 0 0-1.7293c-.4807-.4776-1.2598-.4776-1.7403 0a30.197 30.197 0 0 0-1.7974 1.9537C17.685 6.027 15.9194 2.4922 12.716.2266 12.162-.165 11.3938-.0363 11 .514c-1.8867 2.635-2.6281 5.8424-2.0875 9.0314.5005 2.9513 2.0448 5.5581 4.3732 7.417a29.6351 29.6351 0 0 0-1.0627 2.839 12.2737 12.2737 0 0 0-.8453-1.5648c-1.7428-2.7311-4.4513-4.6244-7.6267-5.3311a1.2372 1.2372 0 0 0-.9278.1606 1.2235 1.2235 0 0 0-.5418.7656C.8645 20.1194 4.6717 26.3801 10.8325 28.12a29.9426 29.9426 0 0 0 .1615 3.8845 12.4203 12.4203 0 0 0-.8946-.7209c-2.622-1.9153-5.8369-2.7011-9.0545-2.2132-.6719.1019-1.1332.7257-1.0306 1.3934.491 3.197 2.2055 6.0125 4.8276 7.9278 2.1141 1.5445 4.614 2.3545 7.1894 2.3545.4122 0 .8265-.0227 1.2412-.0645a29.572 29.572 0 0 0 1.7417 3.4021c-3.807-1.213-8.1381-.5499-11.4547 2.1494-.5256.428-.603 1.1984-.1724 1.721 2.0617 2.502 4.9804 4.0566 8.2185 4.377.4116.0408.8215.0608 1.2295.0608 2.5131 0 4.9378-.7678 6.9967-2.2149 1.3851 1.3495 2.8973 2.5679 4.5015 3.6206.2087.137.4442.2025.677.2025.3995 0 .7913-.1932 1.028-.5491.3743-.5637.2182-1.3223-.3488-1.6945-1.5491-1.0164-3.0067-2.2-4.3322-3.5171-2.9644-2.9462-5.1106-6.4016-6.4422-10.085 5.843-2.2382 9.0937-8.6106 7.3052-14.6896-.1906-.6481-.8737-1.0199-1.5263-.8306-3.1234.9075-5.704 2.9697-7.2669 5.8064-.0497.0902-.0946.182-.1418.273a27.4368 27.4368 0 0 1 1.141-7.716 12.1608 12.1608 0 0 0 3.0075.3788zm-6.656 4.1558c-4.0753-1.5045-6.6649-5.5631-6.2963-9.8682 1.984.7295 3.6654 2.0762 4.8175 3.882s1.6612 3.8917 1.4788 5.9862zM6.2994 36.4209c-1.7335-1.2665-2.97-3.026-3.5659-5.0431.0523-.0008.1044-.0014.1566-.0014 4.2833 0 8.1015 2.8278 9.317 6.922-2.1153.0348-4.1741-.611-5.9077-1.8775zm5.5502 13.4763c-2.141-.2119-4.1069-1.0998-5.6539-2.5337 3.7044-2.261 8.5162-1.7852 11.6996 1.1577-1.8012 1.1024-3.905 1.5875-6.0457 1.376zm3.736-20.2822c1.0334-1.8756 2.6243-3.3267 4.557-4.1813.6458 4.2725-1.6765 8.4881-5.6463 10.2493-.3169-2.0785.0563-4.1925 1.0894-6.068zm4.3423-15.1742c1.942-.9207 4.0867-1.1728 6.1571-.7423-1.9909 3.8408-6.3548 5.9104-10.6119 5.0311.9664-1.8703 2.513-3.3679 4.4548-4.2888zm-8.5889-5.302c-.3575-2.1087-.0126-4.2272.9726-6.0877 3.1693 2.9573 3.9728 7.6964 1.9534 11.5226-1.5442-1.437-2.5686-3.3264-2.926-5.4349z" fill="#B5BBC2" fill-rule="nonzero"/></svg>