<svg xmlns="http://www.w3.org/2000/svg" width="19" height="23" viewBox="0 0 19 23">
  <g>
    <path d="M-19-17h56v56h-56z" opacity=".4"/>
    <path class="fill" d="M18.8473 19.2578c-.0913-.107-.2205-.2117-.3869-.3144-.0251-.0168-.0937-.0575-.2056-.1214-.1122-.0643-.2017-.1199-.2686-.167-.0665-.0472-.1539-.1284-.2622-.244-.108-.1153-.1933-.2374-.2559-.3657-.0624-.1282-.1227-.3014-.181-.5197-.0584-.2183-.0914-.46-.0999-.7252-.1166.1023-.181.3055-.1935.6095-.0126.3037.05.6136.1874.9302.1372.3168.3432.5218.6179.6162.2662.0943.4804.1945.643.3014.162.1071.2663.2288.3122.3657.0457.1373-.0315.2848-.2311.4429-.2.1585-.5203.3144-.9613.469-.6076.2136-1.0384.3956-1.2924.5451-.2538.1498-.626.4344-1.1172.8535-.3331.2824-.6868.4344-1.0615.4558-.3742.0215-.6783-.1197-.9111-.4234-.2332-.3036-.3083-.7334-.225-1.2899.1582-1.0694.1543-1.9036-.012-2.5025-.1333-.4706-.1626-.8856-.0875-1.245.0749-.359.1913-.5685.3496-.6285.1577-.0601.3286.0683.5118.3847.0163.0428.054.1262.112.2503.0582.124.106.212.1438.263.0375.0515.0936.1178.1685.1992.0749.0815.169.139.281.1735.1123.0341.2433.0555.3934.064.283.0084.5366-.0514.7615-.1797.2247-.1283.3934-.2716.5057-.43.1122-.1584.2247-.31.337-.4556.1122-.1457.21-.227.2934-.2441.0915-.0168.1748-.111.2498-.2823.0748-.171.1248-.4085.1498-.7121.0251-.3039.0042-.6654-.0623-1.0844-.125-.7447-.3727-1.5617-.743-2.4515-.3705-.8899-.7843-1.5872-1.2422-2.092-.824-.8983-1.3772-1.8309-1.6604-2.7978-.2911-1.018-.4158-1.9336-.3743-2.7465.0417-.5818-.0811-1.2129-.3682-1.8931-.287-.6802-.668-1.2-1.1424-1.5593-.2996-.231-.67-.4084-1.111-.5326-.441-.1242-.8823-.1817-1.3235-.1733-.5408 0-.9738.0898-1.2983.2695-.6658.368-1.1068.815-1.3234 1.3412-.2165.5261-.3162 1.1743-.2997 1.9443.0335 1.6941.0999 3.0203.1999 3.9785-.1167.445-.6326 1.279-1.5482 2.5026-.1666.1712-.3289.4022-.487.693-.1581.291-.283.552-.3745.7829-.0917.231-.2144.5646-.3684 1.001-.154.4363-.2642.7444-.3308.924-.0583.1542-.1499.3336-.2746.5393-.125.2052-.225.4064-.2997.6029-.0748.1967-.1165.4191-.1248.6673-.0083.1883 0 .3509.025.4876.0332.2057.0958.2697.1872.1928.3747-.291.845-.1198 1.4109.5135.3995.4449 1.1028 1.4802 2.11 3.1059.0831.1454.1663.3015.2495.4688.0834.1666.1623.3888.2373.667.0749.2784.1062.5284.0936.751-.0126.2226-.1082.428-.2872.6159-.179.1882-.4474.3079-.8052.3592-.1916.0257-.4223.0088-.693-.0514-.2704-.0598-.6138-.1582-1.0299-.295-.4161-.1368-.724-.231-.9238-.2825-.2912-.0686-.7052-.1558-1.2422-.263-.5369-.1071-.8886-.1862-1.055-.2376-.283-.0769-.437-.188-.4619-.3336-.025-.1198.0333-.325.1748-.6158.1416-.291.2123-.5007.2123-.6289a1.0742 1.0742 0 0 0-.0126-.2823c-.0166-.0942-.0353-.167-.0561-.2183a4.2362 4.2362 0 0 0-.1062-.2311c-.05-.1026-.0832-.1798-.0999-.231-.1497-.3594-.1706-.6036-.0624-.7317.0748-.1112.2538-.154.5368-.1282.4245.0428.7698-.0215 1.0362-.1927.441-.2823.5743-.7358.3995-1.3605 0 .2909-.05.5088-.1499.6545-.0999.1454-.2747.2952-.5243.4494-.1415.0855-.3913.1368-.749.1542-.3579.017-.5952.077-.7117.1796-.0832.077-.1268.1926-.131.3466a1.664 1.664 0 0 0 .0563.4686c.0415.1583.0832.34.1247.5454.0417.2054.0582.3767.05.5134-.0083.094-.0834.3274-.2248.6992-.1415.3723-.1706.6569-.0874.8535.0417.0943.1123.1778.2122.2504.0999.0727.2393.1348.4182.1863.1788.0514.3433.092.4932.1219.1497.0296.3578.0684.624.1152.2664.0469.4787.0878.6368.1218.5327.1114 1.1402.2953 1.8228.552.6825.2567 1.1443.3891 1.3857.3976.233.0084.4557-.0406.668-.1477.2122-.1067.3932-.2287.543-.3657.1498-.1369.3724-.2653.6678-.385.2956-.1198.6264-.184.9927-.1925a74.148 74.148 0 0 1 .724-.032c.3163-.013.5535-.0193.7116-.0193.7158 0 1.2568.0041 1.623.0127.2497.0088.4453.0493.5868.122.1414.0727.2332.1562.2746.2501.0416.0944.1106.2033.2064.3274.0955.124.2182.2246.3678.3015.3162.1542.6867.2162 1.1113.1862.4244-.0299.7075-.1134.8489-.2503.233-.2309.5471-.5048.9425-.8213.3954-.3164.7515-.5561 1.0676-.7187.0664-.0345.1788-.09.337-.167.158-.0771.291-.1433.3992-.1991.1083-.0557.2395-.1263.3931-.2118.1541-.0857.279-.1648.3748-.2376a3.6355 3.6355 0 0 0 .2932-.2503c.0999-.094.1644-.188.1937-.2822a.7604.7604 0 0 0 .0312-.2888c-.0086-.0982-.0583-.2006-.15-.3078zM12.1557 6.8537c.0248-.017.0416-.0235.0499-.0192.0084.0043.025.0214.0498.0513.0252.03.0478.0579.0688.0836.0207.0254.0498.0598.0871.1025a.5255.5255 0 0 0 .1184.1027c.0503.0341.1104.0578.1812.0706.0708.0127.125.0341.1626.064.0376.03.0646.0791.081.1477.0164.0942.0025.1795-.0433.2565-.046.0771-.1063.1114-.1813.1028-.1499-.0342-.3122-.169-.4869-.4042-.1745-.2353-.2038-.4214-.0873-.5583zm-1.5482-4.9858c.0415-.0556.0665-.1005.0747-.1346a.3003.3003 0 0 0 .0063-.1606.288.288 0 0 1 .0124-.1668c.021-.0556.0688-.0877.1438-.0962.0748 0 .1748.0642.2996.1925a4.052 4.052 0 0 0 .1182.077c.0542.0343.0916.0642.1124.0898.0208.0255.0311.0471.0311.0641-.0166.0427-.054.073-.112.09a.665.665 0 0 1-.1873.0256c-.0664 0-.1041.0043-.1123.0128a.6235.6235 0 0 0-.1874.1154 2.923 2.923 0 0 1-.1372.1156c-.0335.0256-.0667.0256-.1 0-.0332-.0514-.0457-.0878-.0373-.109.0084-.0214.0334-.06.075-.1156zM4.565 11.4742c.058-.0684.0998-.124.1248-.1668.025-.0428.0478-.1006.0686-.1732.0208-.0729.0395-.1264.0562-.1606.0168-.0344.0418-.0471.075-.0386.0165-.0042.029.0042.0376.0257l.0124.0321v.0386a.2892.2892 0 0 1-.0063.0513.2351.2351 0 0 1-.0187.0578.3988.3988 0 0 0-.025.077 1.1716 1.1716 0 0 1-.025.0898c-.0332.0858-.0854.1626-.156.2311-.0708.0684-.1229.0984-.1561.0898-.05-.017-.0457-.0685.0125-.154zm8.1646 7.9185c-.0166.2737-.0729.6589-.1686 1.1551-.0958.4961-.1562.8256-.1813.988-.1748-.0087-.2745-.075-.2996-.199-.0248-.1242 0-.2844.075-.4813.183-.5735.2785-.967.287-1.1807.017-.3937-.0248-.6161-.1245-.6674-.092-.0684-.2333.06-.4247.3849-.3665.6161-1.103.988-2.2098 1.1167-.9986.137-1.6894-.0171-2.0724-.4623-.0832-.0598-.1664-.0704-.2496-.0318-.0832.0381-.1373.079-.1623.1215-.0082.0172 0 .0428.025.077.025.0344.0645.0856.1186.154a1.13 1.13 0 0 1 .131.2057c.3248.5817.2957.9752-.0873 1.1806 0-.3934-.0291-.695-.0873-.9046-.0583-.2096-.1747-.4405-.3496-.6931-.1747-.2523-.2954-.4428-.3619-.571.2496-.0256.439-.124.568-.2952.129-.1711.1873-.355.1748-.5518-.0125-.197-.0852-.3596-.2184-.4879-.075-.0769-.462-.4042-1.1612-.9818-.699-.5774-1.1319-.9646-1.2983-1.1614-.0334-.0343-.1332-.1198-.2997-.2567-.1665-.137-.2706-.2566-.3121-.3594-.383-.8637-.4245-1.5742-.125-2.1301l.05-.0642c.0415-.0084.0457.0684.0124.2311-.05.2397-.0665.479-.05.7187.0333.5392.1832.9412.4495 1.2062.1749.18.2955.1671.3621-.0383.05-.0686.0728-.321.0686-.7575-.004-.4361.0022-.7313.0189-.8855.0666-.4876.2643-1.091.593-1.8093.3287-.7188.589-1.1039.7803-1.1552-.1498-.2481-.1977-.5176-.1435-.8086.054-.2909.1415-.5392.2621-.7444.1206-.2053.2435-.4426.3682-.7122.125-.2695.1873-.5113.1873-.7252 0-.0597.0043-.1026.0126-.1283.025-.077.129.0171.312.2823.3497.5306.6119.843.7867.937.183.1026.3869.0983.6117-.013.2246-.1111.5013-.2951.8302-.5517.3286-.2566.6095-.4449.8426-.5646.0252-.0086.0646-.0279.1189-.0578a1.786 1.786 0 0 1 .1245-.0642 1.3964 1.3964 0 0 0 .1124-.0577 1.4957 1.4957 0 0 0 .1058-.0643.8805.8805 0 0 0 .0748-.0578c.0248-.0215.0414-.0427.05-.0642a.1608.1608 0 0 0 .0125-.0577c-.0167-.077-.052-.1242-.1062-.1412-.0542-.017-.1269-.0064-.2185.0322-.0916.0385-.1936.0899-.3059.154-.1122.0641-.237.1369-.3744.2182a5.6863 5.6863 0 0 1-.4181.2246 3.5347 3.5347 0 0 1-.4495.1798c-.1581.0512-.308.0813-.4494.0898-.3496.0086-.6283-.0853-.8363-.2823-.1332-.1284-.2039-.2097-.2123-.2439-.0084-.0341.0291-.0426.1123-.0257.4496.06.7783.0684.9864.0257.2163-.0341.5076-.1326.8739-.2952a52.721 52.721 0 0 1 .5682-.2503c.3036-.1324.5389-.2244.7053-.2758.1-.0257.1688-.0663.2062-.122.0373-.0555.0499-.1069.0373-.154a.1771.1771 0 0 0-.081-.109c-.0917-.0514-.175-.017-.2496.1027-.0417.077-.1293.152-.2623.2246-.133.0728-.256.1284-.3683.1668a10.5107 10.5107 0 0 1-.4308.1347c-.1749.0514-.2704.0813-.2872.0899-.4577.1453-.8821.2096-1.2734.1924-.1831-.0084-.3308-.0364-.443-.0834-.1125-.047-.1895-.1026-.231-.1668-.0417-.064-.1082-.1454-.1998-.2439a1.382 1.382 0 0 0-.3122-.2503c-.0832-.0427-.1145-.1197-.0936-.231.0208-.1112.0853-.2268.1935-.3465.0083-.0087.0937-.062.2559-.1605.1623-.0984.2768-.199.3434-.3016.0748-.1198.2039-.244.387-.3723.0083-.0342.0146-.1283.0187-.2823.004-.1539-.0354-.3208-.1186-.5004-.0832-.1798-.1957-.2695-.3372-.2695-.1998-.0086-.3412.0513-.4244.1796-.0833.1283-.1206.2866-.1123.4748.0084.1625.048.3058.1186.43.0708.124.1353.1861.1935.1861.0915-.0086.1206.0255.0874.1026-.05.0942-.1166.1542-.1998.1797-.0584.017-.123-.0406-.1936-.1732-.0708-.1327-.1248-.293-.1622-.4813-.0374-.1882-.0521-.3465-.0437-.475.0165-.2652.0852-.5197.206-.7636.1207-.2438.2934-.3615.518-.353.2331.0086.4205.1542.562.4364.1416.2823.208.6675.1998 1.1552.025.0599.0894.0813.1936.0641.1038-.0172.2413-.0194.4118-.0065.1705.0128.2933.0577.3682.1347.0085 0 .0126-.0643.0126-.1925-.1498-1.078.2205-1.6512 1.1112-1.7197.1329.0257.2452.0578.3367.0962.0919.0385.1893.1028.2934.1926.1043.0897.1914.2202.2622.3914.0708.1713.127.3852.1686.6418v.4748c0 .2737-.0543.4278-.1625.462-.1746.0599-.2993.0578-.3741-.0064-.075-.0643-.0669-.1776.0248-.3402.0832-.2138.0666-.4621-.05-.7444-.1164-.2823-.3288-.4107-.6366-.385-.2082.0086-.358.1241-.4495.3465-.0916.2225-.1248.4407-.0998.6546.025.2139.0706.3251.1374.3336.0498.0087.1978.077.4432.2054.2459.1284.431.2053.5557.231.3246.0683.5095.1753.5554.3208.0458.1456.0271.3573-.056.6353-.0834.2782-.1083.5069-.0748.6867.0333.1884.0958.3593.1874.5133.0916.1542.1892.2952.2933.4236.104.1281.2266.3679.3684.7186.1413.3509.2703.7915.3867 1.322.0082.0085.0394.0384.0936.0898.0541.0513.108.1154.1624.1924.0543.077.1186.1819.1936.3145.0749.1327.1562.3273.2436.584.0871.2567.1685.552.2433.8856.0916.3938.1395.8511.1437 1.3734.0042.5218.0374.879.1 1.0716.0625.1927.2226.2718.4806.2375.3246-.017.5329-.1967.624-.539.2748-.9926.0503-2.182-.674-3.5679-.2747-.539-.5118-.8941-.7117-1.0652.2912.1711.591.4918.8991.9626.308.4706.5034.9114.5866 1.3218.0081.043.0312.1563.0686.3401.0373.184.0583.291.0622.321.004.0299.021.1176.0499.263.0293.1455.0437.2397.0437.2824 0 .043.004.1263.0125.2503.0085.124.0063.2203-.0063.2887-.0125.0686-.0248.1606-.0374.2759a2.1532 2.1532 0 0 1-.0624.3338c-.0287.1069-.06.2248-.0934.353.4576.2053.6866.3848.6866.539-.1746-.1456-.4246-.2417-.7493-.2883-.3248-.0473-.626-.0024-.905.1346-.279.1369-.4226.3635-.431.6799-.2996 0-.512.077-.6366.2312-.183.2223-.2787.5238-.287.9047-.0084.3806.0226.7958.0934 1.2447.071.4491.098.7634.0812.9432zM7.4988 4.5179c-.025-.0085-.0458-.0343-.0624-.077 0-.0768.0374-.107.1123-.0898.05.017.098.0813.1436.1925.0458.1112.0562.2396.0313.385 0 .0257-.0124.0386-.0376.0384-.0916 0-.1248-.0855-.0998-.2566.0248-.1283-.0043-.1925-.0874-.1925zm3.2335.2055l-.0248.0384c-.0665.0427-.0995.0513-.0995.0257-.0336-.2311-.1084-.3637-.2248-.398l-.05-.0256c-.0584-.0514-.0294-.0813.087-.0899.025-.0085.0625.0042.1124.0385.05.0343.0958.0878.1374.1605.0415.0728.0623.1561.0623.2504z"/>
    <path class="fill" d="M8 6.3722c0 .0994.0579.1407.1728.1243.0918 0 .189-.0787.2928-.2358.1035-.1568.2819-.2437.5344-.2604V6h-.345c-.4365.0496-.655.1737-.655.3722zm2-.2162c.202-.062.379-.0152.5305.1394.1513.1545.2677.2218.3486.2009.1208-.0616.1512-.1547.0906-.2784-.1615-.2682-.4846-.2888-.9697-.062z"/>
  </g>
</svg>
