<svg width="195px" height="52px" viewBox="0 0 195 52" version="1.1" xmlns="http://www.w3.org/2000/svg">
    <g fill="#E30000" fill-rule="evenodd">
        <path d="M10.5909404,4.97446809 C10.1484503,6.21085106 1.51056954,29.9402128 1.18845033,30.8451064 C1.09456954,31.0970213 1.21557616,31.3974468 1.47772185,31.4970213 C1.74792053,31.6025532 6.32709934,33.3838298 6.59411921,33.4910638 C6.86029139,33.5965957 7.13409272,33.4348936 7.22140397,33.1931915 C7.30956291,32.9531915 9.21769536,27.6851064 9.43300662,27.0970213 L22.4288212,27.0970213 C22.6424371,27.6851064 24.5319205,32.9429787 24.6243179,33.1931915 C24.7175629,33.4444681 25.0015364,33.5855319 25.253298,33.4910638 C25.5050596,33.3948936 30.0630464,31.6153191 30.3741457,31.4970213 C30.6843974,31.3787234 30.7327152,31.0453191 30.6589669,30.8451064 C30.3970331,30.1219149 21.6252185,6.00340426 21.2488477,4.97446809 C20.3613245,2.54553191 19.3000265,0.116595745 15.9228609,0.116595745 C12.546543,0.116595745 11.4451921,2.58382979 10.5909404,4.97446809 Z M15.8967947,7.99148936 L15.9508344,7.99148936 L20.3613245,21.24 L11.501351,21.24 L15.8967947,7.99148936 Z M0.492503311,43.2680851 C0.220397351,43.2680851 0,43.4953191 0,43.7744681 L0,49.4102128 C0,49.6910638 0.220397351,49.9157447 0.492503311,49.9157447 L31.3523709,49.9157447 C31.6227815,49.9157447 31.8406358,49.6910638 31.8406358,49.4102128 L31.8406358,43.7744681 C31.8406358,43.4953191 31.6227815,43.2680851 31.3523709,43.2680851 L0.492503311,43.2680851 Z"></path>
        <path d="M130.800614,16.2125941 L130.800614,18.4082376 L130.207259,18.4082376 C129.447069,18.4082376 128.738816,18.5302178 128.082076,18.7741782 C127.425124,19.0181386 126.859539,19.3960594 126.384474,19.9085941 C125.90962,20.4209109 125.533553,21.0674059 125.256696,21.848297 C124.979627,22.6287525 124.841199,23.555802 124.841199,24.6292277 C124.841199,25.5887327 124.939985,26.4101386 125.138194,27.0932277 C125.335768,27.7763168 125.593121,28.3496238 125.90962,28.8131485 C126.226118,29.2766733 126.586499,29.6467525 126.989912,29.9231683 C127.393538,30.1995842 127.793348,30.4113069 128.188918,30.5574653 C128.5847,30.7038416 128.960344,30.797505 129.316696,30.8380198 C129.672836,30.8785347 129.96962,30.8992277 130.207259,30.8992277 L130.800614,30.8992277 L130.800614,33.5581782 L134.029408,33.5581782 L134.029408,30.8992277 L134.622975,30.8992277 C134.860614,30.8992277 135.157398,30.8785347 135.513538,30.8380198 C135.869678,30.797505 136.245746,30.7038416 136.641316,30.5574653 C137.036886,30.4113069 137.436696,30.1995842 137.840322,29.9231683 C138.243947,29.6467525 138.604115,29.2766733 138.920614,28.8131485 C139.237113,28.3496238 139.494466,27.7763168 139.692039,27.0932277 C139.890249,26.4101386 139.989035,25.5887327 139.989035,24.6292277 C139.989035,23.555802 139.854423,22.6287525 139.585197,21.848297 C139.316396,21.0674059 138.940329,20.4209109 138.457632,19.9085941 C137.974934,19.3960594 137.404898,19.0181386 136.747946,18.7741782 C136.091418,18.5302178 135.382741,18.4082376 134.622975,18.4082376 L134.029408,18.4082376 L134.029408,16.2125941 L130.800614,16.2125941 Z M133.958392,20.8234455 L134.480731,20.8234455 C134.797442,20.8234455 135.094013,20.8683168 135.371082,20.9576238 C135.647939,21.0471485 135.889393,21.2301188 136.095234,21.5065347 C136.301075,21.7829505 136.463246,22.1693663 136.581959,22.6653465 C136.700673,23.1615446 136.759817,23.8241584 136.759817,24.6536238 C136.759817,25.4830891 136.700673,26.145703 136.581959,26.641901 C136.463246,27.1378812 136.301075,27.5240792 136.095234,27.8007129 C135.889393,28.0771287 135.647939,28.260099 135.371082,28.3496238 C135.094013,28.4391485 134.797442,28.483802 134.480731,28.483802 L133.958392,28.483802 L133.958392,20.8234455 Z M129.459152,28.3496238 C129.182083,28.260099 128.940841,28.0771287 128.735,27.8007129 C128.529159,27.5240792 128.366776,27.1378812 128.248487,26.641901 C128.129561,26.145703 128.070417,25.4830891 128.070417,24.6536238 C128.070417,23.8241584 128.129561,23.1615446 128.248487,22.6653465 C128.366776,22.1693663 128.529159,21.7829505 128.735,21.5065347 C128.940841,21.2301188 129.182083,21.0471485 129.459152,20.9576238 C129.736221,20.8683168 130.033004,20.8234455 130.349503,20.8234455 L130.871842,20.8234455 L130.871842,28.483802 L130.349503,28.483802 C130.033004,28.483802 129.736221,28.4391485 129.459152,28.3496238 Z M53.3842398,17.1640396 C53.1783991,17.2128317 52.9172295,17.2860198 52.600731,17.383604 L47.1399123,33.5825743 L50.4164035,33.5825743 C50.5272734,33.2246931 50.6419591,32.8587525 50.7606725,32.4847525 C50.879386,32.1107525 50.9862281,31.7692079 51.0811988,31.4601188 C51.1920687,31.1022376 51.2946711,30.7526337 51.3898538,30.4113069 L57.040614,30.4113069 C57.1355848,30.7526337 57.2383991,31.1022376 57.349269,31.4601188 C57.4442398,31.7692079 57.5432383,32.1107525 57.6460526,32.4847525 C57.7490789,32.8587525 57.8559211,33.2246931 57.9665789,33.5825743 L61.3617836,33.5825743 L56.2094079,17.383604 C55.6556944,17.1886535 55.0146418,17.0906337 54.286462,17.0906337 C53.8908918,17.0906337 53.5900804,17.1152475 53.3842398,17.1640396 Z M52.7788012,25.7270495 C52.9132018,25.2391287 53.0202558,24.8568515 53.0993275,24.5804356 C53.1783991,24.2715644 53.2417836,24.052 53.289269,23.9217426 C53.3685526,23.6616634 53.4554678,23.3606337 53.5504386,23.0190891 C53.6297222,22.7263366 53.7285088,22.3725941 53.8472222,21.9578614 C53.9659357,21.5431287 54.0965205,21.0756832 54.2389766,20.5550891 L54.3339474,20.5550891 C54.4605044,21.091802 54.5794298,21.5716634 54.6900877,21.9944554 C54.8009576,22.4172475 54.8959284,22.7670693 54.975,23.0434851 C55.0540716,23.3850297 55.1331433,23.6777822 55.2124269,23.9217426 C55.2599123,24.0356634 55.3232968,24.2469505 55.4021564,24.5558218 C55.4814401,24.8324554 55.5882822,25.2147327 55.7226827,25.7026535 C55.8575073,26.1907921 56.0355775,26.8494851 56.2571053,27.6787327 L52.220848,27.6787327 C52.4582749,26.865604 52.6441886,26.2149703 52.7788012,25.7270495 Z M90.9757018,17.1152475 L90.9757018,22.0676436 C90.6592032,21.9051485 90.3586038,21.8034257 90.0734795,21.7626931 C89.7883553,21.7221782 89.4561696,21.7014851 89.0762865,21.7014851 C87.5726535,21.7014851 86.3895468,22.1896238 85.5267544,23.1654653 C84.663962,24.1413069 84.2325658,25.6863168 84.2325658,27.8007129 C84.2325658,29.7687327 84.6205044,31.2568911 85.3961696,32.2651881 C86.1718348,33.2734851 87.2322003,33.7777426 88.5776901,33.7777426 C89.2106871,33.7777426 89.721367,33.7128317 90.1090936,33.5825743 C90.4968202,33.4525347 90.7857602,33.3305545 90.9757018,33.2166337 L90.9757018,37.3885743 L93.9197953,37.3885743 L93.9197953,33.2166337 C94.1097368,33.3305545 94.3986769,33.4525347 94.7864035,33.5825743 C95.1743421,33.7128317 95.684598,33.7777426 96.317807,33.7777426 C96.9510161,33.7777426 97.5325,33.647703 98.0628947,33.3874059 C98.5932895,33.1271089 99.0522442,32.7409109 99.4399708,32.2285941 C99.8276974,31.7162772 100.128509,31.0819802 100.342193,30.3254851 C100.555877,29.5694257 100.662719,28.7033663 100.662719,27.7275248 C100.662719,25.6131287 100.231535,24.0803168 99.3687427,23.1288713 C98.5061623,22.1774257 97.3228436,21.7014851 95.8192105,21.7014851 C95.4393275,21.7014851 95.1069298,21.7221782 94.8220175,21.7626931 C94.5371053,21.8034257 94.2362939,21.9051485 93.9197953,22.0676436 L93.9197953,17.1152475 L90.9757018,17.1152475 Z M94.7030921,31.1797822 C94.4974635,31.1551683 94.2362939,31.085901 93.9197953,30.972198 L93.9197953,24.5804356 C94.2837792,24.401604 94.5807749,24.2998812 94.8101462,24.2754851 C95.0397295,24.2510891 95.2968713,24.2388911 95.5817836,24.2388911 C96.9429605,24.2388911 97.623867,25.4018416 97.623867,27.7275248 C97.623867,28.8009505 97.4296857,29.6506733 97.0419591,30.2769109 C96.6542325,30.9031485 96.1200219,31.2163762 95.4393275,31.2163762 C95.1544152,31.2163762 94.9089327,31.2039604 94.7030921,31.1797822 Z M87.7823099,30.313505 C87.4420687,29.7116634 87.2718421,28.8741386 87.2718421,27.8007129 C87.2718421,26.629703 87.4420687,25.7433861 87.7823099,25.1415446 C88.1225512,24.539703 88.633231,24.2388911 89.3137135,24.2388911 C89.5986257,24.2388911 89.8557675,24.2510891 90.0853509,24.2754851 C90.3147222,24.2998812 90.6117178,24.401604 90.9757018,24.5804356 L90.9757018,30.972198 C90.6592032,31.085901 90.3980336,31.1551683 90.192193,31.1797822 C89.9865643,31.2039604 89.7410819,31.2163762 89.4561696,31.2163762 C88.6805044,31.2163762 88.1225512,30.9153465 87.7823099,30.313505 Z M103.070906,22.1652277 L103.522018,24.4096634 C103.933487,24.3445347 104.345168,24.2918218 104.756637,24.2510891 C105.168107,24.2105743 105.532091,24.190099 105.848801,24.190099 C106.339554,24.190099 106.731308,24.214495 107.024064,24.2632871 C107.31682,24.3120792 107.538348,24.401604 107.68886,24.5316436 C107.839159,24.6616832 107.93413,24.8446535 107.973772,25.0805545 C108.013202,25.3164554 108.033341,25.6214059 108.033341,25.9954059 L108.033341,26.5565149 C107.811389,26.4913861 107.578202,26.4386733 107.332719,26.3979406 C107.087237,26.3572079 106.822251,26.3369505 106.537339,26.3369505 C105.049393,26.3369505 103.921827,26.6906931 103.154006,27.398396 C102.386184,28.1058812 102.002485,29.0693069 102.002485,30.2891089 C102.002485,30.8582772 102.101484,31.3666733 102.299269,31.8136436 C102.497054,32.2610495 102.762251,32.6352673 103.094649,32.9360792 C103.427047,33.2368911 103.819013,33.4647327 104.269912,33.6189505 C104.721235,33.773604 105.199905,33.8509307 105.706133,33.8509307 C106.086016,33.8509307 106.466111,33.8145545 106.845994,33.7411485 C107.225877,33.6679604 107.573962,33.5662376 107.890673,33.436198 C108.080614,33.3549505 108.238969,33.2817624 108.365314,33.2166337 C108.492083,33.151505 108.682025,33.0297426 108.935351,32.8506931 C109.077807,33.0783168 109.267749,33.2898218 109.504963,33.4852079 C109.742602,33.6801584 109.9247,33.7938614 110.051257,33.8265347 L111.950461,32.4603564 C111.760731,32.1512673 111.59856,31.8707129 111.463735,31.6186931 C111.329335,31.3666733 111.22652,31.1105149 111.15508,30.8502178 C111.084064,30.5899208 111.032551,30.313505 111.000965,30.0207525 C110.969379,29.728 110.95348,29.3864554 110.95348,28.9961188 L110.95348,25.8734257 C110.95348,25.4506337 110.941608,25.0886139 110.917865,24.787802 C110.894123,24.4869901 110.858721,24.2266931 110.811023,24.0069109 C110.76375,23.7875644 110.700154,23.592396 110.621082,23.4216238 C110.541798,23.2508515 110.446827,23.0922772 110.33617,22.9461188 C110.035358,22.5228911 109.620073,22.2098812 109.089678,22.0066535 C108.559496,21.8034257 107.827288,21.7014851 106.89348,21.7014851 C105.54799,21.7014851 104.27394,21.8561386 103.070906,22.1652277 Z M105.350205,31.0697822 C105.065292,30.8421584 104.922836,30.4437624 104.922836,29.8743762 C104.922836,29.2888713 105.10875,28.882198 105.480789,28.6547921 C105.852829,28.4269505 106.410782,28.3130297 107.154649,28.3130297 C107.328692,28.3130297 107.498918,28.3252277 107.665117,28.3496238 C107.831316,28.3740198 107.954057,28.4023366 108.033341,28.4350099 L108.033341,29.2644752 C108.033341,29.7199406 108.040972,30.0978614 108.056659,30.3988911 C108.07277,30.699703 108.1122,30.947802 108.175585,31.1427525 C107.859086,31.2730099 107.582018,31.3503366 107.344591,31.3747327 C107.107164,31.3993465 106.85405,31.4113267 106.584825,31.4113267 C106.046586,31.4113267 105.635117,31.2976238 105.350205,31.0697822 Z M64.9214912,21.8724752 C64.2488523,21.986396 63.5009576,22.1652277 62.677807,22.4091881 L62.677807,28.1422574 C62.677807,28.5325941 62.6737792,28.8619406 62.6659357,29.130297 C62.6578801,29.3986535 62.6502485,29.6223564 62.642193,29.8014059 C62.6343494,29.9802376 62.6184503,30.1388119 62.5947076,30.2769109 C62.5709649,30.4152277 62.5353509,30.5409109 62.4878655,30.6550495 C62.4085819,30.8826733 62.297924,31.1185743 62.1554678,31.3625347 C62.0130117,31.6067129 61.7914839,31.8343366 61.4906725,32.0456238 L62.3216667,33.8265347 C62.9073904,33.6638218 63.4098026,33.4605941 63.8293275,33.2166337 C64.2488523,32.9726733 64.5850658,32.6555248 64.8383918,32.2651881 C65.0917178,31.8748515 65.2776316,31.3910693 65.396345,30.8134059 C65.5150585,30.236396 65.5744152,29.5247723 65.5744152,28.6789703 L65.5744152,24.4828515 C65.7643567,24.450396 65.9265278,24.426 66.0611404,24.4096634 C66.1957529,24.3933267 66.3182822,24.3772079 66.429152,24.3608713 C66.5400219,24.3445347 66.6508918,24.3364752 66.7617617,24.3364752 L67.5688012,24.3364752 C67.6796711,24.3364752 67.7865132,24.3445347 67.8893275,24.3608713 C67.9923538,24.3772079 68.1068275,24.3933267 68.2335965,24.4096634 C68.3601535,24.426 68.5185088,24.450396 68.7084503,24.4828515 L68.7084503,33.5825743 L71.6762865,33.5825743 L71.6762865,22.4091881 C70.853136,22.1652277 70.1012135,21.986396 69.420731,21.8724752 C68.7402485,21.7585545 67.988326,21.7014851 67.1651754,21.7014851 C66.3420249,21.7014851 65.5943421,21.7585545 64.9214912,21.8724752 Z M189.674006,22.0798416 C189.048852,22.3155248 188.494715,22.6897426 188.012018,23.2020594 C187.52932,23.7143762 187.145409,24.3730693 186.860497,25.1781386 C186.575585,25.9832079 186.433129,26.9551287 186.433129,28.0934653 C186.433129,29.1830099 186.575585,30.0978614 186.860497,30.8380198 C187.145409,31.5779604 187.517449,32.1758812 187.976404,32.6309109 C188.435358,33.0863762 188.965753,33.4159406 189.567164,33.6189505 C190.168575,33.8226139 190.793728,33.9241188 191.442836,33.9241188 C192.044459,33.9241188 192.610044,33.8387327 193.140439,33.6679604 C193.670621,33.4971881 194.165402,33.2246931 194.624357,32.8506931 L193.793363,30.8258218 C193.50845,31.0048713 193.176053,31.1754257 192.79617,31.3381386 C192.416499,31.5008515 192.036404,31.582099 191.656732,31.582099 C190.83337,31.582099 190.25973,31.2810693 189.935175,30.6794455 C189.610621,30.077604 189.44845,29.1912871 189.44845,28.0202772 C189.44845,26.7516832 189.622493,25.7758416 189.970789,25.0929703 C190.319086,24.4096634 190.864956,24.0681188 191.609035,24.0681188 C192.06799,24.0681188 192.4678,24.1617822 192.808041,24.3486733 C193.148494,24.5357822 193.476864,24.7431485 193.793363,24.9707723 L194.885314,23.0190891 C194.505643,22.6287525 194.042661,22.3155248 193.496579,22.0798416 C192.950497,21.8439406 192.321316,21.726099 191.609035,21.726099 C190.94424,21.726099 190.299159,21.8439406 189.674006,22.0798416 Z M167.418626,22.2140198 C166.738143,22.5392277 166.160263,22.9866337 165.685197,23.555802 C165.210344,24.1249703 164.850387,24.8 164.605117,25.5806733 C164.359846,26.3613465 164.236893,27.2071485 164.236893,28.1178614 C164.236893,28.3781584 164.253004,28.7033663 164.284803,29.093703 C164.316389,29.4840396 164.395249,29.8946337 164.522018,30.3254851 C164.648575,30.7567723 164.830461,31.183703 165.068099,31.6067129 C165.305314,32.0292871 165.63008,32.4115644 166.041762,32.7531089 C166.453019,33.0948713 166.967303,33.3710693 167.584825,33.5825743 C168.202135,33.7938614 168.946001,33.8997228 169.816637,33.8997228 C171.067156,33.8997228 172.341418,33.7372277 173.639211,33.411802 L173.164357,31.1185743 C172.626118,31.232495 172.099751,31.321802 171.585468,31.3869307 C171.071184,31.4520594 170.560504,31.4845149 170.054064,31.4845149 C169.547412,31.4845149 169.120256,31.4113267 168.771959,31.2649505 C168.423662,31.1185743 168.142566,30.9192673 167.928882,30.6672475 C167.715409,30.4152277 167.56511,30.1100594 167.477982,29.752396 C167.390855,29.3945149 167.347186,29.0041782 167.347186,28.5813861 L174.398977,28.5813861 L174.398977,27.3615842 C174.398977,26.5321188 174.311849,25.771703 174.137807,25.0805545 C173.963553,24.3891881 173.690724,23.7956238 173.318684,23.2996436 C172.946645,22.8036634 172.463947,22.4172475 171.87038,22.1408317 C171.276813,21.8644158 170.560504,21.726099 169.721667,21.726099 C168.86693,21.726099 168.099108,21.8888119 167.418626,22.2140198 Z M167.964708,24.5682376 C168.297105,24.1047129 168.819444,23.8729505 169.531725,23.8729505 C169.895921,23.8729505 170.204364,23.9422178 170.457902,24.0803168 C170.711016,24.2184158 170.909013,24.4055248 171.051257,24.6414257 C171.193713,24.8773267 171.296528,25.1498218 171.359912,25.4586931 C171.423297,25.7677822 171.446827,26.0929901 171.431352,26.4345347 L167.347186,26.4345347 C167.426681,25.6536436 167.632522,25.0317624 167.964708,24.5682376 Z M144.047339,22.1896238 C143.390387,22.4987129 142.84049,22.9297822 142.397222,23.4826139 C141.954167,24.0356634 141.625585,24.6860792 141.411901,25.434297 C141.198216,26.1825149 141.091374,27.003703 141.091374,27.898297 C141.091374,28.8253465 141.217931,29.6628713 141.471257,30.4113069 C141.724371,31.1593069 142.080724,31.793604 142.539678,32.314198 C142.998633,32.8345743 143.55277,33.2327525 144.201667,33.5093861 C144.850775,33.785802 145.570899,33.9241188 146.362251,33.9241188 C147.153604,33.9241188 147.873728,33.785802 148.522836,33.5093861 C149.171944,33.2327525 149.725658,32.8345743 150.184825,32.314198 C150.643991,31.793604 150.99992,31.1593069 151.253246,30.4113069 C151.506572,29.6628713 151.633129,28.8253465 151.633129,27.898297 C151.633129,27.003703 151.526287,26.1825149 151.312602,25.434297 C151.09913,24.6860792 150.770548,24.0356634 150.327069,23.4826139 C149.884013,22.9297822 149.334115,22.4987129 148.677164,22.1896238 C148.020212,21.8805347 147.248575,21.726099 146.362251,21.726099 C145.475928,21.726099 144.704079,21.8805347 144.047339,22.1896238 Z M145.543341,31.3993465 C145.266272,31.2934851 145.016762,31.1022376 144.795234,30.8258218 C144.573706,30.5494059 144.395636,30.1671287 144.261235,29.6792079 C144.126411,29.1912871 144.059211,28.5650495 144.059211,27.8007129 C144.059211,27.052495 144.126411,26.4345347 144.261235,25.9466139 C144.395636,25.4586931 144.573706,25.0805545 144.795234,24.812198 C145.016762,24.5440594 145.266272,24.3567327 145.543341,24.2510891 C145.819985,24.1454455 146.093238,24.0925149 146.362251,24.0925149 C146.631265,24.0925149 146.904306,24.1454455 147.181374,24.2510891 C147.458443,24.3567327 147.707741,24.5440594 147.929269,24.812198 C148.150797,25.0805545 148.328867,25.4586931 148.46348,25.9466139 C148.59788,26.4345347 148.66508,27.052495 148.66508,27.8007129 C148.66508,28.5650495 148.59788,29.1912871 148.46348,29.6792079 C148.328867,30.1671287 148.150797,30.5494059 147.929269,30.8258218 C147.707741,31.1022376 147.458443,31.2934851 147.181374,31.3993465 C146.904306,31.5049901 146.631265,31.557703 146.362251,31.557703 C146.093238,31.557703 145.819985,31.5049901 145.543341,31.3993465 Z M155.679561,22.0188515 C154.793238,22.1815644 154.025417,22.3767327 153.37652,22.6043564 L153.37652,37.9492475 L156.296659,37.9492475 L156.296659,33.1188317 C156.565885,33.2817624 156.933896,33.4322772 157.400906,33.5703762 C157.867917,33.7086931 158.346798,33.7777426 158.837339,33.7777426 C159.470548,33.7777426 160.064327,33.6396436 160.618041,33.3630099 C161.172178,33.0863762 161.650848,32.6921188 162.054262,32.179802 C162.458099,31.6674851 162.778626,31.0373267 163.016053,30.2891089 C163.25348,29.5408911 163.372193,28.6953069 163.372193,27.7519208 C163.372193,26.6946139 163.257507,25.7880396 163.027712,25.0317624 C162.798341,24.2754851 162.469971,23.6575248 162.042814,23.1776634 C161.615234,22.697802 161.096711,22.3442772 160.487668,22.1164356 C159.87799,21.8888119 159.19348,21.7748911 158.433713,21.7748911 C157.484006,21.7748911 156.565885,21.8561386 155.679561,22.0188515 Z M157.16348,31.2283564 C156.90231,31.1551683 156.61337,31.0129307 156.296659,30.8014257 L156.296659,24.5558218 C156.581784,24.4421188 156.874539,24.3650099 157.175351,24.3242772 C157.47595,24.2835446 157.776762,24.2632871 158.077573,24.2632871 C158.504942,24.2632871 158.86511,24.3486733 159.157865,24.5194455 C159.450621,24.6902178 159.680205,24.9300396 159.846404,25.2391287 C160.012602,25.548 160.131316,25.918297 160.202332,26.3493663 C160.273772,26.7802178 160.309386,27.2476634 160.309386,27.7519208 C160.309386,28.8090099 160.091674,29.6711485 159.656462,30.337901 C159.221038,31.0048713 158.678984,31.3381386 158.030088,31.3381386 C157.713589,31.3381386 157.424649,31.3015446 157.16348,31.2283564 Z M183.906228,21.7992871 C183.494759,21.8317426 183.17826,21.9051485 182.95652,22.0188515 C182.734993,22.1327723 182.521308,22.2954851 182.315468,22.5067723 C182.157113,22.6694851 182.018472,22.8605149 181.899971,23.0800792 C181.781257,23.2996436 181.658516,23.5477426 181.531959,23.8241584 C181.389503,24.1169109 181.258918,24.3933267 181.140205,24.6536238 C181.021279,24.9139208 180.891118,25.1903366 180.748238,25.4830891 C180.605994,25.7921782 180.467354,26.0158812 180.333165,26.1539802 C180.198341,26.292297 179.940987,26.3613465 179.561316,26.3613465 L179.062931,26.3613465 L179.062931,21.9944554 L176.094883,21.9944554 L176.094883,33.5825743 L179.062931,33.5825743 L179.062931,28.8497426 L179.466133,28.8497426 C179.671974,28.8497426 179.846016,28.8619406 179.988472,28.8863366 C180.131352,28.9107327 180.25367,28.9636634 180.356696,29.0451287 C180.459722,29.1261584 180.554693,29.2400792 180.641396,29.3864554 C180.728735,29.5328317 180.81989,29.728 180.914437,29.9719604 C181.00962,30.1995842 181.136389,30.4842772 181.294532,30.8258218 C181.421301,31.1185743 181.579656,31.4967129 181.769386,31.9602376 L182.434181,33.5825743 L185.663187,33.5825743 C185.251718,32.7045347 184.919108,31.9846337 184.665994,31.4233069 C184.41288,30.8624158 184.206827,30.4191485 184.048472,30.0939406 C183.874642,29.7199406 183.740029,29.4352475 183.644846,29.2400792 C183.423319,28.768495 183.18992,28.3862178 182.944649,28.0934653 C182.699379,27.8007129 182.347054,27.5974851 181.888311,27.4835644 L181.888311,27.4101584 C182.20481,27.3452475 182.485694,27.1988713 182.730965,26.9712475 C182.976235,26.7434059 183.233589,26.3369505 183.502602,25.7516634 C183.755928,25.1986139 183.941842,24.8202574 184.060556,24.6170297 C184.179269,24.413802 184.310066,24.2469505 184.45231,24.1169109 C184.515694,24.0681188 184.578867,24.027604 184.642039,23.9949307 C184.705424,23.9624752 184.776864,23.9380792 184.855936,23.9217426 C184.935219,23.9054059 185.03019,23.9136832 185.140848,23.9461386 L185.307047,21.848297 C185.085307,21.8154059 184.855936,21.7953663 184.618721,21.7870891 C184.539225,21.7842574 184.459942,21.7829505 184.380658,21.7829505 C184.222303,21.7829505 184.064159,21.788396 183.906228,21.7992871 Z M74.0844737,21.9700594 L74.0844737,32.9726733 C74.7967544,33.2817624 75.5209064,33.5052475 76.2569298,33.6435644 C76.9929532,33.7818812 77.7092617,33.8509307 78.4056433,33.8509307 C79.9885599,33.8509307 81.1913816,33.4605941 82.0145322,32.6799208 C82.8376827,31.8994653 83.249152,30.8175446 83.249152,29.4352475 C83.249152,28.1827723 82.8811404,27.1947327 82.145117,26.4711287 C81.4090936,25.7475248 80.3447003,25.385505 78.9517251,25.385505 C78.5877412,25.385505 78.2790863,25.409901 78.0257602,25.4586931 C77.7724342,25.5074851 77.4478801,25.5806733 77.0523099,25.6782574 L77.0523099,21.9700594 L74.0844737,21.9700594 Z M77.7645906,31.4723168 C77.6064474,31.4479208 77.3688085,31.3952079 77.0523099,31.3135248 L77.0523099,27.9714851 C77.2422515,27.9390297 77.3965789,27.910495 77.5152924,27.886099 C77.6340058,27.861703 77.7368202,27.8453663 77.8239474,27.8373069 C77.9110746,27.8292475 77.993962,27.8211881 78.0732456,27.8129109 C78.1523173,27.8048515 78.247288,27.8007129 78.3579459,27.8007129 C79.0388523,27.8007129 79.5096784,27.9590693 79.770848,28.2764356 C80.0320175,28.5935842 80.1626023,29.0287921 80.1626023,29.5816238 C80.1626023,30.1507921 80.0398611,30.6145347 79.7948026,30.972198 C79.5491082,31.3300792 79.0704386,31.5091287 78.3579459,31.5091287 C78.120731,31.5091287 77.9229459,31.4967129 77.7645906,31.4723168 Z"></path>
        <path d="M115.108274,26 C115.048453,26 115,26.1025477 115,26.2285239 L115,28.7718602 C115,28.8986045 115.048453,29 115.108274,29 L121.892657,29 C121.952106,29 122,28.8986045 122,28.7718602 L122,26.2285239 C122,26.1025477 121.952106,26 121.892657,26 L115.108274,26 Z"></path>
        <path d="M107.227789,42.1887234 C107.217895,42.7221277 106.897263,43.1510638 106.379158,43.1510638 C105.861053,43.1510638 105.540421,42.7221277 105.535368,42.1887234 L104.568211,42.1887234 C104.568211,43.1759574 105.288632,43.8940426 106.379158,43.8940426 C107.464632,43.8940426 108.189895,43.1759574 108.189895,42.1887234 L107.227789,42.1887234 Z M82.5025263,42.1887234 C82.4926316,42.7221277 82.1717895,43.1510638 81.6538947,43.1510638 C81.1355789,43.1510638 80.8149474,42.7221277 80.8101053,42.1887234 L79.8429474,42.1887234 C79.8429474,43.1759574 80.5633684,43.8940426 81.6538947,43.8940426 C82.7393684,43.8940426 83.4646316,43.1759574 83.4646316,42.1887234 L82.5025263,42.1887234 Z M116.203158,42.8070213 L116.203158,43.54 C114.288632,43.6 112.976,44.6821277 112.976,46.5221277 C112.976,48.357234 114.273684,49.4542553 116.203158,49.5091489 L116.203158,50.2721277 L117.461263,50.2721277 L117.461263,49.5091489 C119.375789,49.4444681 120.688211,48.367234 120.688211,46.5270213 C120.688211,44.6870213 119.390737,43.5948936 117.461263,43.54 L117.461263,42.8070213 L116.203158,42.8070213 Z M117.451368,44.6270213 C118.640632,44.6721277 119.405474,45.3851064 119.405474,46.5270213 C119.405474,47.6740426 118.625895,48.367234 117.451368,48.4221277 L117.451368,44.6270213 Z M116.217895,44.6270213 L116.217895,48.4221277 C115.024,48.3723404 114.258947,47.6640426 114.258947,46.5221277 C114.258947,45.3753191 115.038737,44.6770213 116.217895,44.6270213 Z M48.032,42.9417021 L48.032,50.1374468 L49.3050526,50.1374468 L49.3050526,47.7787234 L50.8494737,47.7787234 C52.2903158,47.7787234 53.2968421,46.8014894 53.2968421,45.3753191 C53.2968421,43.9240426 52.3248421,42.9417021 50.9037895,42.9417021 L48.032,42.9417021 Z M49.3050526,44.0187234 L50.5682105,44.0187234 C51.4861053,44.0187234 52.004,44.4925532 52.004,45.3753191 C52.004,46.2329787 51.4711579,46.7117021 50.5633684,46.7117021 L49.3050526,46.7117021 L49.3050526,44.0187234 Z M179.030316,50.2470213 C180.303368,50.2470213 181.196421,49.6287234 181.428421,48.636383 L180.269053,48.636383 C180.091158,49.0404255 179.672,49.2646809 179.064842,49.2646809 C178.260842,49.2646809 177.742526,48.6961702 177.713053,47.7887234 L177.713053,47.7238298 L181.482737,47.7238298 L181.482737,47.3248936 C181.482737,45.6046809 180.56,44.5723404 179.020632,44.5723404 C177.456421,44.5723404 176.484421,45.6742553 176.484421,47.4297872 C176.484421,49.1848936 177.441684,50.2470213 179.030316,50.2470213 Z M180.258947,46.8810638 L177.717895,46.8810638 C177.772,46.0834043 178.285474,45.5546809 179.015579,45.5546809 C179.750737,45.5546809 180.234316,46.0731915 180.258947,46.8810638 Z M149.168632,50.2470213 C150.535158,50.2470213 151.384,49.4791489 151.517263,48.337234 L150.352842,48.337234 C150.224421,48.9057447 149.8,49.21 149.163579,49.21 C148.329684,49.21 147.826526,48.5417021 147.826526,47.3948936 C147.826526,46.262766 148.324842,45.6095745 149.163579,45.6095745 C149.834737,45.6095745 150.239368,45.9885106 150.352842,46.5170213 L151.517263,46.5170213 C151.389053,45.3702128 150.550316,44.5723404 149.163579,44.5723404 C147.540211,44.5723404 146.588,45.6244681 146.588,47.3948936 C146.588,49.19 147.545263,50.2470213 149.168632,50.2470213 Z M137.163789,50.2470213 C138.436632,50.2470213 139.329684,49.6287234 139.561684,48.636383 L138.402105,48.636383 C138.224632,49.0404255 137.805053,49.2646809 137.198105,49.2646809 C136.393895,49.2646809 135.875789,48.6961702 135.846105,47.7887234 L135.846105,47.7238298 L139.615789,47.7238298 L139.615789,47.3248936 C139.615789,45.6046809 138.693263,44.5723404 137.153895,44.5723404 C135.589474,44.5723404 134.617474,45.6742553 134.617474,47.4297872 C134.617474,49.1848936 135.574737,50.2470213 137.163789,50.2470213 Z M138.392211,46.8810638 L135.851158,46.8810638 C135.905474,46.0834043 136.418526,45.5546809 137.148842,45.5546809 C137.884,45.5546809 138.367579,46.0731915 138.392211,46.8810638 Z M124.428421,50.2470213 C126.041895,50.2470213 127.023789,49.18 127.023789,47.4097872 C127.023789,45.6444681 126.037053,44.5723404 124.428421,44.5723404 C122.824842,44.5723404 121.833053,45.6493617 121.833053,47.4097872 C121.833053,49.18 122.809895,50.2470213 124.428421,50.2470213 Z M124.428421,45.6095745 C125.277053,45.6095745 125.765474,46.272766 125.765474,47.4097872 C125.765474,48.5517021 125.282105,49.21 124.428421,49.21 C123.574947,49.21 123.086316,48.5517021 123.086316,47.4097872 C123.086316,46.272766 123.574947,45.6095745 124.428421,45.6095745 Z M88.0928421,50.2470213 C89.4597895,50.2470213 90.3084211,49.4791489 90.4416842,48.337234 L89.2770526,48.337234 C89.1488421,48.9057447 88.7246316,49.21 88.088,49.21 C87.2541053,49.21 86.7507368,48.5417021 86.7507368,47.3948936 C86.7507368,46.262766 87.2492632,45.6095745 88.088,45.6095745 C88.7591579,45.6095745 89.1635789,45.9885106 89.2770526,46.5170213 L90.4416842,46.5170213 C90.3132632,45.3702128 89.4745263,44.5723404 88.088,44.5723404 C86.4646316,44.5723404 85.5122105,45.6244681 85.5122105,47.3948936 C85.5122105,49.19 86.4696842,50.2470213 88.0928421,50.2470213 Z M69.2393684,50.2470213 C70.6061053,50.2470213 71.4547368,49.4791489 71.588,48.337234 L70.4235789,48.337234 C70.2951579,48.9057447 69.8707368,49.21 69.2343158,49.21 C68.4004211,49.21 67.8972632,48.5417021 67.8972632,47.3948936 C67.8972632,46.262766 68.3955789,45.6095745 69.2343158,45.6095745 C69.9054737,45.6095745 70.3101053,45.9885106 70.4235789,46.5170213 L71.588,46.5170213 C71.4597895,45.3702128 70.6208421,44.5723404 69.2343158,44.5723404 C67.6109474,44.5723404 66.6587368,45.6244681 66.6587368,47.3948936 C66.6587368,49.19 67.616,50.2470213 69.2393684,50.2470213 Z M63.2837895,50.2470213 C64.6505263,50.2470213 65.4991579,49.4791489 65.6324211,48.337234 L64.468,48.337234 C64.3397895,48.9057447 63.9153684,49.21 63.2787368,49.21 C62.4450526,49.21 61.9414737,48.5417021 61.9414737,47.3948936 C61.9414737,46.262766 62.44,45.6095745 63.2787368,45.6095745 C63.9496842,45.6095745 64.3545263,45.9885106 64.468,46.5170213 L65.6324211,46.5170213 C65.504,45.3702128 64.6652632,44.5723404 63.2787368,44.5723404 C61.6553684,44.5723404 60.7031579,45.6244681 60.7031579,47.3948936 C60.7031579,49.19 61.6604211,50.2470213 63.2837895,50.2470213 Z M57.0124211,50.2470213 C58.6256842,50.2470213 59.6077895,49.18 59.6077895,47.4097872 C59.6077895,45.6444681 58.6208421,44.5723404 57.0124211,44.5723404 C55.4086316,44.5723404 54.4170526,45.6493617 54.4170526,47.4097872 C54.4170526,49.18 55.3938947,50.2470213 57.0124211,50.2470213 Z M57.0124211,45.6095745 C57.8610526,45.6095745 58.3494737,46.272766 58.3494737,47.4097872 C58.3494737,48.5517021 57.8658947,49.21 57.0124211,49.21 C56.1587368,49.21 55.6701053,48.5517021 55.6701053,47.4097872 C55.6701053,46.272766 56.1587368,45.6095745 57.0124211,45.6095745 Z M184.009053,45.5844681 L184.009053,44.6821277 L182.829684,44.6821277 L182.829684,51.882766 L184.053474,51.882766 L184.053474,49.3097872 L184.137263,49.3097872 C184.413684,49.8880851 185.010737,50.227234 185.785263,50.227234 C187.147368,50.227234 187.996,49.15 187.996,47.4097872 C187.996,45.6593617 187.137474,44.5923404 185.770526,44.5923404 C185.030526,44.5923404 184.403579,44.9661702 184.092842,45.5844681 L184.009053,45.5844681 Z M185.390737,45.6444681 C186.229474,45.6444681 186.737684,46.3076596 186.737684,47.4097872 C186.737684,48.5119149 186.234316,49.1748936 185.385684,49.1748936 C184.551789,49.1748936 184.033684,48.5019149 184.028632,47.4097872 C184.033684,46.322766 184.556842,45.6444681 185.390737,45.6444681 Z M129.545263,45.5844681 L129.545263,44.6821277 L128.365895,44.6821277 L128.365895,51.882766 L129.589684,51.882766 L129.589684,49.3097872 L129.673474,49.3097872 C129.949895,49.8880851 130.546947,50.227234 131.321474,50.227234 C132.683368,50.227234 133.532,49.15 133.532,47.4097872 C133.532,45.6593617 132.673474,44.5923404 131.306737,44.5923404 C130.566526,44.5923404 129.94,44.9661702 129.629053,45.5844681 L129.545263,45.5844681 Z M130.926737,45.6444681 C131.765684,45.6444681 132.273684,46.3076596 132.273684,47.4097872 C132.273684,48.5119149 131.770526,49.1748936 130.921895,49.1748936 C130.088,49.1748936 129.569895,48.5019149 129.564842,47.4097872 C129.569895,46.322766 130.092842,45.6444681 130.926737,45.6444681 Z M171.283789,44.6821277 L171.106105,47.5295745 C171.051789,48.4370213 170.874105,49.0704255 170.351158,49.0704255 C170.217895,49.0704255 170.109474,49.0502128 170.054947,49.0353191 L170.054947,50.1323404 C170.124211,50.1574468 170.262316,50.1923404 170.464632,50.1923404 C171.712842,50.1923404 172.112632,49.1748936 172.216421,47.5991489 L172.349474,45.6693617 L173.933263,45.6693617 L173.933263,50.1374468 L175.152,50.1374468 L175.152,44.6821277 L171.283789,44.6821277 Z M167.839789,44.6821277 L165.461474,48.2923404 L165.377474,48.2923404 L165.377474,44.6821277 L164.168632,44.6821277 L164.168632,50.1374468 L165.377474,50.1374468 L167.755789,46.5021277 L167.839789,46.5021277 L167.839789,50.1374468 L169.048632,50.1374468 L169.048632,44.6821277 L167.839789,44.6821277 Z M158.252421,42.9417021 L158.064842,47.5295745 C158.015579,48.2625532 157.847789,48.9106383 157.448211,49.15 L157.023789,49.15 L157.023789,51.5587234 L158.148842,51.5587234 L158.148842,50.1374468 L162.012211,50.1374468 L162.012211,51.5587234 L163.137263,51.5587234 L163.137263,49.15 L162.313263,49.15 L162.313263,42.9417021 L158.252421,42.9417021 Z M158.760632,49.0602128 C158.997474,48.7212766 159.120842,48.1925532 159.165263,47.5991489 L159.303579,43.9240426 L161.089684,43.9240426 L161.089684,49.15 L158.760632,49.15 L158.760632,49.0602128 Z M144.224421,44.6821277 L142.413684,46.8661702 L142.176842,46.8661702 L142.176842,44.6821277 L140.953263,44.6821277 L140.953263,50.1374468 L142.176842,50.1374468 L142.176842,47.7938298 L142.423579,47.7938298 L144.254105,50.1374468 L145.744211,50.1374468 L143.425053,47.2002128 L145.635579,44.6821277 L144.224421,44.6821277 Z M107.696632,44.6821277 L105.318316,48.2923404 L105.234316,48.2923404 L105.234316,44.6821277 L104.025474,44.6821277 L104.025474,50.1374468 L105.234316,50.1374468 L107.612632,46.5021277 L107.696632,46.5021277 L107.696632,50.1374468 L108.905474,50.1374468 L108.905474,44.6821277 L107.696632,44.6821277 Z M101.247368,44.6821277 L98.8692632,48.2923404 L98.7854737,48.2923404 L98.7854737,44.6821277 L97.5764211,44.6821277 L97.5764211,50.1374468 L98.7854737,50.1374468 L101.163789,46.5021277 L101.247368,46.5021277 L101.247368,50.1374468 L102.456421,50.1374468 L102.456421,44.6821277 L101.247368,44.6821277 Z M94.976,44.6821277 L93.1652632,46.8661702 L92.9284211,46.8661702 L92.9284211,44.6821277 L91.7048421,44.6821277 L91.7048421,50.1374468 L92.9284211,50.1374468 L92.9284211,47.7938298 L93.1751579,47.7938298 L95.0058947,50.1374468 L96.4957895,50.1374468 L94.1768421,47.2002128 L96.3873684,44.6821277 L94.976,44.6821277 Z M82.9711579,44.6821277 L80.5928421,48.2923404 L80.5090526,48.2923404 L80.5090526,44.6821277 L79.3002105,44.6821277 L79.3002105,50.1374468 L80.5090526,50.1374468 L82.8873684,46.5021277 L82.9711579,46.5021277 L82.9711579,50.1374468 L84.18,50.1374468 L84.18,44.6821277 L82.9711579,44.6821277 Z M76.5223158,44.6821277 L74.1437895,48.2923404 L74.06,48.2923404 L74.06,44.6821277 L72.8511579,44.6821277 L72.8511579,50.1374468 L74.06,50.1374468 L76.4383158,46.5021277 L76.5223158,46.5021277 L76.5223158,50.1374468 L77.7311579,50.1374468 L77.7311579,44.6821277 L76.5223158,44.6821277 Z M152.800211,47.8187234 L156.041895,47.8187234 L156.041895,46.6568085 L152.800211,46.6568085 L152.800211,47.8187234 Z"></path>
    </g>
</svg>