<svg xmlns="http://www.w3.org/2000/svg" xmlns:xlink="http://www.w3.org/1999/xlink" width="18" height="14" viewBox="0 0 18 14">
  <defs>
    <path id="a" d="M0 0h26v26H0z"/>
  </defs>
  <g fill="none" fill-rule="evenodd" transform="translate(-4 -6)">
    <mask id="b" fill="#fff">
      <use xlink:href="#a"/>
    </mask>
    <path fill="#B5BBC2" fill-rule="nonzero" d="M22 6.5v1c0 .3-.3.5-.75.5H4.75C4.3 8 4 7.8 4 7.5v-1c0-.3.3-.5.75-.5h16.5c.45 0 .75.2.75.5zm0 6v1c0 .3-.3.5-.75.5H4.75c-.45 0-.75-.2-.75-.5v-1c0-.3.3-.5.75-.5h16.5c.45 0 .75.2.75.5zm0 6v1c0 .3-.3.5-.75.5H4.75c-.45 0-.75-.2-.75-.5v-1c0-.3.3-.5.75-.5h16.5c.45 0 .75.2.75.5z" mask="url(#b)"/>
  </g>
</svg>
