<svg xmlns="http://www.w3.org/2000/svg" xmlns:xlink="http://www.w3.org/1999/xlink" width="78px" height="61px" version="1.1" viewBox="0 0 78 61">
    <g>
        <polygon id="Rectangle-15" fill="#EDEFF3" fill-rule="evenodd" stroke="none" points="0 36 78 36 78 61 0 61"/>
        <polyline id="Path-21" fill="none" stroke="#F50032" stroke-linecap="round" stroke-linejoin="round" stroke-width="2" points="20 34.0192512 24.0448015 29.9979724 28.0423057 29.9979724 33.0451506 25"/>
        <polyline id="Path-20" fill="none" stroke="#6F86A2" stroke-linejoin="round" stroke-width="1" points="17 21 17 36.5 36.5 36.5"/>
        <path id="Path-22" fill="none" stroke="#6F86A2" stroke-width="1" d="M16,44.5 L22,44.5"/>
        <path id="Path-22-Copy" fill="none" stroke="#6F86A2" stroke-width="1" d="M25,44.5 L36,44.5"/>
        <path id="Path-22-Copy-2" fill="none" stroke="#6F86A2" stroke-width="1" d="M47,44.5 L62,44.5"/>
        <path id="Path-22-Copy-3" fill="none" stroke="#6F86A2" stroke-width="1" d="M47,37.5 L62,37.5"/>
        <path id="Path-22-Copy-5" fill="none" stroke="#6F86A2" stroke-width="1" d="M47,30.5 L62,30.5"/>
        <path id="Path-22-Copy-4" fill="none" stroke="#6F86A2" stroke-width="1" d="M47,23.5 L62,23.5"/>
        <rect id="Rectangle-4" width="76" height="59" x="1" y="1" fill="none" stroke="#6F86A2" stroke-width="2" rx="2"/>
        <path id="Path-9-Copy-2" fill="none" stroke="#6F86A2" stroke-linecap="round" stroke-width="1" d="M77,10.5 L1,10.5"/>
        <path id="Path-9-Copy-7" fill="none" stroke="#E30000" stroke-linecap="round" stroke-width="2" d="M8,6 L6,6"/>
        <path id="Path-9-Copy-8" fill="none" stroke="#E30000" stroke-linecap="round" stroke-width="2" d="M14,6 L12,6"/>
        <path id="Path-9-Copy-9" fill="none" stroke="#E30000" stroke-linecap="round" stroke-width="2" d="M20,6 L18,6"/>
    </g>
</svg>
