<svg xmlns="http://www.w3.org/2000/svg" width="78" height="61"><path fill="#edeff3" d="M0 36h78l-1.4 23.7-75.2.1z"/><path d="M75 61H3c-1.7 0-3-1.3-3-3V3c0-1.7 1.3-3 3-3h72c1.7 0 3 1.3 3 3v55c0 1.7-1.3 3-3 3zM3 2c-.6 0-1 .4-1 1v55c0 .6.4 1 1 1h72c.6 0 1-.4 1-1V3c0-.6-.4-1-1-1H3z" fill="#6f86a2"/><path d="M77 10.5H1c-.3 0-.5-.2-.5-.5s.2-.5.5-.5h76c.3 0 .5.2.5.5s-.2.5-.5.5z" fill="#6f86a2"/><path d="M8 7H6c-.6 0-1-.4-1-1s.4-1 1-1h2c.6 0 1 .4 1 1s-.4 1-1 1zM14 7h-2c-.6 0-1-.4-1-1s.4-1 1-1h2c.6 0 1 .4 1 1s-.4 1-1 1zM20 7h-2c-.6 0-1-.4-1-1s.4-1 1-1h2c.6 0 1 .4 1 1s-.4 1-1 1zM12 34c-.6 0-1-.4-1-1v-2c0-.6.4-1 1-1s1 .4 1 1v2c0 .6-.4 1-1 1zM36 34c-.6 0-1-.4-1-1v-2c0-.6.4-1 1-1s1 .4 1 1v2c0 .6-.4 1-1 1zM60 34c-.6 0-1-.4-1-1v-2c0-.6.4-1 1-1s1 .4 1 1v2c0 .6-.4 1-1 1zM66 34c-.6 0-1-.4-1-1v-4c0-.6.4-1 1-1s1 .4 1 1v4c0 .6-.4 1-1 1zM54 34c-.6 0-1-.4-1-1v-3.1c0-.6.4-1 1-1s1 .4 1 1V33c0 .6-.4 1-1 1zM48 34c-.6 0-1-.4-1-1v-6c0-.6.4-1 1-1s1 .4 1 1v6c0 .6-.4 1-1 1zM30 34c-.6 0-1-.4-1-1v-6c0-.6.4-1 1-1s1 .4 1 1v6c0 .6-.4 1-1 1zM18 34c-.6 0-1-.4-1-1V23c0-.6.4-1 1-1s1 .4 1 1v10c0 .6-.4 1-1 1zM42 34c-.6 0-1-.4-1-1v-3.1c0-.6.4-1 1-1s1 .4 1 1V33c0 .6-.4 1-1 1zM24 34c-.6 0-1-.4-1-1v-3.1c0-.6.4-1 1-1s1 .4 1 1V33c0 .6-.4 1-1 1z" fill="#e30000"/><path d="M12 43c-.6 0-1-.4-1-1v-3c0-.6.4-1 1-1s1 .4 1 1v3c0 .6-.4 1-1 1zM36 43c-.6 0-1-.4-1-1v-3c0-.6.4-1 1-1s1 .4 1 1v3c0 .6-.4 1-1 1zM60 43c-.6 0-1-.4-1-1v-3c0-.6.4-1 1-1s1 .4 1 1v3c0 .6-.4 1-1 1zM66 45c-.6 0-1-.4-1-1v-5c0-.6.4-1 1-1s1 .4 1 1v5c0 .6-.4 1-1 1zM54 44.1c-.6 0-1-.4-1-1V39c0-.6.4-1 1-1s1 .4 1 1v4.1c0 .5-.4 1-1 1zM48 48c-.6 0-1-.4-1-1v-8c0-.6.4-1 1-1s1 .4 1 1v8c0 .6-.4 1-1 1zM30 48c-.6 0-1-.4-1-1v-8c0-.6.4-1 1-1s1 .4 1 1v8c0 .6-.4 1-1 1zM18 50c-.6 0-1-.4-1-1V39c0-.6.4-1 1-1s1 .4 1 1v10c0 .6-.4 1-1 1zM42 44.1c-.6 0-1-.4-1-1V39c0-.6.4-1 1-1s1 .4 1 1v4.1c0 .5-.4 1-1 1zM24 44.1c-.6 0-1-.4-1-1V39c0-.6.4-1 1-1s1 .4 1 1v4.1c0 .5-.4 1-1 1z" fill="#6f86a2"/></svg>