<svg xmlns="http://www.w3.org/2000/svg" xmlns:xlink="http://www.w3.org/1999/xlink" width="78" height="61"><defs><path id="a" d="M0 0h84v84H0z"/></defs><g fill="none" fill-rule="evenodd" transform="translate(-3 -11)"><mask id="b" fill="#fff"><use xlink:href="#a"/></mask><g mask="url(#b)"><g transform="translate(3 11)"><path fill="#EDEFF3" d="M0 36h78v25H0z"/><rect width="76" height="59" x="1" y="1" stroke="#6F86A2" stroke-width="2" rx="2"/><path stroke="#6F86A2" stroke-linecap="round" d="M77 10.5H1"/><path stroke="#E30000" stroke-linecap="round" stroke-width="2" d="M8 6H6M14 6h-2M20 6h-2"/><g stroke-linecap="round" stroke-width="2"><path stroke="#E30000" d="M12 33v-2M36 33v-2M60 33v-2M66 33v-4M54 33v-3.0623M48 33v-6.0416M30 33v-6.0416M18 33V23M42 33v-3.0623M24 33v-3.0623"/><path stroke="#6F86A2" d="M12 42v-3M36 42v-3M60 42v-3M66 44v-5M54 43.0623V39M48 47.0416V39M30 47.0416V39M18 49V39M42 43.0623V39M24 43.0623V39"/></g></g></g></g></svg>