<svg xmlns="http://www.w3.org/2000/svg" xmlns:xlink="http://www.w3.org/1999/xlink" width="36px" height="60px" viewBox="0 0 36 60">
    <g fill="none" transform="translate(-15.000000, -3.000000)">
        <polygon fill="#EDEFF3" points="17 12 49 12 49 53 17 53"/>
        <path id="Clip-2" fill="#E30000" d="M31.5496203,25.6333208 C31.382856,26.0667758 28.1274383,34.3858905 28.006039,34.7031309 C27.9706575,34.791448 28.0162621,34.8967722 28.1150588,34.9316813 C28.2168904,34.968679 29.9426771,35.5931646 30.0433107,35.630759 C30.1436249,35.6677568 30.2468143,35.6110667 30.2797199,35.52633 C30.3129449,35.4421901 31.032076,33.5952881 31.1132218,33.3891154 L36.0110441,33.3891154 C36.091551,33.5952881 36.8036536,35.4386096 36.838476,35.52633 C36.8736179,35.6144234 36.980641,35.663878 37.0755241,35.630759 C37.1704073,35.5970434 38.8882072,34.9731545 39.0054533,34.9316813 C39.12238,34.8902081 39.1405899,34.7733221 39.1127958,34.7031309 C39.014079,34.4495922 35.7081848,25.9940485 35.5663393,25.6333208 C35.2318523,24.7817767 34.8318736,23.9302326 33.559098,23.9302326 C32.2866417,23.9302326 31.871568,24.7952033 31.5496203,25.6333208 Z M33.5492742,26.6910376 L33.5696405,26.6910376 L35.2318523,31.3357424 L31.892733,31.3357424 L33.5492742,26.6910376 Z M27.7437527,39.0584181 C27.6412022,39.0584181 27.5581395,39.1380825 27.5581395,39.2359474 L27.5581395,41.2117446 C27.5581395,41.3102062 27.6412022,41.3889756 27.7437527,41.3889756 L39.3741238,41.3889756 C39.4760353,41.3889756 39.5581395,41.3102062 39.5581395,41.2117446 L39.5581395,39.2359474 C39.5581395,39.1380825 39.4760353,39.0584181 39.3741238,39.0584181 L27.7437527,39.0584181 Z"/>
        <rect width="66" height="66" x="0" y="0"/>
        <path stroke="#6F86A2" stroke-width="2" d="M50,58.8139535 L50,43.4651163 C50,40.7741221 50,40.7741221 50,35.5000284 C50,29.3649015 50,29.3649015 50,22.3687415 C50,14.0549413 50,14.0549413 50,7.18604651 C50,5.42053913 48.6169845,4 46.9245283,4 L19.0754717,4 C17.3830155,4 16,5.42053913 16,7.18604651 L16,58.8139535 C16,60.5794609 17.3830155,62 19.0754717,62 L46.9245283,62 C48.6169845,62 50,60.5794609 50,58.8139535 Z"/>
        <path stroke="#6F86A2" d="M15,12.5 L51,12.5"/>
        <path stroke="#6F86A2" d="M15,53.5 L51,53.5"/>
        <path stroke="#6F86A2" stroke-linecap="round" stroke-width="2" d="M25.7351838,8.5 L29.2235559,8.5"/>
        <path stroke="#6F86A2" stroke-linecap="round" stroke-width="2" d="M33.4096024,8.5 L40.3863466,8.5"/>
        <path stroke="#6F86A2" stroke-linecap="round" stroke-width="2" d="M30.3488372,57.5 L36.627907,57.5"/>
    </g>
</svg>
