<?xml version="1.0" encoding="UTF-8"?>
<svg width="18px" height="20px" viewBox="0 0 18 20" version="1.1" xmlns="http://www.w3.org/2000/svg" xmlns:xlink="http://www.w3.org/1999/xlink">
    <!-- Generator: Sketch 49.1 (51147) - http://www.bohemiancoding.com/sketch -->
    <title> copy</title>
    <desc>Created with Sketch.</desc>
    <defs></defs>
    <g id="3_" stroke="none" stroke-width="1" fill="none" fill-rule="evenodd">
        <g id="AF-internet-trading" transform="translate(-653.000000, -2969.000000)" fill="#FFFFFF">
            <g id="Group-10" transform="translate(627.000000, 2951.000000)">
                <g id="Group-31-Copy-6" transform="translate(22.000000, 15.000000)">
                    <path d="M13,3 C15.5614163,3.03481305 17.6842021,3.46996971 19.3684211,4.30548303 C21.05264,5.14099634 21.9298242,6.18537232 22,7.4386423 C21.9298242,8.72672533 21.05264,9.78850757 19.3684211,10.6240209 C17.6842021,11.4595342 15.5614163,11.8772846 13,11.8772846 C10.4385837,11.8772846 8.31579789,11.4595342 6.63157895,10.6240209 C4.94736,9.78850757 4.07017579,8.72672533 4,7.4386423 C4.07017579,6.18537232 4.94736,5.14099634 6.63157895,4.30548303 C8.31579789,3.46996971 10.4385837,3.03481305 13,3 Z M4,9.68407311 C4.07017579,10.9373431 4.94736,11.9817191 6.63157895,12.8172324 C8.31579789,13.6527457 10.4385837,14.0704961 13,14.0704961 C15.5614163,14.0704961 17.6842021,13.6527457 19.3684211,12.8172324 C21.05264,11.9817191 21.9298242,10.9373431 22,9.68407311 L22,13.0261097 C21.9298242,14.2793796 21.05264,15.3237556 19.3684211,16.1592689 C17.6842021,16.9947822 15.5614163,17.4125326 13,17.4125326 C10.4385837,17.4125326 8.31579789,16.9947822 6.63157895,16.1592689 C4.94736,15.3237556 4.07017579,14.2793796 4,13.0261097 L4,9.68407311 Z M4,15.2715405 C4.07017579,16.5248104 4.94736,17.5691864 6.63157895,18.4046997 C8.31579789,19.2402131 10.4385837,19.6579634 13,19.6579634 C15.5614163,19.6579634 17.6842021,19.2402131 19.3684211,18.4046997 C21.05264,17.5691864 21.9298242,16.5248104 22,15.2715405 L22,18.613577 C21.9298242,19.866847 21.05264,20.911223 19.3684211,21.7467363 C17.6842021,22.5822496 15.5614163,23 13,23 C10.4385837,23 8.31579789,22.5822496 6.63157895,21.7467363 C4.94736,20.911223 4.07017579,19.866847 4,18.613577 L4,15.2715405 Z" id="-copy"></path>
                </g>
            </g>
        </g>
    </g>
</svg>