<svg width="18" height="18" viewBox="0 0 18 18" xmlns="http://www.w3.org/2000/svg">
  <path d="M4 18H2c-1.10457 0-2-.89543-2-2V5c0-.55228.44772-1 1-1h2V1c0-.55228.44772-1 1-1h13c.55228 0 1 .44772 1 1v15c0 1.10457-.89543 2-2 2H4zm-2-1c.63268 0 1.00004-.51831 1-1.15537V5H1v10.84463C1 16.48173 1.36732 17 2 17zM4.39973 1v15.03098c.01357.66686-.11967.98953-.39973.96801h12c.55228 0 1-.44771 1-1V1H4.39973zM6 3h9v5H6V3zm1 1v3h7V4H7zm-1 6h9v1H6v-1zm0 3h5v1H6v-1z" fill="#6D7986" fill-rule="evenodd"/>
</svg>
