<svg xmlns="http://www.w3.org/2000/svg" xmlns:xlink="http://www.w3.org/1999/xlink" width="76" height="86" viewBox="0 0 76 86">
    <g fill="none">
        <path fill="#EDEFF3" d="M1 48h13v36H1z"/>
        <path stroke="#6F86A2" stroke-width="2" d="M54.986 85.0143a.0759.0759 0 0 0 .0012-.0029zm.0066-.0217c.0052-.0294.0074-.0935.0074-.2745v-7.4362c0-.181-.0022-.2451-.0074-.2745-.0294-.0052-.0935-.0074-.2745-.0074H47V2.5639c0-.6619-.039-.8634-.149-1.0691a.8177.8177 0 0 0-.3458-.3459C46.2995 1.039 46.098 1 45.4362 1H14.5638c-.6619 0-.8634.039-1.0691.149a.8177.8177 0 0 0-.3459.3458c-.11.2057-.1489.4072-.1489 1.069V47H2.5639c-.6619 0-.8634.039-1.0691.149a.8177.8177 0 0 0-.3459.3458c-.11.2057-.1489.4072-.1489 1.069v34.8723c0 .6619.039.8634.149 1.0691a.8177.8177 0 0 0 .3458.3459c.2057.11.4072.1489 1.069.1489h10.8723c.196 0 .3589-.0049.4944-.0143h.139c.1355.0094.2984.0143.4944.0143H54.718c.181 0 .2451-.0022.2745-.0074z"/>
        <path stroke="#6F86A2" stroke-width="2" d="M25 75h10v10H25z"/>
        <rect width="8" height="5" x="5" y="42" stroke="#6F86A2" stroke-width="2" rx="1"/>
        <path stroke="#E30000" stroke-width="2" d="M19 36h22m-22-8h22m-22-8h22m-22-8h22M19 44h22m-22 8h22m-22 7h22"/>
        <path stroke="#6F86A2" d="M5 52.5h9m-9 4h9"/>
        <path stroke="#E30000" stroke-width="2" d="M19 67h22"/>
        <path stroke="#6F86A2" d="M5 60.5h9m-9 4h9m-9 4h9m-9 4h9m-9 4h9"/>
        <path stroke="#6F86A2" stroke-width="2" d="M47 75v9.9803m23-13.4896V86m0-5.916c2.7614 0 5-2.2386 5-5C75 71.1368 72.0764 66 70 66s-5 5.242-5 9.084c0 2.7614 2.2386 5 5 5z"/>
        <circle cx="63.5" cy="7.5" r="5.5" stroke="#E30000" stroke-width="2"/>
    </g>
</svg>
