<svg xmlns="http://www.w3.org/2000/svg" xmlns:xlink="http://www.w3.org/1999/xlink" width="84" height="67" viewBox="0 0 84 67">
    <g fill="none" fill-rule="evenodd" transform="translate(-18 -33)">
        <path stroke="#6F86A2" stroke-width="2" d="M98 34H22c-1.6569 0-3 1.3431-3 3v51c0 1.6569 1.3431 3 3 3h76c1.6569 0 3-1.3431 3-3V37c0-1.6569-1.3431-3-3-3zM60 91v8"/>
        <path stroke="#6F86A2" stroke-linecap="round" stroke-width="2" d="M69 99H51"/>
        <path stroke="#6F86A2" stroke-linecap="round" d="M101 84.5H19"/>
        <path fill="#EDEFF3" d="M24 39h72v40H24z"/>
        <path fill="#E30000" d="M58.3262 54.5257c-.139.3883-2.8518 7.8408-2.953 8.125-.0294.0791.0086.1735.0909.2048.0849.0331 1.523.5925 1.6069.6262.0836.0332.1696-.0176.197-.0935.0277-.0754.627-1.73.6946-1.9146h4.0815c.067.1847.6605 1.836.6895 1.9146.0293.0789.1185.1232.1976.0935.079-.0302 1.5105-.589 1.6082-.6262.0975-.0372.1126-.1419.0895-.2048-.0823-.2271-2.8372-7.8019-2.9554-8.125-.2787-.7629-.612-1.5257-1.6727-1.5257-1.0604 0-1.4063.7749-1.6746 1.5257zm1.6664.9475h.017l1.3852 4.1609h-2.7826l1.3804-4.1609zm-4.838 11.0791c-.0854 0-.1546.0714-.1546.159v1.77c0 .0883.0692.1588.1547.1588h9.692c.0849 0 .1533-.0705.1533-.1587v-1.77c0-.0877-.0684-.159-.1533-.159h-9.692z"/>
        <path stroke="#E30000" stroke-linecap="round" stroke-width="2" d="M31 43h-2m8 0h-2m8 0h-2"/>
    </g>
</svg>
