<svg xmlns="http://www.w3.org/2000/svg" width="120" height="120" viewBox="0 0 120 120">
  <g data-name="Layer 2">
    <g data-name="Layer 1">
      <rect width="120" height="120" fill="none" rx=".28" ry=".28"/>
      <path fill="#edeff3" d="M92 73h.44a2.9 2.9 0 0 0 1.56-.27 1.82 1.82 0 0 0 .76-.76 2.9 2.9 0 0 0 .24-1.53v-4.88a2.9 2.9 0 0 0-.27-1.56 1.82 1.82 0 0 0-.76-.76 2.9 2.9 0 0 0-1.53-.24H92v-9h.44a2.9 2.9 0 0 0 1.56-.27 1.82 1.82 0 0 0 .76-.76 2.9 2.9 0 0 0 .24-1.53v-4.88a2.9 2.9 0 0 0-.27-1.56 1.82 1.82 0 0 0-.76-.76 2.9 2.9 0 0 0-1.53-.24H92v-5.15a4.35 4.35 0 0 0-.4-2.31 2.73 2.73 0 0 0-1.13-1.13 4.35 4.35 0 0 0-2.31-.4H32.85a4.35 4.35 0 0 0-2.31.4 2.73 2.73 0 0 0-1.13 1.13 4.35 4.35 0 0 0-.4 2.31v38.3a4.35 4.35 0 0 0 .4 2.31 2.73 2.73 0 0 0 1.13 1.13 4.35 4.35 0 0 0 2.31.4h55.3a4.35 4.35 0 0 0 2.31-.4 2.73 2.73 0 0 0 1.13-1.13 4.35 4.35 0 0 0 .4-2.31zM24.85 28h71.3a4.35 4.35 0 0 1 2.31.4 2.73 2.73 0 0 1 1.13 1.13 4.35 4.35 0 0 1 .4 2.31v52.31a4.35 4.35 0 0 1-.4 2.31 2.73 2.73 0 0 1-1.13 1.13 4.35 4.35 0 0 1-2.31.4h-71.3a4.35 4.35 0 0 1-2.31-.4 2.73 2.73 0 0 1-1.13-1.13 4.35 4.35 0 0 1-.4-2.31v-52.3a4.35 4.35 0 0 1 .4-2.31 2.73 2.73 0 0 1 1.13-1.13 4.35 4.35 0 0 1 2.31-.41z"/>
      <path fill="#6f86a2" d="M96.72 89H24.28A4.28 4.28 0 0 1 20 84.72V31.28A4.28 4.28 0 0 1 24.28 27h72.44a4.28 4.28 0 0 1 4.28 4.28v53.44A4.28 4.28 0 0 1 96.72 89zM24.28 29A2.28 2.28 0 0 0 22 31.28v53.44A2.28 2.28 0 0 0 24.28 87h72.44A2.28 2.28 0 0 0 99 84.72V31.28A2.28 2.28 0 0 0 96.72 29z"/>
      <path fill="#6f86a2" d="M71 60h-3.93a1 1 0 0 1 0-2H71a1 1 0 0 1 0 2zm21.72-6h-2.44a2.78 2.78 0 0 1-2.78-2.78v-4.44A2.78 2.78 0 0 1 90.28 44h2.45a2.78 2.78 0 0 1 2.78 2.78v4.45A2.78 2.78 0 0 1 92.72 54zm-2.45-9a1.78 1.78 0 0 0-1.78 1.78v4.45A1.78 1.78 0 0 0 90.28 53h2.45a1.78 1.78 0 0 0 1.78-1.78v-4.44A1.78 1.78 0 0 0 92.72 45zm2.45 28h-2.44a2.78 2.78 0 0 1-2.78-2.78v-4.44A2.78 2.78 0 0 1 90.28 63h2.45a2.78 2.78 0 0 1 2.78 2.78v4.45A2.78 2.78 0 0 1 92.72 73zm-2.45-9a1.78 1.78 0 0 0-1.78 1.78v4.45A1.78 1.78 0 0 0 90.28 72h2.45a1.78 1.78 0 0 0 1.78-1.78v-4.44A1.78 1.78 0 0 0 92.72 64z"/>
      <path fill="#6f86a2" d="M77.72 69H44.28a.28.28 0 0 1-.28-.28V47.28a.28.28 0 0 1 .28-.28h33.44a.28.28 0 0 1 .28.28v21.44a.28.28 0 0 1-.28.28zm-32.44-1h31.44a.28.28 0 0 0 .28-.28V48.28a.28.28 0 0 0-.28-.28H45.28a.28.28 0 0 0-.28.28v19.44a.28.28 0 0 0 .28.28z"/>
      <path fill="#e30000" d="M71 54H51.33a1 1 0 0 1 0-2H71a1 1 0 0 1 0 2z"/>
      <path fill="#6f86a2" d="M55 60h-3.93a1 1 0 0 1 0-2H55a1 1 0 0 1 0 2zm8 0h-3.93a1 1 0 0 1 0-2H63a1 1 0 0 1 0 2zm-8 4h-3.93a1 1 0 0 1 0-2H55a1 1 0 0 1 0 2zm16 0h-3.93a1 1 0 0 1 0-2H71a1 1 0 0 1 0 2zm-8 0h-3.93a1 1 0 0 1 0-2H63a1 1 0 0 1 0 2z"/>
      <g fill="#6f86a2">
        <path d="M91 53.96h1V64h-1z"/>
        <path d="M91 72v5.15a3.5 3.5 0 0 1-.28 1.85 1.74 1.74 0 0 1-.72.72 3.5 3.5 0 0 1-1.84.28H32.85a3.49 3.49 0 0 1-1.85-.28 1.73 1.73 0 0 1-.72-.72 3.5 3.5 0 0 1-.28-1.85v-38.3a3.5 3.5 0 0 1 .28-1.85 1.74 1.74 0 0 1 .72-.72 3.5 3.5 0 0 1 1.85-.28h55.3a3.5 3.5 0 0 1 1.84.28 1.73 1.73 0 0 1 .72.72 3.49 3.49 0 0 1 .29 1.85V44h1v-5.15a5.21 5.21 0 0 0-.26-2A2.88 2.88 0 0 0 90 35.18a6 6 0 0 0-1.8-.18H32.85a5.18 5.18 0 0 0-2 .26 2.88 2.88 0 0 0-1.57 1.57 5.18 5.18 0 0 0-.26 2v38.32a6 6 0 0 0 .18 1.8 2.88 2.88 0 0 0 1.66 1.79 5.21 5.21 0 0 0 2 .26h55.29a5.16 5.16 0 0 0 2-.26 2.88 2.88 0 0 0 1.57-1.57 5.18 5.18 0 0 0 .26-2V72z"/>
      </g>
    </g>
  </g>
</svg>
