<svg xmlns="http://www.w3.org/2000/svg" xmlns:xlink="http://www.w3.org/1999/xlink" width="22" height="22" viewBox="0 0 22 22">
  <g transform="translate(-2 -2)">
    <path fill-rule="nonzero" d="M23.6655 22.0385l-5.4234-5.4457c1.3945-1.6004 2.1585-3.614 2.1585-5.7103C20.4006 5.9848 16.2733 2 11.2003 2S2 5.9848 2 10.8825s4.1273 8.8825 9.2003 8.8825c1.9045 0 3.7193-.5546 5.271-1.6074l5.4645 5.4871c.2285.229.5357.3553.8649.3553.3116 0 .6072-.1147.8316-.3232.4768-.443.492-1.1776.0332-1.6383zM11.2003 4.3172c3.7497 0 6.8002 2.9451 6.8002 6.5653 0 3.6202-3.0505 6.5653-6.8002 6.5653-3.7497 0-6.8002-2.9451-6.8002-6.5653 0-3.6202 3.0505-6.5653 6.8002-6.5653z"></path>
  </g>
</svg>
