<svg xmlns="http://www.w3.org/2000/svg" xmlns:xlink="http://www.w3.org/1999/xlink" id="Shield" width="68" height="83">
    <defs xmlns="http://www.w3.org/2000/svg">
        <linearGradient id="d" x1="50%" y1="41.0250694%" y2="41.0250694%">
            <stop offset="0%" stop-color="#B6C1D1"/>
            <stop offset="100%" stop-color="#7F8DA5"/>
        </linearGradient>
    </defs>
    <g xmlns="http://www.w3.org/2000/svg" fill="none" fill-rule="evenodd">
        <use xmlns="http://www.w3.org/2000/svg" xmlns:xlink="http://www.w3.org/1999/xlink" fill="#F0F2F5" fill-rule="evenodd" style="
" xlink:href="#c"/>
        <path stroke="#6F86A2" stroke-width="2" d="M66.3809524,14.8966146 C56.9565539,14.8966146 49.1042547,12.3306229 42.5421197,7.99445673 C39.7245657,6.13265683 37.8703207,4.52046205 35.4363564,2.10501085 C34.7115127,1.38546131 34.5268267,1.21660952 34.3268154,1.09290633 C34.1265093,0.969043374 33.8731048,0.969043374 33.6729041,1.09287959 C33.5569986,1.16456002 33.4584915,1.25289793 32.9794569,1.72013488 C30.4846889,4.15236962 28.2909941,5.99938365 25.0015386,8.0787429 C24.8908758,8.14855058 24.8908758,8.14855058 24.7791373,8.218447 C17.6802658,12.6478776 9.88275419,14.8966146 1.61904762,14.8966146 C1.27669519,14.8966146 1,15.1727694 1,15.5125 L1,36.7113008 C1,46.6728423 4.14723138,56.1577181 10.1043995,64.1491535 C16.5808925,72.8350028 25.0105501,79.0682931 33.8214249,81.7071343 C33.8795171,81.7245217 33.9397823,81.7333333 34,81.7333333 C34.0602177,81.7333333 34.1204829,81.7245217 34.1784074,81.7071845 C42.9894624,79.0682894 51.4191179,72.8349899 57.8956863,64.1490941 C63.8527928,56.1576869 67,46.6728018 67,36.7113008 L67,15.5125 C67,15.1727694 66.7233048,14.8966146 66.3809524,14.8966146 Z" class="outerLine"/>
        <path id="c" d="M66.3809524,13.8966146 C48.7378667,13.8966146 39.2565619,4.4873138 36.1408667,1.39531706 C35.5066857,0.765768099 35.188219,0.4498625 34.8527524,0.242382813 C34.3301238,-0.0807942708 33.6693905,-0.0807942708 33.1469238,0.242382813 C32.9162095,0.385065495 32.7303429,0.56620625 32.281381,1.0041112 C31.1278095,2.12876745 28.4265905,4.76282227 24.2497714,7.37005339 C17.3090762,11.7007879 9.69485714,13.8966146 1.61904762,13.8966146 C0.724847619,13.8966146 0,14.6200465 0,15.5125 L0,36.7113008 C0,46.8881471 3.21672381,56.5826517 9.30272381,64.7469128 C15.9026095,73.5982483 24.5083333,79.9617667 33.5346857,82.665143 C33.6863905,82.7105493 33.8432762,82.7333333 34,82.7333333 C34.1567238,82.7333333 34.3136095,82.7105493 34.4653143,82.665143 C43.4916667,79.9617667 52.0973905,73.5982483 58.6974381,64.7467512 C64.7832762,56.5826517 68,46.8881471 68,36.7113008 L68,15.5125 C68,14.6200465 67.2751524,13.8966146 66.3809524,13.8966146 Z" class="innerColor"/>
        <path stroke="#0E3464" stroke-opacity=".6" d="M7.5,38.2862109 C7.5,46.2975237 10.0199966,53.9267676 14.7889461,60.3534409 C19.9684708,67.3316 26.7144214,72.3426547 33.7744558,74.4667774 C33.8477928,74.4888279 33.9238547,74.5 34,74.5 C34.0761453,74.5 34.1522072,74.4888279 34.2254601,74.4668027 C41.2855885,72.3426517 48.031537,67.3315899 53.2111445,60.3533631 C57.9800229,53.9267419 60.5,46.297491 60.5,38.2862109 L60.5,21.375 C60.5,20.9389025 60.1479518,20.5859375 59.7142857,20.5859375 C52.2900683,20.5859375 46.1097365,18.557093 40.9447204,15.1285389 C38.7268228,13.6562915 37.2672237,12.3814313 35.3470375,10.4671491 C34.7516809,9.8734422 34.5997229,9.73387807 34.4133502,9.6180838 C34.1599038,9.46064484 33.8397606,9.46064484 33.5864143,9.61807035 C33.4682453,9.69148436 33.3837037,9.76764459 32.9850667,10.1582395 C31.0173697,12.0853743 29.2895134,13.5468116 26.6978785,15.192539 C26.6107019,15.2477823 26.6107019,15.2477823 26.5227226,15.3030679 C20.931762,18.8075479 14.7932131,20.5859375 8.28571429,20.5859375 C7.85204818,20.5859375 7.5,20.9389025 7.5,21.375 C7.5,24.977547 7.5,24.977547 7.5,27.270077 L7.5,38.2862109 Z" class="innerLine"/>
        <path fill="url(#d)" fill-rule="nonzero" d="M34,82.7333333 C33.8432762,82.7333333 33.6863905,82.7105493 33.5346857,82.665143 C24.5083333,79.9617667 15.9026095,73.5982483 9.30272381,64.7469128 C3.21672381,56.5826517 0,46.8881471 0,36.7113008 L0,15.5125 C0,14.6200465 0.724847619,13.8966146 1.61904762,13.8966146 C9.69485714,13.8966146 17.3090762,11.7007879 24.2497714,7.37005339 C28.4265905,4.76282227 31.1278095,2.12876745 32.281381,1.0041112 C32.7303429,0.56620625 32.9162095,0.385065495 33.1469238,0.242382813 C33.4082227,0.0807537364 33.7041055,-4.0529315e-05 34,1.52520484e-08 L34,82.7333333 Z" class="shadow" opacity=".2"/>
        <path fill="#E30000" d="M31.3219743,31.4410931 C31.099622,32.0623787 26.759065,43.986443 26.5971993,44.4411543 C26.550024,44.5677422 26.6108301,44.7187068 26.742559,44.7687432 C26.8783345,44.8217732 29.1793834,45.7168692 29.3135616,45.7707546 C29.4473138,45.8237847 29.5848996,45.7425289 29.6287738,45.621073 C29.6730739,45.5004724 30.6319152,42.8532463 30.7401097,42.5577321 L37.2705394,42.5577321 C37.3778819,42.8532463 38.3273521,45.4953405 38.373782,45.621073 C38.4206379,45.7473401 38.5633353,45.8182251 38.6898461,45.7707546 C38.816357,45.7224288 41.1067568,44.8281882 41.263085,44.7687432 C41.4189873,44.7092982 41.4432671,44.5417617 41.4062084,44.4411543 C41.274586,44.0777488 36.866727,31.9581362 36.6775997,31.4410931 C36.2316171,30.2205466 35.6983121,29 34.0012779,29 C32.3046696,29 31.751238,30.2397913 31.3219743,31.4410931 Z M33.9881795,32.957154 L34.0153346,32.957154 L36.2316171,39.6145641 L31.779458,39.6145641 L33.9881795,32.957154 Z M26.2474842,50.6837325 C26.1107502,50.6837325 26,50.7979182 26,50.9381913 L26,53.7701672 C26,53.9112956 26.1107502,54.0241983 26.2474842,54.0241983 L41.7546457,54.0241983 C41.8905277,54.0241983 42,53.9112956 42,53.7701672 L42,50.9381913 C42,50.7979182 41.8905277,50.6837325 41.7546457,50.6837325 L26.2474842,50.6837325 Z" class="letter"/>
    </g>
</svg>
