<svg xmlns="http://www.w3.org/2000/svg" xmlns:xlink="http://www.w3.org/1999/xlink" width="53" height="86" viewBox="0 0 53 86">
  <defs>
    <path id="a" d="M0 0h120v120H0z"/>
    <path id="c" d="M22.6 52l-2.1 3-2.1-3h-3.8361c-.8915 0-1.2148-.0928-1.5407-.2671a1.8173 1.8173 0 0 1-.756-.756c-.1744-.326-.2672-.6493-.2672-1.5408V32.564c0-.8915.0928-1.2148.2671-1.5407a1.8173 1.8173 0 0 1 .756-.756c.326-.1744.6493-.2672 1.5408-.2672H38.436c.8915 0 1.2148.0928 1.5407.2671.326.1743.5818.4301.756.756.1744.326.2672.6493.2672 1.5408v16.872c0 .8915-.0928 1.2148-.2671 1.5407a1.8173 1.8173 0 0 1-.756.756c-.326.1744-.6493.2672-1.5408.2672H22.6z"/>
  </defs>
  <g fill="none" fill-rule="evenodd" transform="translate(-34 -17)">
    <mask id="b" fill="#fff">
      <use xlink:href="#a"/>
    </mask>
    <g mask="url(#b)">
      <path fill="#EDEFF3" d="M36 28h49v64H36z"/>
      <path stroke="#283139" stroke-width="2" d="M48 23h5m6 0h10"/>
      <path stroke="#6F86A2" stroke-width="2" d="M86 97V23c0-2.7614-2.2386-5-5-5H40c-2.7614 0-5 2.2386-5 5v74c0 2.7614 2.2386 5 5 5h41c2.7614 0 5-2.2386 5-5z"/>
      <path fill="#6F86A2" d="M58.6 72l-2.1 3-2.1-3h-3.8361c-.8915 0-1.2148-.0928-1.5407-.2671a1.8173 1.8173 0 0 1-.756-.756c-.1744-.326-.2672-.6493-.2672-1.5408V52.564c0-.8915.0928-1.2148.2671-1.5407a1.8173 1.8173 0 0 1 .756-.756c.326-.1744.6493-.2672 1.5408-.2672H74.436c.8915 0 1.2148.0928 1.5407.2671.326.1743.5818.4301.756.756.1744.326.2672.6493.2672 1.5408v16.872c0 .8915-.0928 1.2148-.2671 1.5407a1.8173 1.8173 0 0 1-.756.756c-.326.1744-.6493.2672-1.5408.2672H58.6z" opacity=".1"/>
      <g transform="translate(34 17)">
        <use fill="#FFF" xlink:href="#c"/>
        <path stroke="#FFF" d="M20.5 54.1281L22.3397 51.5H38.436c.7373 0 1.0169-.054 1.305-.208a1.3174 1.3174 0 0 0 .5509-.551c.154-.288.208-.5676.208-1.3049V32.564c0-.7373-.054-1.0169-.208-1.305a1.3174 1.3174 0 0 0-.551-.5509c-.288-.154-.5676-.208-1.3049-.208H14.564c-.7373 0-1.0169.054-1.305.208a1.3174 1.3174 0 0 0-.5509.551c-.154.288-.208.5676-.208 1.3049v16.872c0 .7373.054 1.0169.208 1.305a1.318 1.318 0 0 0 .551.5509c.288.154.5676.208 1.3049.208h4.0964L20.5 54.1281z"/>
      </g>
      <path stroke="#6F86A2" d="M34 27.5l52 .5M34 91.5h52"/>
      <path stroke="#6F86A2" stroke-width="2" d="M48 23h5m6 0h10M56 97h9"/>
      <path stroke="#E30000" stroke-width="2" d="M51 53h19m-19 5h10m-10 5h15"/>
    </g>
  </g>
</svg>
