<svg xmlns="http://www.w3.org/2000/svg" xmlns:xlink="http://www.w3.org/1999/xlink" width="57" height="62"><defs><path id="a" d="M0 0h84v84H0z"/></defs><g fill="none" fill-rule="evenodd" transform="translate(-13 -12)"><mask id="b" fill="#fff"><use xlink:href="#a"/></mask><g mask="url(#b)"><g transform="translate(14 12)"><path stroke="#6F86A2" stroke-linecap="round" stroke-width="2" d="M4.3926 26.5831C3.4899 29.223 3 32.0543 3 35c0 14.3594 11.6406 26 26 26s26-11.6406 26-26S43.3594 9 29 9c-6.1018 0-11.7127 2.102-16.148 5.6213"/><path stroke="#6F86A2" stroke-linecap="round" d="M29.5 17v-3"/><path stroke="#EF3124" stroke-linecap="round" stroke-width="2" d="M42.1001 48.2362L29 35.1685v-12.709"/><path stroke="#6F86A2" stroke-linecap="round" d="M29.5 56v-3"/><g stroke="#6F86A2" stroke-linecap="round"><path d="M11 36H8M50 36h-3"/></g><g stroke="#6F86A2" stroke-linecap="round"><path d="M15.9185 48.8744l-2.1213 2.1213M43.4957 21.2972l-2.1213 2.1213"/></g><path stroke="#6F86A2" stroke-linecap="round" d="M16.6256 23.4185l-2.1213-2.1213"/><path stroke="#6F86A2" stroke-linecap="round" stroke-linejoin="round" stroke-width="2" d="M.7 27.7355L5.2403 25.3l2.4453 4.8751"/><circle cx="29" cy="35" r="3" fill="#FFF" stroke="#EF3124" stroke-width="2"/><path stroke="#6F86A2" stroke-width="2" d="M23 6v4.1736M21 1h16v4H21zM35 6v4.1736"/></g></g></g></svg>