<svg xmlns="http://www.w3.org/2000/svg" width="57" height="62"><path d="M30.5 17.5c-.3 0-.5-.2-.5-.5v-3c0-.3.2-.5.5-.5s.5.2.5.5v3c0 .3-.2.5-.5.5zM30.5 56.5c-.3 0-.5-.2-.5-.5v-3c0-.3.2-.5.5-.5s.5.2.5.5v3c0 .3-.2.5-.5.5z" fill="#6f86a2"/><g fill="#6f86a2"><path d="M12 36.5H9c-.3 0-.5-.2-.5-.5s.2-.5.5-.5h3c.3 0 .5.2.5.5s-.2.5-.5.5zM51 36.5h-3c-.3 0-.5-.2-.5-.5s.2-.5.5-.5h3c.3 0 .5.2.5.5s-.2.5-.5.5z"/></g><g fill="#6f86a2"><path d="M14.8579 51.4907c-.1415 0-.3536-.0707-.4243-.1415-.2121-.212-.2121-.495 0-.707l2.1213-2.1214c.2122-.2121.495-.2121.7071 0s.2122.495 0 .7071l-2.1213 2.1213c-.0707.0708-.2121.2122-.2828.1415zM42.435 23.9135c-.1414 0-.2121-.0707-.3535-.2121-.2122-.2122-.2122-.495 0-.7071l2.1213-2.1214c.2121-.212.495-.212.7071 0s.1414.5657-.0707.7779l-2.1213 2.1213c-.0707.0707-.2122.2121-.2829.1414z"/></g><path d="M17.6863 23.9135c-.1414 0-.3536-.0707-.4243-.1414l-2.1213-2.1213c-.2121-.2122-.2121-.495 0-.7071s.495-.2122.7071 0l2.1213 2.1213c.2122.2121.2122.495 0 .707-.0707.0708-.2121.2122-.2828.1415zM8.7 31.2c-.4 0-.7-.2-.9-.6l-2-4-3.6 1.9c-.5.3-1.1.1-1.4-.4-.3-.5-.1-1.1.4-1.4l4.5-2.4c.2-.1.5-.2.8-.1.3.1.5.3.6.5l2.4 4.9c.2.5 0 1.1-.4 1.3-.1.2-.3.3-.4.3z" fill="#6f86a2"/><path d="M43.8 47.5L33.4 37.1c.4-.6.6-1.3.6-2.1 0-1.9-1.3-3.4-3-3.9v-8.7c0-.6-.4-1-1-1s-1 .4-1 1v8.7c-1.7.4-3 2-3 3.9 0 2.2 1.8 4 4 4 .7 0 1.3-.2 1.9-.5L42.4 49c.2.2.5.3.7.3s.5-.1.7-.3c.4-.4.4-1.1 0-1.5zM32 35c0 .2 0 .4-.1.6l-.9-.8v-1.5c.6.3 1 1 1 1.7zm-2 2c-1.1 0-2-.9-2-2 0-.7.4-1.4 1-1.7v2.3l1.4 1.4H30z" fill="#ef3124"/><circle cx="30" cy="35" r="2" fill="#fff"/><path d="M37 8.9V6h2V0H21v6h2v2.9c-3.5.9-6.8 2.6-9.8 4.9-.4.3-.5 1-.2 1.4.3.4 1 .5 1.4.2C18.9 11.9 24.3 10 30 10c13.8 0 25 11.2 25 25S43.8 60 30 60 5 48.8 5 35c0-2.8.5-5.5 1.3-8.1.2-.5-.1-1.1-.6-1.3-.5-.2-1.1.1-1.3.6C3.5 29.1 3 32 3 35c0 14.9 12.1 27 27 27s27-12.1 27-27c0-12.5-8.5-23-20-26.1zM23 2h14v2H23V2zm2 6.5V6h10v2.5c-1.6-.3-3.3-.5-5-.5-1.7 0-3.4.2-5 .5z" fill="#6f86a2"/></svg>