<svg xmlns="http://www.w3.org/2000/svg" width="71" height="74"><path d="M53.2 17.8l7-6.9v-.1C66.8 17.4 71 26.6 71 36.7 71 56.8 54.8 73 34.9 73h-.6l.5-.2-.2-10.1c14.4-.2 26-12 26-26.6 0-7-2.8-13.5-7.4-18.3z" fill="#e0e4eb"/><path d="M34.5 69C17.1 69 3 54.9 3 37.5c0-3.5.6-6.9 1.7-10.2.2-.5.7-.8 1.3-.6.5.2.8.7.6 1.3C5.5 31 5 34.2 5 37.5 5 53.8 18.2 67 34.5 67S64 53.8 64 37.5 50.8 8 34.5 8c-6.7 0-13.1 2.2-18.3 6.4-.4.3-1.1.3-1.4-.2-.3-.4-.3-1.1.2-1.4C20.6 8.4 27.3 6 34.5 6 51.9 6 66 20.1 66 37.5S51.9 69 34.5 69z" fill="#6f86a2"/><path d="M22 50c-.3 0-.5-.1-.7-.3-.4-.4-.4-1 0-1.4l24-24c.4-.4 1-.4 1.4 0s.4 1 0 1.4l-24 24c-.2.2-.4.3-.7.3zM25.5 35c-3 0-5.5-2.5-5.5-5.5s2.5-5.5 5.5-5.5 5.5 2.5 5.5 5.5-2.5 5.5-5.5 5.5zm0-9c-1.9 0-3.5 1.6-3.5 3.5s1.6 3.5 3.5 3.5 3.5-1.6 3.5-3.5-1.6-3.5-3.5-3.5zM41.5 51c-3 0-5.5-2.5-5.5-5.5s2.5-5.5 5.5-5.5 5.5 2.5 5.5 5.5-2.5 5.5-5.5 5.5zm0-9c-1.9 0-3.5 1.6-3.5 3.5s1.6 3.5 3.5 3.5 3.5-1.6 3.5-3.5-1.6-3.5-3.5-3.5z" fill="#e30000"/><path d="M11.9 9.2c-.1 0-.3-.1-.4-.2-.2-.2-.1-.5.1-.7 6.5-5.2 14.4-8 22.8-8 .3 0 .5.2.5.5s-.2.5-.5.5C26.2 1.3 18.6 4 12.2 9c-.1.1-.2.2-.3.2zM8.1 33.1c-.4 0-.7-.2-.9-.6l-2-4-3.6 1.9c-.5.3-1.1.1-1.4-.4-.3-.5-.1-1.1.4-1.4l4.5-2.4c.2-.1.5-.2.8-.1.3.1.5.3.6.5l2.5 5c.2.5 0 1.1-.4 1.3-.2.1-.4.2-.5.2z" fill="#6f86a2"/></svg>