<svg xmlns="http://www.w3.org/2000/svg" xmlns:xlink="http://www.w3.org/1999/xlink" width="58" height="64"><defs><path id="a" d="M0 0h64v64H0z"/></defs><g fill="none" fill-rule="evenodd" transform="translate(-3)"><mask id="b" fill="#fff"><use xlink:href="#a"/></mask><g mask="url(#b)"><path stroke="#FFF" stroke-linecap="round" stroke-width="2" d="M8.1902 28.3727c-.909 2.6584-1.4023 5.5095-1.4023 8.4758 0 14.4598 11.722 26.1818 26.1818 26.1818s26.1818-11.722 26.1818-26.1818-11.722-26.1818-26.1818-26.1818c-6.1445 0-11.7946 2.1166-16.261 5.6605"/><path stroke="#E30000" stroke-linecap="round" stroke-width="2" d="M44.606 24.2424L19.394 49.4545"/><path fill="#E30000" d="M27.3328 34.909h-7.7181v-1.3165l3.8236-4.1705c.5518-.615.9447-1.1287 1.1786-1.5412.2339-.4126.3508-.8265.3508-1.2417 0-.5466-.1537-.9881-.4612-1.3245-.3074-.3364-.7213-.5045-1.2417-.5045-.6201 0-1.101.1892-1.4427.5676-.3416.3784-.5124.896-.5124 1.553h-1.9158c0-.699.159-1.3283.477-1.888.318-.5598.7726-.9947 1.3639-1.3048.5913-.3101 1.2732-.4652 2.0458-.4652 1.1142 0 1.9933.2799 2.6371.8396.6439.5598.9658 1.3337.9658 2.3218 0 .5729-.1616 1.1734-.4849 1.8014-.3232.6281-.8527 1.3416-1.5885 2.1405l-2.8067 3.0037h5.3294v1.5294zm7.939-4.0916h1.4269v1.5374h-1.427v2.5543H33.356v-2.5543h-4.9589l-.0551-1.1668 4.951-7.7576h1.9787v7.387zm-4.9195 0h3.0037v-4.7933l-.142.2523-2.8617 4.541zM37.2033 43.6048l.6228-5.7866h6.165v1.6556h-4.5725l-.3154 2.7435c.5309-.3048 1.13-.4573 1.7975-.4573 1.0932 0 1.9433.3495 2.5504 1.0486.607.699.9106 1.6398.9106 2.8223 0 1.1668-.3364 2.0958-1.0091 2.787-.6728.691-1.5952 1.0366-2.7672 1.0366-1.0512 0-1.9223-.2982-2.6135-.8948-.6911-.5965-1.0656-1.3835-1.1234-2.3611h1.8527c.0735.557.2733.9841.5991 1.281.3259.297.7516.4455 1.2772.4455.5886 0 1.0472-.2102 1.3757-.6307.3285-.4205.4927-.9933.4927-1.7186 0-.699-.1813-1.2522-.544-1.6596-.3626-.4073-.8619-.611-1.4979-.611-.3468 0-.6412.046-.883.138-.2417.092-.5045.272-.7883.54l-1.5294-.3784z"/><path stroke="#FFF" stroke-linecap="round" d="M32.3487.8095c-8.2283 0-15.7946 2.8344-21.7757 7.5802"/><path stroke="#FFF" stroke-linecap="round" stroke-linejoin="round" stroke-width="2" d="M4.3636 29.5131l4.4055-2.3616 2.3727 4.7274"/></g></g></svg>