<svg width="72px" height="72px" viewBox="0 0 72 72" version="1.1" xmlns="http://www.w3.org/2000/svg" xmlns:xlink="http://www.w3.org/1999/xlink">
    <defs>
        <rect id="path-1" x="0" y="0" width="84" height="84"></rect>
    </defs>
    <g id="3_internet/mob/meta_trading" stroke="none" stroke-width="1" fill="none" fill-rule="evenodd">
        <g id="AF-internet-trading_conditions_mob" transform="translate(-230.000000, -848.000000)">
            <g id="Group-34" transform="translate(224.000000, 842.000000)">
                <g id="Group-33">
                    <g id="card-icon-copy-3" transform="translate(10.000000, 10.000000)"></g>
                    <g id="24-5-icon-copy">
                        <g id="Group-35" transform="translate(6.000000, 6.000000)">
                            <g id="world-(10)">
                                <path d="M22.1903692,8.9999963 C18.3573983,13.8278992 16.0661242,19.9474914 16.0661242,26.605137 C16.0661242,42.2027443 28.642389,54.8471034 44.155998,54.8471034 C50.1886819,54.8471034 55.7771947,52.9350841 60.3547472,49.6809035 C55.3912746,58.8089571 45.7530855,65 34.6766881,65 C18.5250256,65 5.43151621,51.8355958 5.43151621,35.5964803 C5.43151621,23.848296 12.2843914,13.7093528 22.1903663,9 Z" id="Combined-Shape" fill="#E0E4EB"></path>
                                <path d="M34.8484848,6.84848485 C18.8579406,6.84848485 5.84848485,19.8579406 5.84848485,35.8484848 C5.84848485,51.8390291 18.8579406,64.8484848 34.8484848,64.8484848 C50.8390291,64.8484848 63.8484848,51.8390291 63.8484848,35.8484848 C63.8484848,19.8579406 50.8390291,6.84848485 34.8484848,6.84848485 Z" id="Shape" stroke="#6F86A2" stroke-width="2" fill-rule="nonzero"></path>
                                <path d="M10.3944745,9.02117482 C10.3909881,9.01746344 10.3873892,9.01386452 10.3837904,9.01026561 C10.006472,8.63294177 9.38757988,8.63294177 9.01026151,9.01026561 C8.63294313,9.38758945 8.63294313,10.0064905 9.01026151,10.3838144 C9.01374791,10.3874133 9.01745923,10.3910122 9.0210581,10.3944986 C9.20831148,10.576019 9.45258435,10.6666667 9.6969697,10.6666667 C9.94135504,10.6666667 10.185403,10.5759065 10.3728813,10.3944986 C10.3801915,10.3874133 10.3873892,10.3802155 10.3944745,10.3729052 C10.7573974,9.99816803 10.7573974,9.39579948 10.3944745,9.02117482 Z" id="Shape" fill="#EF3124" fill-rule="nonzero"></path>
                                <path d="M10.5533243,4.84848485 C7.40773115,4.84848485 4.84848485,7.40768361 4.84848485,10.5532183 C4.84848485,11.1514071 5.33345042,11.6363636 5.93165029,11.6363636 C6.52985015,11.6363636 7.01481573,11.1514071 7.01481573,10.5532183 C7.01481573,8.60216971 8.60223944,7.01490158 10.5531982,7.01490158 C11.1513981,7.01490158 11.6363636,6.52994501 11.6363636,5.93175626 C11.6363636,5.33356751 11.1516503,4.84848485 10.5533243,4.84848485 Z" id="Shape" fill="#EF3124" fill-rule="nonzero"></path>
                                <path d="M10.5316659,0 C4.72460823,0 0,4.72460824 0,10.5316659 C0,11.1417574 0.494606218,11.6363636 1.10469772,11.6363636 C1.71478921,11.6363636 2.20939543,11.1417574 2.20939543,10.5316659 C2.20939543,5.94273359 5.94273358,2.20939544 10.5316659,2.20939544 C11.1417574,2.20939544 11.6363636,1.71478922 11.6363636,1.10469772 C11.6364922,0.494606219 11.141886,0 10.5316659,0 Z" id="Shape" fill="#EF3124" fill-rule="nonzero"></path>
                                <path d="M62.0200975,60.6465332 C62.0164984,60.6429341 62.0128994,60.6393349 62.0091878,60.6358483 C61.6345496,60.2728991 61.0320468,60.2728991 60.657521,60.6358483 C60.6502104,60.6429341 60.6430123,60.6501323 60.6359267,60.657443 C60.2728729,61.0320894 60.2728729,61.6346054 60.6359267,62.0091393 C60.6393008,62.0128509 60.6428999,62.01645 60.6464989,62.0200491 C60.8351114,62.2086658 61.0842329,62.3030303 61.3333544,62.3030303 C61.5824759,62.3030303 61.8314849,62.2087782 62.0202099,62.0200491 C62.3973225,61.6428159 62.3973225,61.0237664 62.0200975,60.6465332 Z" id="Shape" fill="#EF3124" fill-rule="nonzero"></path>
                                <path d="M66.0682437,60.3636364 C65.470055,60.3636364 64.9850984,60.8486019 64.9850984,61.4468018 C64.9850984,63.3978867 63.3977042,64.9851843 61.4467817,64.9851843 C60.8485929,64.9851843 60.3636364,65.4701498 60.3636364,66.0683497 C60.3636364,66.6665496 60.8485929,67.1515152 61.4467817,67.1515152 C64.5923164,67.1515152 67.1515152,64.5922688 67.1515152,61.4466757 C67.1513891,60.8484758 66.6664325,60.3636364 66.0682437,60.3636364 Z" id="Shape" fill="#EF3124" fill-rule="nonzero"></path>
                                <path d="M70.8953023,60.3636364 C70.2852108,60.3636364 69.7906046,60.8582426 69.7906046,61.4683341 C69.7906046,66.0572664 66.0572664,69.7906046 61.4683341,69.7906046 C60.8582426,69.7906046 60.3636364,70.2852108 60.3636364,70.8953023 C60.3636364,71.5053938 60.8582426,72 61.4683341,72 C67.2753918,72.0001286 72,67.2755204 72,61.4684627 C72,60.858114 71.5053938,60.3636364 70.8953023,60.3636364 Z" id="Shape" fill="#EF3124" fill-rule="nonzero"></path>
                            </g>
                            <path d="M62,26.2594421 L60.7057932,26.8364165 C60.1170694,26.8364165 59.3421161,28.7529645 58.8157061,28.9807143 C58.2892961,29.2084641 56.7143731,27.073237 56.3035269,26.8364165 L54.4294699,26.3641758 C54.2296409,26.2489525 53.0569616,26.9278035 52.8169118,26.9278035 C51.817809,26.1863773 51.4067344,25.6368361 51.583688,25.2791799 C51.8491183,24.7426955 53.0913368,23.8727273 53.1729112,23.8727273 C54.1470825,23.8088382 54.7664287,23.8088382 55.0309498,23.8727273 C55.295471,23.9366164 55.5068523,24.089185 55.6650936,24.3304333 C55.6650936,24.911943 56.2096313,25.3833777 56.8816291,25.3833777 C57.4806913,25.3833777 57.9775023,25.0082892 58.078479,24.514913 C58.1457968,24.1859956 58.2936976,24.2500221 58.5221816,24.7069927 C58.959228,24.8961304 59.4482497,24.9960314 59.936705,24.9960314 L61.4717489,24.9960314 C61.6610979,25.4115706 61.8364263,25.8332387 62,26.2594421 Z M34.8101551,65 C18.9242883,65 6,51.9905148 6,36.0000717 C6,32.8327682 6.50877414,29.7832397 7.4453746,26.9278035 L8.24231157,29.3343746 C8.7623443,30.9050439 10.2115668,31.9630113 11.8538954,31.9744876 L12.3214831,32.915971 C12.8091652,33.8980518 13.7024414,34.5846188 14.7721498,34.800229 L19.4407582,35.739991 C19.7032685,35.7927818 19.9419791,35.9214594 20.1312374,36.1119652 C20.5110365,36.4944115 21.104181,37.2483678 21.332488,37.7366977 C21.4846927,38.0622509 21.2372406,38.6679166 20.5901317,39.5536948 C20.5485177,39.6793598 20.5272831,39.8107629 20.5272831,39.9434572 L20.5272831,42.5723808 C20.5272831,43.7811176 21.100901,44.9360594 22.0615863,45.6613589 L25.1956065,48.0273328 C25.5430551,48.2895653 25.7505551,48.707301 25.7505551,49.144403 L25.7505551,56.235152 C25.7505551,57.000188 25.9733041,57.7408369 26.3948598,58.3770519 L28.2771816,61.2192905 C28.6869087,61.8377173 29.3721149,62.2069659 30.1106212,62.2069659 L30.5658102,62.2069659 C31.4207503,62.2069659 32.1165025,61.5066273 32.1165025,60.6460515 L32.1165025,58.3925449 C32.1165025,57.8439798 32.3287055,57.328122 32.7140627,56.9402245 L35.1305261,54.5078318 C35.6207734,54.0143527 35.9955846,53.4036724 36.2150558,52.7414924 L36.9796422,50.4327563 C36.9870529,50.410282 37.2298488,50.3915374 37.70803,50.3765226 C38.8712274,50.3765226 39.8806524,49.5832264 40.1625446,48.4473638 L41.0418545,44.9070819 C41.2560527,44.0443543 41.0010956,43.1176465 40.3761727,42.488891 L38.6697129,40.7711822 C38.1920068,40.290327 37.5565379,40.0252255 36.8807376,40.0252255 L35.3169341,40.0252255 L30.8345911,35.513335 C30.356885,35.0324798 29.7214161,34.7673782 29.0456159,34.7673782 L23.0856902,34.7673782 C23.072959,34.7670913 22.9837929,34.7670913 22.8181919,34.7673782 C22.457347,34.7673782 22.1177367,34.6259334 21.8626371,34.3688652 C21.3304907,33.8330675 20.6589658,33.4714219 19.920887,33.3229478 C19.1828083,33.1744737 19.0582512,32.0566863 19.0582512,32.0566863 C19.0582512,32.0566863 19.6806088,30.6600258 20.4457652,30.6600258 C20.8959567,30.4210518 21.3584614,30.4210518 21.8332793,30.6600258 C22.545506,31.0184867 22.3813872,31.9744876 23.0574725,31.9744876 C23.7335578,31.9744876 24.2816657,31.4227665 24.2816657,30.7422245 L24.2816657,29.9358739 C24.2893615,29.9282709 31.5625146,22.4886437 31.7151468,22.4886437 C31.867779,22.4886437 35.8574888,21.45908 35.8574888,21.45908 C35.8574888,21.45908 36.0342058,20.3166186 36.0342058,18.912355 L36.0342058,18.3012443 C36.0342058,17.4476977 34.5795679,17.4108754 33.8742672,16.9376233 C33.674856,16.2220927 33.674856,15.7391184 33.8742672,15.4887006 C34.0736785,15.2382827 34.7347524,15.071877 35.8574888,14.9894834 C36.7303856,14.77 37.3400595,13.9841633 37.3400595,13.0776824 C37.3400595,11.9914546 35.4965883,10.3883912 34.4174741,10.3883912 L29.0456159,10.3883912 C28.509194,10.3883912 26.4321984,11.2351693 25.9524971,11.4767445 L25.143589,11.8838647 C24.7694903,11.4111864 24.1928797,11.1076394 23.5471498,11.1076394 L21.5274447,11.1076394 C20.5029133,11.1076394 19.5395202,11.5091649 18.8149802,12.2386245 L17.8339155,13.2261565 L17.4679401,12.8579121 C22.2960214,9.18307104 28.3041167,7 34.8098701,7 C41.3156235,7 47.3237187,9.18292758 52.151515,12.8577686 L51.302418,13.7124629 C50.8244269,14.193605 50.5613464,14.8329759 50.5613464,15.5132311 L50.5613464,17.7281487 C50.5613464,18.1625251 50.3931802,18.5709364 50.0882008,18.8780697 C49.9117687,19.0556648 49.6935801,19.1913715 49.4567223,19.2709881 L47.0680491,20.0724612 C46.0333991,20.419618 45.3379319,21.3905093 45.3379319,22.4886437 L45.3379319,24.6629641 C45.3379319,25.2838296 45.5086634,25.8642413 45.8009592,26.3641758 C46.0932549,26.8641102 44.8687766,27.1339457 44.526031,27.6518118 L43.3705294,29.3962029 C42.9489737,30.0325614 42.7262247,30.7732104 42.7262247,31.5381029 L42.7262247,33.8894446 C42.7262247,34.6543371 42.9489737,35.3949861 43.3705294,36.0313445 L44.7683044,38.1416848 C45.4814433,39.2184446 46.6745685,39.861115 47.9599002,39.861115 L51.208929,39.861115 C51.8072018,39.861115 52.3360704,40.2447089 52.5250436,40.8160831 L52.8169118,41.6970293 C53.0530571,42.4102787 53.1729112,43.1532229 53.1729112,43.9053481 L53.1729112,44.8356422 C53.1729112,46.0646059 53.3429301,47.2871142 53.67855,48.4693121 L55.7777778,55.8656165 C50.5205875,61.4851093 43.0659775,65 34.8101551,65 Z" id="Shape-Copy-7" stroke="#6F86A2" fill-rule="nonzero"></path>
                        </g>
                        <mask id="mask-2" fill="white">
                            <use xlink:href="#path-1"></use>
                        </mask>
                        <g id="Mask"></g>
                    </g>
                </g>
            </g>
        </g>
    </g>
</svg>